<svg xmlns="http://www.w3.org/2000/svg" width="54" height="54" viewBox="0 0 54 54" fill="none">
  <circle cx="27.4316" cy="26.9418" r="26.4784" fill="#F7931A"/>
  <path d="M39.1052 23.1695C39.6323 19.6462 36.9497 17.7521 33.2816 16.4886L34.4715 11.7159L31.5663 10.9919L30.4079 15.6388C29.6442 15.4485 28.8597 15.269 28.0803 15.0911L29.247 10.4135L26.3435 9.68945L25.1528 14.4605C24.5206 14.3166 23.9 14.1742 23.2976 14.0245L23.3009 14.0096L19.2944 13.0092L18.5216 16.1121C18.5216 16.1121 20.6771 16.6061 20.6316 16.6367C21.8082 16.9305 22.0209 17.7091 21.9853 18.3264L20.6299 23.7636C20.711 23.7843 20.8161 23.814 20.9319 23.8604C20.8351 23.8364 20.7317 23.8099 20.6249 23.7843L18.7251 31.4009C18.5811 31.7584 18.2162 32.2946 17.3937 32.091C17.4227 32.1332 15.2821 31.564 15.2821 31.564L13.8398 34.8895L17.6205 35.8319C18.3238 36.0082 19.0131 36.1927 19.6916 36.3665L18.4893 41.1938L21.3912 41.9178L22.5819 37.1418C23.3746 37.3569 24.1441 37.5555 24.8971 37.7425L23.7105 42.4962L26.6157 43.2203L27.818 38.402C32.7719 39.3395 36.4971 38.9614 38.0651 34.4807C39.3286 30.873 38.0022 28.792 35.3958 27.435C37.2939 26.9972 38.7238 25.7486 39.1052 23.1695ZM32.4674 32.4775C31.5696 36.0851 25.4953 34.1348 23.526 33.6458L25.1213 27.2504C27.0906 27.742 33.4058 28.715 32.4674 32.4775ZM33.366 23.1173C32.5469 26.399 27.4911 24.7317 25.8511 24.3229L27.2975 18.5225C28.9375 18.9313 34.2191 19.6942 33.366 23.1173Z" fill="white"/>
</svg>