<svg xmlns="http://www.w3.org/2000/svg" width="53" height="53" viewBox="0 0 53 53" fill="none">
  <circle cx="26.4784" cy="26.5218" r="26.4784" fill="#1C1C24"/>
  <path fill-rule="evenodd" clip-rule="evenodd" d="M26.1081 7.047C26.0198 7.25826 23.3524 11.7373 20.1805 17.0004C17.0085 22.2634 14.3869 26.6386 14.3545 26.7231C14.3124 26.8329 16.0356 27.9049 20.3968 30.4819L26.4983 34.087L32.598 30.4799C36.9801 27.8885 38.681 26.8292 38.6385 26.7182C38.4181 26.1437 26.5567 6.66278 26.4273 6.66278C26.34 6.66278 26.1964 6.83562 26.1081 7.047ZM14.369 29.3158C14.6041 29.7178 26.4479 46.382 26.4974 46.3804C26.5793 46.3779 38.6883 29.2664 38.6415 29.2195C38.5973 29.1754 27.2788 35.8417 26.8066 36.1899L26.5172 36.4034L20.657 32.9435C17.4338 31.0406 14.6777 29.4068 14.5322 29.3131C14.2912 29.1578 14.2767 29.158 14.369 29.3158Z" fill="white"/>
</svg>