<svg xmlns="http://www.w3.org/2000/svg" width="53" height="54" viewBox="0 0 53 54" fill="none">
  <path d="M26.467 53.2857C11.6576 53.2546 -0.103918 41.1933 0.000692424 26.6045C0.102475 12.1853 11.8527 0.197521 26.7187 0.324749C41.4206 0.44915 53.0747 12.4963 52.956 27.0286C52.8401 41.3658 41.2086 53.2659 26.467 53.2857ZM26.4218 12.7366C22.3788 12.7366 18.3357 12.7366 14.2927 12.7366C13.9534 12.7366 13.9902 12.7196 13.9902 13.0448C13.9902 14.9673 13.9873 16.8899 13.9902 18.8124C13.9902 19.2563 13.928 19.2054 14.3775 19.2054C17.2048 19.2054 20.0321 19.2054 22.8594 19.2054C23.1647 19.2054 23.1647 19.2054 23.1647 19.5136C23.1647 20.5032 23.1647 21.4927 23.1647 22.4823C23.1647 22.7311 23.1619 22.7339 22.9188 22.7424C21.6663 22.7905 20.4194 22.8894 19.1726 23.0223C17.7109 23.1778 16.2605 23.3927 14.8242 23.715C13.894 23.9242 12.978 24.173 12.1044 24.5575C11.6181 24.7724 11.1544 25.0184 10.7755 25.4001C10.1592 26.0221 10.1592 26.7487 10.784 27.365C10.9028 27.4838 11.0413 27.5884 11.177 27.6873C11.4117 27.8598 11.6718 27.9955 11.9375 28.1227C12.4832 28.38 13.0543 28.5779 13.6339 28.7391C15.9382 29.3837 18.3018 29.6778 20.6767 29.8757C21.3892 29.935 22.1045 29.9718 22.8198 30.0114C23.1987 30.034 23.1676 29.9661 23.1676 30.3761C23.1676 34.3173 23.1676 38.2558 23.1676 42.197C23.1676 42.2734 23.1732 42.3469 23.1676 42.4232C23.1591 42.5617 23.2269 42.6098 23.3542 42.5957C23.3909 42.5928 23.4305 42.5957 23.4673 42.5957C25.4266 42.5957 27.3887 42.5957 29.348 42.5957C29.6732 42.5957 29.6506 42.624 29.6506 42.2903C29.6506 40.1783 29.6506 38.0663 29.6506 35.9572C29.6506 34.0629 29.6506 32.1686 29.6506 30.2743C29.6506 30.0114 29.6534 30.0114 29.8824 30.0001C31.8021 29.9096 33.7162 29.7315 35.6133 29.429C36.88 29.2282 38.1325 28.9766 39.3538 28.5808C39.973 28.38 40.5781 28.1454 41.1322 27.7976C41.446 27.5997 41.7373 27.3763 41.938 27.0568C42.2292 26.596 42.2207 26.1323 41.9239 25.6771C41.8051 25.4934 41.6496 25.3407 41.48 25.205C41.1916 24.9731 40.8721 24.7922 40.5385 24.6367C39.6111 24.2041 38.6329 23.9355 37.6377 23.7122C35.1016 23.1467 32.5259 22.8979 29.9389 22.7537C29.6506 22.7367 29.6477 22.7424 29.6477 22.454C29.6477 21.4927 29.6449 20.5314 29.6477 19.5702C29.6477 19.1743 29.5968 19.1998 30.004 19.1998C32.8398 19.1998 35.6784 19.1998 38.5141 19.1998C38.8449 19.1998 38.8167 19.2281 38.8167 18.8944C38.8167 16.9719 38.8195 15.0493 38.8167 13.1268C38.8167 12.6687 38.876 12.7338 38.435 12.7338C34.4315 12.7366 30.4252 12.7366 26.4218 12.7366Z" fill="#27A17C"/>
  <path d="M26.4211 12.7368C30.4273 12.7368 34.4308 12.7368 38.4371 12.7368C38.8781 12.7368 38.8188 12.6746 38.8188 13.1298C38.8216 15.0524 38.8216 16.9749 38.8188 18.8975C38.8188 19.2311 38.8442 19.2028 38.5162 19.2028C35.6805 19.2028 32.8418 19.2028 30.0061 19.2028C29.5989 19.2028 29.6498 19.1746 29.6498 19.5732C29.647 20.5345 29.6498 21.4958 29.6498 22.4571C29.6498 22.7454 29.6498 22.7398 29.941 22.7568C32.5308 22.8981 35.1065 23.1469 37.6398 23.7152C38.6322 23.9357 39.6132 24.2072 40.5406 24.6397C40.8742 24.7952 41.1937 24.9762 41.4821 25.208C41.6517 25.3437 41.8072 25.4964 41.926 25.6802C42.2228 26.1354 42.2313 26.5991 41.9401 27.0599C41.7393 27.3766 41.4481 27.6027 41.1343 27.8007C40.5802 28.1484 39.9751 28.3831 39.3559 28.5838C38.1345 28.9796 36.8792 29.2313 35.6154 29.432C33.7155 29.7345 31.8042 29.9126 29.8845 30.0031C29.6555 30.0144 29.6527 30.0173 29.6527 30.2774C29.6527 32.1717 29.6527 34.0659 29.6527 35.9602C29.6527 38.0722 29.6527 40.1842 29.6527 42.2934C29.6527 42.6298 29.6753 42.5987 29.3501 42.5987C27.3908 42.5987 25.4287 42.5987 23.4694 42.5987C23.4326 42.5987 23.393 42.5959 23.3563 42.5987C23.2262 42.6129 23.1583 42.5648 23.1697 42.4263C23.1753 42.3499 23.1697 42.2764 23.1697 42.2001C23.1697 38.2588 23.1697 34.3204 23.1697 30.3791C23.1697 29.9692 23.2008 30.0342 22.8219 30.0144C22.1066 29.9748 21.3913 29.9381 20.6788 29.8787C18.3011 29.678 15.9403 29.3839 13.636 28.7421C13.0564 28.581 12.4853 28.3831 11.9396 28.1258C11.6739 28.0014 11.4166 27.8657 11.1791 27.6904C11.0434 27.5914 10.9077 27.4868 10.7861 27.3681C10.1613 26.7517 10.1613 26.0223 10.7776 25.4031C11.1565 25.0214 11.623 24.7754 12.1064 24.5606C12.9801 24.1761 13.8961 23.9244 14.8263 23.718C16.2597 23.3957 17.713 23.1809 19.1747 23.0253C20.4215 22.8925 21.6684 22.7935 22.9209 22.7454C23.164 22.737 23.1668 22.7341 23.1668 22.4853C23.1668 21.4958 23.1668 20.5062 23.1668 19.5167C23.1668 19.2085 23.1668 19.2085 22.8615 19.2085C20.0342 19.2085 17.2069 19.2085 14.3796 19.2085C13.9329 19.2085 13.9951 19.2566 13.9923 18.8155C13.9894 16.8929 13.9894 14.9704 13.9923 13.0478C13.9923 12.7255 13.9555 12.7396 14.2948 12.7396C18.335 12.7368 22.378 12.7368 26.4211 12.7368ZM26.1892 29.1973C27.3569 29.2228 28.5246 29.1804 29.6922 29.1267C31.2925 29.0531 32.8871 28.9203 34.4732 28.7026C35.7794 28.5244 37.0771 28.3011 38.3522 27.9562C39.0902 27.7582 39.814 27.5208 40.4897 27.156C40.713 27.0345 40.9251 26.8931 41.1032 26.7065C41.2361 26.568 41.2842 26.404 41.2474 26.2145C41.1965 25.9516 41.0523 25.748 40.8685 25.5671C40.5406 25.2448 40.1448 25.0299 39.7291 24.8461C38.5247 24.3118 37.2468 24.0262 35.9604 23.7831C33.9417 23.4042 31.8975 23.2035 29.8506 23.0593C29.664 23.0451 29.6583 23.0508 29.6527 23.2346C29.6498 23.2911 29.6527 23.3477 29.6527 23.4042C29.6527 24.9112 29.6527 26.4209 29.6527 27.9279C29.6527 27.9929 29.647 28.0608 29.6527 28.1258C29.664 28.2502 29.6272 28.3181 29.483 28.3181C29.3049 28.3181 29.1268 28.3435 28.9458 28.3491C27.1364 28.4114 25.3297 28.4085 23.5202 28.3491C23.1018 28.335 23.1668 28.3463 23.164 27.9675C23.1612 26.4322 23.164 24.8942 23.164 23.359C23.164 23.0395 23.164 23.0367 22.8643 23.0593C22.3582 23.096 21.8493 23.1271 21.3432 23.1752C19.89 23.3109 18.4396 23.4749 17.0033 23.7265C15.8809 23.9244 14.7669 24.1563 13.6841 24.5153C13.0847 24.7132 12.4966 24.9423 11.9679 25.2957C11.7134 25.4653 11.4873 25.6604 11.3346 25.929C11.1282 26.2965 11.1734 26.5538 11.4901 26.8281C11.5834 26.9072 11.6823 26.9807 11.7841 27.0458C12.1262 27.2635 12.4966 27.4275 12.8783 27.5688C13.8254 27.9251 14.8037 28.1597 15.7932 28.352C18.1258 28.8072 20.4894 29.0277 22.8615 29.138C23.967 29.1832 25.0781 29.2228 26.1892 29.1973Z" fill="#FEFEFE"/>
  <path d="M26.1911 29.1975C25.0799 29.2229 23.9688 29.1834 22.8577 29.1325C20.4856 29.0222 18.1248 28.8017 15.7894 28.3465C14.7999 28.1542 13.8216 27.9167 12.8745 27.5633C12.4956 27.4219 12.1253 27.258 11.7803 27.0403C11.6786 26.9752 11.5768 26.9017 11.4863 26.8226C11.1668 26.5483 11.1216 26.291 11.3308 25.9235C11.4835 25.6549 11.7125 25.4598 11.9641 25.2902C12.4928 24.9368 13.0809 24.7077 13.6803 24.5098C14.7631 24.1536 15.8771 23.9189 16.9995 23.721C18.4386 23.4694 19.8862 23.3026 21.3394 23.1697C21.8455 23.1216 22.3544 23.0905 22.8605 23.0538C23.1602 23.0312 23.1602 23.034 23.1602 23.3535C23.1602 24.8887 23.1602 26.4267 23.1602 27.962C23.1602 28.3436 23.098 28.3295 23.5165 28.3436C25.3259 28.4058 27.1326 28.4058 28.942 28.3436C29.1202 28.338 29.2983 28.3125 29.4792 28.3125C29.6234 28.3125 29.6573 28.2475 29.6489 28.1203C29.6432 28.0553 29.6489 27.9874 29.6489 27.9224C29.6489 26.4154 29.6489 24.9057 29.6489 23.3987C29.6489 23.3422 29.646 23.2856 29.6489 23.2291C29.6573 23.0481 29.663 23.0425 29.8468 23.0538C31.8937 23.198 33.9379 23.3987 35.9566 23.7776C37.243 24.0207 38.5209 24.3034 39.7253 24.8406C40.141 25.0244 40.5368 25.2393 40.8647 25.5616C41.0485 25.7425 41.1927 25.9461 41.2436 26.209C41.2804 26.4013 41.2351 26.5624 41.0994 26.701C40.9213 26.8876 40.7121 27.029 40.4859 27.1505C39.8102 27.5181 39.0864 27.7527 38.3485 27.9507C37.0733 28.2956 35.7756 28.5189 34.4694 28.6971C32.8833 28.9148 31.2859 29.0476 29.6884 29.1212C28.5264 29.1805 27.3587 29.2258 26.1911 29.1975Z" fill="#27A17C"/>
</svg>