<svg width="181" height="314" viewBox="0 0 181 314" fill="none" xmlns="http://www.w3.org/2000/svg">
<g clip-path="url(#clip0_693_25558)">
<circle cx="29.8213" cy="29.8213" r="28.8213" transform="matrix(-1 0 0 1 221.32 133.679)" stroke="white" stroke-width="2"/>
<circle opacity="0.4" cx="56.1571" cy="56.1571" r="55.1571" transform="matrix(-1 0 0 1 247.656 107.343)" stroke="white" stroke-width="2"/>
<circle opacity="0.2" cx="82.4928" cy="82.4928" r="81.4928" transform="matrix(-1 0 0 1 273.992 81.0073)" stroke="white" stroke-width="2"/>
<circle opacity="0.1" cx="108.829" cy="108.829" r="107.829" transform="matrix(-1 0 0 1 300.328 54.6714)" stroke="white" stroke-width="2"/>
<circle opacity="0.1" cx="135.164" cy="135.164" r="134.164" transform="matrix(-1 0 0 1 326.664 28.3357)" stroke="white" stroke-width="2"/>
<circle opacity="0.05" cx="161.5" cy="161.5" r="160.5" transform="matrix(-1 0 0 1 353 2)" stroke="white" stroke-width="2"/>
</g>
<defs>
<clipPath id="clip0_693_25558">
<rect width="181" height="314" fill="white" transform="matrix(-1 0 0 1 181 0)"/>
</clipPath>
</defs>
</svg>
