<svg width="145" height="144" viewBox="0 0 145 144" fill="none" xmlns="http://www.w3.org/2000/svg">
<g id="Group 1171275815" filter="url(#filter0_d_693_25590)">
<g id="Group">
<path id="Vector" d="M90.1526 67.5519C90.1526 68.2569 90.1526 68.9157 90.1526 69.5745C90.1526 70.3488 90.0345 70.476 89.255 70.5106C89.1841 70.5106 89.1132 70.5222 89.0187 70.5337C89.0187 74.706 89.0187 78.8667 89.0187 83.0274C90.1526 83.2355 90.1526 83.2355 90.1526 84.4028C90.1526 84.9344 90.1526 85.4661 90.1526 86.0324C90.8494 86.0324 91.4872 86.0324 92.1367 86.0324C92.8926 86.0324 93.058 86.1942 93.058 86.957C93.058 88.367 93.058 89.7886 93.058 91.1986C93.058 91.9036 92.869 92.1001 92.1367 92.1001C84.2118 92.1001 76.2869 92.1001 68.362 92.1001C62.9055 92.1001 57.4609 92.1001 52.0044 92.1001C51.1658 92.1001 51.0005 91.9383 51.0005 91.1177C51.0005 89.7655 51.0005 88.4017 51.0005 87.0495C51.0005 86.1595 51.1304 86.044 52.0516 86.044C52.6539 86.044 53.2563 86.044 53.9059 86.044C53.9059 85.3389 53.9059 84.6802 53.9059 84.0214C53.9059 83.247 54.024 83.1199 54.8153 83.0852C54.8861 83.0852 54.957 83.0621 55.0397 83.0505C55.0397 78.8783 55.0397 74.7176 55.0397 70.5569C53.9059 70.3604 53.9059 70.3604 53.9059 69.2277C53.9059 68.6845 53.9059 68.1413 53.9059 67.5519C53.1618 67.5519 52.4768 67.5519 51.7918 67.5519C51.2249 67.5519 51.0123 67.3439 51.0123 66.8007C51.0005 65.9454 51.0005 65.1017 51.0123 64.2464C51.0123 63.7264 51.2367 63.5068 51.7563 63.4952C52.028 63.4837 52.3114 63.4952 52.6067 63.4952C52.6067 62.952 52.6067 62.455 52.6067 61.9234C52.2996 61.9234 52.0162 61.9234 51.7445 61.9234C51.2485 61.9118 51.0241 61.7038 51.0123 61.2068C51.0005 60.4209 51.0123 59.635 51.0005 58.8606C50.9887 58.4215 51.2012 58.1787 51.6146 58.0285C53.9177 57.2426 56.2207 56.4336 58.512 55.6361C62.8819 54.1105 67.24 52.5849 71.6099 51.0709C71.858 50.9784 72.2005 50.9784 72.4485 51.0593C79.1215 53.3708 85.7826 55.7054 92.4438 58.0285C92.8808 58.1787 93.0698 58.4446 93.058 58.8953C93.0343 59.635 93.058 60.3631 93.0462 61.1028C93.0462 61.7153 92.8454 61.9118 92.2312 61.9118C91.9832 61.9118 91.7352 61.9118 91.4517 61.9118C91.4517 62.4435 91.4517 62.9404 91.4517 63.4837C91.7588 63.4837 92.0541 63.4721 92.3375 63.4837C92.8099 63.5068 93.0343 63.7264 93.0462 64.1887C93.058 65.067 93.058 65.9454 93.0462 66.8238C93.0462 67.3207 92.8099 67.5288 92.3021 67.5288C91.6171 67.5519 90.9084 67.5519 90.1526 67.5519ZM62.5748 85.9977C68.9053 85.9977 75.1767 85.9977 81.4954 85.9977C81.4954 85.3621 81.4954 84.7611 81.4954 84.1601C81.4954 83.1892 81.5426 83.1315 82.5111 83.0621C82.5465 83.0621 82.5938 83.0274 82.6292 83.0159C82.6292 78.8436 82.6292 74.6945 82.6292 70.5337C81.5072 70.3951 81.5072 70.3951 81.5072 69.274C81.5072 68.7077 81.5072 68.1298 81.5072 67.5519C75.1767 67.5519 68.9053 67.5519 62.6457 67.5519C62.6221 67.5981 62.5985 67.6212 62.5985 67.6444C62.5985 68.1529 62.5867 68.6499 62.5867 69.1584C62.5867 70.3257 62.5867 70.3257 61.4528 70.5337C61.4528 74.6829 61.4528 78.8436 61.4528 83.0159C61.5473 83.0274 61.6182 83.039 61.689 83.0505C62.4804 83.0852 62.5985 83.2124 62.5985 83.9867C62.5748 84.6686 62.5748 85.3274 62.5748 85.9977ZM91.8179 60.6867C91.8179 60.3053 91.7942 59.947 91.8297 59.5888C91.8651 59.2305 91.7352 59.0687 91.3809 58.9415C85.0622 56.7456 78.7435 54.5266 72.4249 52.3306C72.1887 52.2497 71.8698 52.2497 71.6336 52.3422C67.677 53.706 63.7323 55.0929 59.7875 56.4682C57.39 57.3004 54.9924 58.1441 52.6067 58.9878C52.465 59.034 52.276 59.1842 52.2642 59.2883C52.2288 59.739 52.2524 60.2013 52.2524 60.6752C65.4566 60.6867 78.6136 60.6867 91.8179 60.6867ZM91.7942 87.2806C78.6018 87.2806 65.433 87.2806 52.2642 87.2806C52.2642 88.4941 52.2642 89.673 52.2642 90.8519C65.4566 90.8519 78.6136 90.8519 91.7942 90.8519C91.7942 89.6499 91.7942 88.471 91.7942 87.2806ZM91.7942 64.7319C78.59 64.7319 65.4448 64.7319 52.2642 64.7319C52.2642 65.2635 52.2642 65.7836 52.2642 66.3152C65.4448 66.3152 78.6018 66.3152 91.7942 66.3152C91.7942 65.7836 91.7942 65.2635 91.7942 64.7319ZM53.8822 63.449C65.9999 63.449 78.0821 63.449 90.1644 63.449C90.1644 62.9289 90.1644 62.4435 90.1644 61.9465C78.0585 61.9465 65.9763 61.9465 53.8822 61.9465C53.8822 62.4666 53.8822 62.9404 53.8822 63.449ZM60.1419 83.0621C60.1419 78.8667 60.1419 74.706 60.1419 70.5453C58.8545 70.5453 57.5908 70.5453 56.3389 70.5453C56.3389 74.7291 56.3389 78.8898 56.3389 83.0621C57.6144 83.0621 58.8663 83.0621 60.1419 83.0621ZM87.7314 83.0621C87.7314 78.8667 87.7314 74.706 87.7314 70.5453C86.444 70.5453 85.1803 70.5453 83.9284 70.5453C83.9284 74.7291 83.9284 78.8898 83.9284 83.0621C85.2039 83.0621 86.444 83.0621 87.7314 83.0621ZM55.1696 69.2624C57.2365 69.2624 59.2797 69.2624 61.2993 69.2624C61.2993 68.673 61.2993 68.1298 61.2993 67.575C59.2324 67.575 57.2128 67.575 55.1696 67.575C55.1696 68.1413 55.1696 68.6845 55.1696 69.2624ZM88.9006 67.5866C86.822 67.5866 84.7906 67.5866 82.7591 67.5866C82.7591 68.1645 82.7591 68.7077 82.7591 69.2624C84.8142 69.2624 86.8574 69.2624 88.9006 69.2624C88.9006 68.6961 88.9006 68.1529 88.9006 67.5866ZM55.1696 84.3103C55.1696 84.8882 55.1696 85.4314 55.1696 86.0093C57.2246 86.0093 59.2679 86.0093 61.2993 86.0093C61.2993 85.4314 61.2993 84.8766 61.2993 84.3103C59.2443 84.3103 57.2246 84.3103 55.1696 84.3103ZM82.7473 85.9977C84.826 85.9977 86.8574 85.9977 88.8888 85.9977C88.8888 85.4198 88.8888 84.8766 88.8888 84.3219C86.8338 84.3219 84.7906 84.3219 82.7473 84.3219C82.7473 84.8882 82.7473 85.4314 82.7473 85.9977Z" fill="#1C1C24"/>
</g>
</g>
<defs>
<filter id="filter0_d_693_25590" x="0" y="0" width="144.059" height="143.1" filterUnits="userSpaceOnUse" color-interpolation-filters="sRGB">
<feFlood flood-opacity="0" result="BackgroundImageFix"/>
<feColorMatrix in="SourceAlpha" type="matrix" values="0 0 0 0 0 0 0 0 0 0 0 0 0 0 0 0 0 0 127 0" result="hardAlpha"/>
<feOffset/>
<feGaussianBlur stdDeviation="25.5"/>
<feComposite in2="hardAlpha" operator="out"/>
<feColorMatrix type="matrix" values="0 0 0 0 0.591667 0 0 0 0 0.632115 0 0 0 0 1 0 0 0 1 0"/>
<feBlend mode="normal" in2="BackgroundImageFix" result="effect1_dropShadow_693_25590"/>
<feBlend mode="normal" in="SourceGraphic" in2="effect1_dropShadow_693_25590" result="shape"/>
</filter>
</defs>
</svg>
