<svg width="24" height="23" viewBox="0 0 24 23" fill="none" xmlns="http://www.w3.org/2000/svg">
<path d="M1.32459 16.6181C1.3057 16.3274 1.48518 16.1184 1.72134 15.9275C2.09919 15.6277 2.16532 15.1643 1.89137 14.7917C1.71189 14.5373 1.45684 14.4464 1.14511 14.4282C0.512198 14.401 0.134341 13.8467 0.342162 13.2742C0.436626 13.0016 0.663341 12.8562 0.92784 12.7563C1.48518 12.5473 1.68355 11.9294 1.33404 11.466C1.22068 11.3206 1.06954 11.2297 0.8995 11.1661C0.436627 10.9844 0.209913 10.6391 0.29493 10.212C0.379948 9.77584 0.69168 9.5305 1.19234 9.50324C1.59854 9.48506 1.87248 9.27607 2.00473 8.92169C2.12753 8.59457 2.02362 8.24018 1.693 7.99484C1.14511 7.59503 1.27736 6.9317 1.61743 6.65001C1.86303 6.44101 2.13698 6.39558 2.44871 6.46827C3.06273 6.62275 3.55394 6.32289 3.62951 5.75951C3.65785 5.53234 3.57283 5.33244 3.44058 5.14161C3.23276 4.84175 3.22332 4.52372 3.43114 4.22386C3.62951 3.924 3.92235 3.78769 4.30021 3.82404C4.4608 3.84221 4.59305 3.91491 4.7253 3.99669C5.05592 4.1966 5.41488 4.1966 5.71717 3.99669C6.0289 3.78769 6.1706 3.4424 6.04779 3.07893C5.82108 2.37017 6.40676 1.88857 6.96409 1.92492C7.25693 1.94309 7.45531 2.09757 7.62534 2.30656C7.95597 2.6882 8.46607 2.74272 8.86282 2.43377C9.08954 2.26113 9.17455 2.03396 9.184 1.76136C9.21234 1.09803 9.91137 0.725473 10.5159 1.03442C10.7332 1.14346 10.8371 1.33428 10.9221 1.54328C11.1111 1.98853 11.5078 2.18843 11.9801 2.07031C12.3108 1.98853 12.4808 1.75227 12.5942 1.47058C12.802 0.970814 13.3688 0.779993 13.86 1.04351C14.1528 1.19798 14.2756 1.44332 14.2945 1.75227C14.3228 2.18843 14.5118 2.46103 14.8896 2.58825C15.258 2.71546 15.5887 2.60642 15.8909 2.26113C16.2027 1.90675 16.6183 1.82496 17.034 2.03396C17.4118 2.22478 17.563 2.58825 17.4402 3.04258C17.3362 3.4424 17.4496 3.76952 17.7613 3.9876C18.0636 4.20568 18.432 4.1966 18.791 3.97852C19.1877 3.73317 19.6223 3.76952 19.934 4.06938C20.2457 4.36924 20.3024 4.77815 20.0285 5.14161C19.5845 5.74134 20.019 6.40467 20.5764 6.50462C20.7181 6.53188 20.8409 6.49553 20.9731 6.46827C21.5021 6.35923 21.8611 6.50462 22.0689 6.90444C22.2673 7.29517 22.1634 7.66772 21.7666 7.98576C21.4927 8.20384 21.3793 8.47644 21.4454 8.81265C21.5116 9.12159 21.7005 9.34876 22.0217 9.44872C22.1067 9.47598 22.1917 9.48506 22.2767 9.49415C22.8057 9.5305 23.1174 9.78492 23.193 10.2483C23.2497 10.6482 23.023 10.9935 22.5601 11.1661C21.9461 11.4024 21.7761 12.1111 22.2295 12.5564C22.3239 12.6472 22.4468 12.7108 22.5696 12.7563C23.0324 12.9289 23.2591 13.2651 23.193 13.6831C23.1269 14.1284 22.8152 14.3919 22.3051 14.4282C21.6344 14.4737 21.2471 15.0825 21.5305 15.6368C21.5966 15.7731 21.7099 15.8639 21.8233 15.9548C22.1728 16.2456 22.2767 16.6454 22.0783 17.0089C21.88 17.3996 21.4927 17.5631 21.0298 17.445C20.6236 17.336 20.293 17.4268 20.0379 17.7358C19.7829 18.0447 19.7923 18.3719 20.0474 18.7626C20.293 19.1442 20.2457 19.5441 19.9435 19.8439C19.6317 20.1438 19.1972 20.1892 18.8099 19.9257C18.2148 19.5259 17.4874 19.9075 17.4118 20.5072C17.3929 20.6435 17.4307 20.7617 17.4591 20.8889C17.5724 21.325 17.4024 21.6976 17.0245 21.8884C16.6278 22.0883 16.1932 22.0156 15.9098 21.6431C15.4848 21.0979 14.6629 21.2251 14.3984 21.743C14.3323 21.8793 14.3134 22.0156 14.304 22.161C14.2851 22.5881 13.9922 22.897 13.5577 22.9697C13.142 23.0333 12.7453 22.8153 12.5942 22.4155C12.4336 22.0156 12.1407 21.8066 11.7534 21.8066C11.3567 21.8066 11.0827 21.9975 10.9127 22.4155C10.771 22.7698 10.5065 22.9697 10.1097 22.9788C9.74134 22.9879 9.45794 22.8334 9.27846 22.5154C9.21234 22.3973 9.184 22.261 9.184 22.1247C9.16511 21.7339 8.95729 21.4432 8.59832 21.325C8.23936 21.2069 7.87095 21.316 7.60645 21.6249C7.30416 21.9702 6.95465 22.0792 6.56734 21.9248C6.09502 21.743 5.91554 21.3705 6.04779 20.8344C6.16115 20.3891 5.94388 19.9802 5.51879 19.8257C5.21651 19.7167 4.94256 19.7803 4.66862 19.9439C4.13962 20.271 3.51616 20.062 3.31778 19.4895C3.22332 19.2078 3.30833 18.9625 3.46892 18.7172C3.83733 18.181 3.50671 17.4995 2.85491 17.4087C2.69432 17.3814 2.54318 17.4359 2.39203 17.4723C1.8158 17.5904 1.32459 17.2088 1.32459 16.6181ZM20.0096 11.9566C19.9812 7.49507 16.1932 3.9876 11.6117 4.03304C7.18136 4.06938 3.45948 7.68589 3.48782 11.993C3.51615 16.391 7.21915 19.9439 11.7534 19.9348C16.316 19.9075 20.019 16.3364 20.0096 11.9566Z" fill="white"/>
<path d="M7.54839 10.7665C7.97348 10.7756 8.35134 10.9119 8.65363 11.2027C9.09761 11.6207 9.54159 12.0386 9.96668 12.4748C10.0895 12.602 10.1556 12.5929 10.2784 12.4748C11.7709 11.03 13.2729 9.58523 14.7749 8.14044C15.6156 7.33172 16.9381 7.54981 17.401 8.55843C17.6655 9.13089 17.5427 9.80331 17.0704 10.2576C15.1244 12.1386 13.169 14.0105 11.2136 15.8823C10.609 16.4639 9.63605 16.4639 9.04093 15.9005C8.14352 15.0554 7.24611 14.2013 6.37704 13.338C5.89527 12.8655 5.8197 12.284 6.0842 11.6752C6.32981 11.1118 6.90604 10.7665 7.54839 10.7665Z" fill="white"/>
</svg>
