<svg width="71" height="71" viewBox="0 0 71 71" fill="none" xmlns="http://www.w3.org/2000/svg">
<g filter="url(#filter0_d_139_4146)">
<path d="M39.7201 2.28305C39.8604 1.17849 40.8711 0.391012 41.9659 0.593805C47.562 1.63037 52.8373 3.99946 57.3396 7.51281C62.3727 11.4403 66.2535 16.6524 68.5733 22.6002C70.8932 28.548 71.5662 35.0112 70.5214 41.3093C69.5869 46.9433 67.3088 52.2585 63.8924 56.8102C63.224 57.7007 61.947 57.8055 61.0958 57.0877C60.2447 56.3698 60.1424 55.1015 60.8043 54.2062C63.7567 50.2124 65.7278 45.568 66.5437 40.6495C67.4698 35.0668 66.8732 29.3376 64.8168 24.0654C62.7605 18.7932 59.3205 14.173 54.859 10.6916C50.9285 7.62443 46.3333 5.54108 41.4565 4.60099C40.3632 4.39023 39.5797 3.38761 39.7201 2.28305Z" fill="#F1ACFE"/>
</g>
<path d="M59.1767 59.1767C59.964 59.964 59.9676 61.2454 59.1369 61.9868C52.6501 67.7761 44.2412 71 35.5 71C26.7588 71 18.3499 67.7761 11.8631 61.9868C11.0324 61.2454 11.036 59.964 11.8233 59.1767C12.6106 58.3894 13.8831 58.395 14.7192 59.1303C20.4456 64.1665 27.8284 66.9679 35.5 66.9679C43.1716 66.9679 50.5544 64.1665 56.2808 59.1303C57.1169 58.395 58.3894 58.3894 59.1767 59.1767Z" fill="#B594F3"/>
<path d="M10.3336 57.5868C9.49671 58.3212 8.21792 58.2415 7.53215 57.3644C4.28084 53.2055 1.99254 48.3665 0.844367 43.1966C-0.303801 38.0267 -0.278943 32.6739 0.906277 27.5298C1.15626 26.4447 2.28111 25.8313 3.35019 26.1424C4.41926 26.4536 5.02694 27.5715 4.78485 28.6583C3.7844 33.1497 3.77941 37.8144 4.78057 42.3224C5.78173 46.8303 7.76082 51.0545 10.5684 54.7001C11.2478 55.5823 11.1704 56.8523 10.3336 57.5868Z" fill="#B4B3FE"/>
<path d="M4.56562 22.6844C3.53697 22.2583 3.04332 21.0759 3.52716 20.0731C6.30772 14.3102 10.6008 9.3936 15.9643 5.85867C21.3279 2.32374 27.539 0.317327 33.9314 0.0346573C35.0437 -0.0145301 35.9356 0.90536 35.9216 2.01871C35.9076 3.13205 34.9927 4.01649 33.8808 4.07378C28.2951 4.36153 22.8735 6.13411 18.1832 9.22535C13.4929 12.3166 9.72604 16.5998 7.25894 21.6194C6.76781 22.6186 5.59428 23.1106 4.56562 22.6844Z" fill="#889AFF"/>
<defs>
<filter id="filter0_d_139_4146" x="28.6101" y="-9.42249" width="53.4836" height="79.1862" filterUnits="userSpaceOnUse" color-interpolation-filters="sRGB">
<feFlood flood-opacity="0" result="BackgroundImageFix"/>
<feColorMatrix in="SourceAlpha" type="matrix" values="0 0 0 0 0 0 0 0 0 0 0 0 0 0 0 0 0 0 127 0" result="hardAlpha"/>
<feOffset dy="1.10938"/>
<feGaussianBlur stdDeviation="5.54688"/>
<feComposite in2="hardAlpha" operator="out"/>
<feColorMatrix type="matrix" values="0 0 0 0 0.945098 0 0 0 0 0.67451 0 0 0 0 0.996078 0 0 0 0.6 0"/>
<feBlend mode="normal" in2="BackgroundImageFix" result="effect1_dropShadow_139_4146"/>
<feBlend mode="normal" in="SourceGraphic" in2="effect1_dropShadow_139_4146" result="shape"/>
</filter>
</defs>
</svg>
