<svg xmlns="http://www.w3.org/2000/svg" width="113" height="113" viewBox="0 0 113 113" fill="none">
  <rect width="113" height="113" rx="20.3604" fill="url(#paint0_radial_693_11488)"/>
  <path d="M27.5625 74.8444V59.082H40.8053V62.5497H31.6876V65.2819H38.3966V68.6445H31.6876V71.3766H40.8053V74.8444H27.5625Z" fill="white"/>
  <path d="M40.8789 74.8446V63.2856C40.8789 62.571 40.9988 61.9335 41.2385 61.3731C41.4783 60.8126 41.7885 60.3503 42.1693 59.986C42.5642 59.6077 43.0226 59.3205 43.5444 59.1243C44.0803 58.9282 44.6303 58.8301 45.1944 58.8301C46.5483 58.8301 47.6061 59.1944 48.3677 59.9229C49.1433 60.6375 49.7709 61.5832 50.2504 62.7601L53.6986 71.1247C53.7409 71.2228 53.7832 71.3208 53.8255 71.4189C53.882 71.503 53.9666 71.545 54.0794 71.545C54.2204 71.545 54.3121 71.51 54.3544 71.4399C54.4108 71.3558 54.4391 71.2438 54.4391 71.1037V59.0823H58.6697V70.6623C58.6697 71.4049 58.5501 72.0564 58.3104 72.6168C58.0706 73.1773 57.7533 73.6467 57.3584 74.025C56.9776 74.3892 56.5192 74.6624 55.9833 74.8446C55.4615 75.0267 54.9185 75.1178 54.3544 75.1178C53.0005 75.1178 51.9428 74.7675 51.1812 74.067C50.4337 73.3664 49.8061 72.4067 49.2984 71.1877L45.8502 62.8232C45.8079 62.7251 45.7586 62.6341 45.7021 62.55C45.6598 62.4519 45.5823 62.4029 45.4695 62.4029C45.3284 62.4029 45.2297 62.4449 45.1733 62.529C45.131 62.599 45.1098 62.7041 45.1098 62.8442V74.8446H40.8789Z" fill="white"/>
  <path d="M63.7514 74.8444V62.5497H57.7227V59.082H74.0115V62.5497H67.9829V74.8444H63.7514Z" fill="white"/>
  <path d="M73.8289 74.8444H69.809V66.9842C69.809 66.5919 69.936 66.2767 70.1901 66.0385C70.4442 65.8003 70.7471 65.6812 71.0998 65.6812H78.9905C79.5683 65.6812 79.9637 65.5901 80.1752 65.408C80.4009 65.2258 80.5138 64.8055 80.5138 64.147V64.0419C80.5138 63.4254 80.4009 63.0261 80.1752 62.844C79.9637 62.6478 79.5683 62.5497 78.9905 62.5497H65.5781V59.082H78.8844C79.6602 59.082 80.4009 59.1451 81.1059 59.2712C81.8108 59.3973 82.4177 59.6144 82.9253 59.9227C83.447 60.2309 83.8633 60.6513 84.1736 61.1837C84.4838 61.7021 84.6386 62.3606 84.6386 63.1592V64.147C84.6386 64.9877 84.5048 65.6882 84.2365 66.2486C83.9688 66.7951 83.5883 67.2294 83.0943 67.5517C82.615 67.8739 82.0224 68.1051 81.3174 68.2452C80.6125 68.3713 79.8366 68.4344 78.9905 68.4344H78.7579L84.6176 74.8444H79.6676L73.8289 68.5184V74.8444Z" fill="white"/>
  <path d="M27.4883 81.4413V77.2256H28.5997V78.0125H29.9801C30.413 78.0125 30.7523 78.1512 30.9979 78.4285C31.2436 78.7058 31.3664 79.073 31.3664 79.5302V79.9236C31.3664 80.3808 31.2436 80.748 30.9979 81.0253C30.7523 81.3026 30.413 81.4413 29.9801 81.4413H27.4883ZM29.5999 78.8444H28.5997V80.6093H29.5999C29.8378 80.6093 30.0016 80.5569 30.0913 80.452C30.181 80.347 30.2258 80.184 30.2258 79.963V79.4627C30.2258 79.2416 30.181 79.0843 30.0913 78.9906C30.0016 78.8931 29.8378 78.8444 29.5999 78.8444Z" fill="white"/>
  <path d="M34.5752 79.6151V81.4419H32.1711C31.8201 81.4419 31.5511 81.3688 31.3639 81.2227C31.1767 81.0765 31.0831 80.8854 31.0831 80.6493C31.0831 80.3907 31.1748 80.1846 31.3581 80.031C31.5413 79.8736 31.7616 79.7106 32.019 79.542L33.0134 78.8844H30.0898V78.0693H32.7034C33.3741 78.0693 33.8538 78.2061 34.1423 78.4797C34.4309 78.7495 34.5752 79.1279 34.5752 79.6151ZM32.487 80.6268H33.5223V79.5083L32.4636 80.3008C32.3973 80.3495 32.3505 80.387 32.3232 80.4133C32.2959 80.4357 32.2822 80.4657 32.2822 80.5032C32.2822 80.5444 32.2978 80.5763 32.3291 80.5987C32.3603 80.6175 32.4129 80.6268 32.487 80.6268Z" fill="white"/>
  <path d="M34.5781 81.4409V78.0684H36.7541C37.265 78.0684 37.6354 78.192 37.8655 78.4393C38.0955 78.6866 38.2106 79.022 38.2106 79.4455V81.4409H37.0992V79.4174C37.0992 79.245 37.068 79.1232 37.0056 79.052C36.9471 78.9771 36.8321 78.9396 36.6605 78.9396H35.6895V81.4409H34.5781Z" fill="white"/>
  <path d="M38.2188 81.4413V77.2256H39.3302V79.2772H39.453C39.5622 79.2772 39.6441 79.2679 39.6987 79.2491C39.7572 79.2304 39.8117 79.191 39.8624 79.1311L40.7282 78.0687H42.0033L40.5527 79.7269L42.0501 81.4413H40.7282L39.8157 80.334C39.7533 80.259 39.6967 80.214 39.646 80.199C39.5992 80.184 39.5271 80.1766 39.4296 80.1766H39.3302V81.4413H38.2188Z" fill="white"/>
  <path d="M27.5625 56.3361C28.3368 47.5605 32.129 33.6176 43.6689 33.6157C43.829 33.6163 52.3406 33.6176 52.3406 33.6176V31.5586C52.3406 31.5586 43.7664 31.5586 43.6528 31.5586C31.4341 31.5579 27.5625 47.0443 27.5625 56.3361Z" fill="white"/>
  <path d="M27.5625 56.336C29.126 50.6726 33.4989 37.7357 43.6793 37.7357H52.3406V35.6767H44.1439C43.9741 35.6715 43.8122 35.667 43.6495 35.667C32.2084 35.667 28.853 49.6253 27.5625 56.336Z" fill="white"/>
  <path d="M27.5625 56.3356C29.6422 51.9626 35.947 41.8539 44.1439 41.8539H52.3406V39.7949H43.6793C34.0152 39.7949 28.5949 53.2383 27.5625 56.3356Z" fill="white"/>
  <path d="M27.5625 56.336C30.6746 52.2211 37.5995 45.9731 43.6793 45.9731H52.3406V43.9141H43.6793C36.08 43.9141 29.6422 52.9955 27.5625 56.336Z" fill="white"/>
  <path d="M27.5625 56.3365C29.9003 54.2865 36.8691 50.0923 43.5651 50.0923H52.3406V48.0332C52.3406 48.0332 47.3372 48.0926 43.5799 48.0926C37.1421 48.0919 30.1584 53.5122 27.5625 56.3365Z" fill="white"/>
  <path d="M27.5625 56.3359C30.9327 54.8021 34.8043 54.2859 43.0636 54.2104C50.6919 54.1407 52.3406 54.2104 52.3406 54.2104V52.1514H43.0636C37.1008 52.1508 30.6746 54.2859 27.5625 56.3359Z" fill="white"/>
  <defs>
    <radialGradient id="paint0_radial_693_11488" cx="0" cy="0" r="1" gradientUnits="userSpaceOnUse" gradientTransform="translate(56.5 56.5) rotate(90) scale(56.5)">
      <stop stop-color="#1C31F0"/>
      <stop offset="1" stop-color="#0B1999"/>
    </radialGradient>
  </defs>
</svg>
