<svg width="1440" height="850" viewBox="0 0 1440 850" fill="none" xmlns="http://www.w3.org/2000/svg">
<g opacity="0.18" clip-path="url(#clip0_1001_6543)">
<path d="M1141.42 -72.7817C1158.4 -83.8979 1181.24 -79.127 1192.36 -62.1411C1203.48 -45.1552 1198.71 -22.3136 1181.72 -11.1974C1164.73 -0.0812419 1141.89 -4.85218 1130.78 -21.8381C1119.66 -38.824 1124.43 -61.6656 1141.42 -72.7817Z" fill="black"/>
<path fill-rule="evenodd" clip-rule="evenodd" d="M114.709 232.817L107.609 232.837C106.109 232.842 105.409 232.844 104.909 232.545C104.408 232.247 104.106 231.748 104.105 231.148C104.103 230.648 104.401 229.947 105.197 228.644L122.707 197.494C123.503 196.191 123.801 195.49 124.301 195.289C124.8 194.987 125.4 194.986 125.901 195.284C126.401 195.483 126.803 196.182 127.507 197.48L131.125 203.769C131.929 205.167 132.331 205.866 132.534 206.665C132.736 207.464 132.739 208.364 132.541 209.165C132.343 209.966 131.945 210.667 131.149 212.069L121.897 228.496C121.101 229.898 120.703 230.699 120.105 231.201C119.507 231.803 118.708 232.205 117.909 232.508C117.209 232.81 116.409 232.812 114.709 232.817Z" fill="#575A5B"/>
<path fill-rule="evenodd" clip-rule="evenodd" d="M132.711 232.765L142.911 232.735C144.411 232.731 145.211 232.728 145.61 232.427C146.109 232.126 146.408 231.525 146.406 231.025C146.405 230.525 146.103 229.926 145.399 228.628C145.399 228.628 145.399 228.528 145.299 228.528L140.173 219.743L140.073 219.643C139.37 218.445 138.968 217.846 138.467 217.548C137.966 217.249 137.366 217.251 136.867 217.552C136.368 217.754 135.97 218.455 135.273 219.757L130.199 228.572C129.503 229.874 129.104 230.475 129.106 231.075C129.108 231.675 129.409 232.174 129.91 232.473C130.411 232.771 131.211 232.769 132.711 232.765Z" fill="#575A5B"/>
<path fill-rule="evenodd" clip-rule="evenodd" d="M257 715.072L251.363 736.689L246.768 738.502L245.086 744.707L249.781 743.093L246.718 755.802L280.018 755.806L281.994 747.6L261.795 747.659L264.366 737.851L269.859 735.535L271.442 729.531L266.047 731.346L270.2 715.234L257 715.072Z" fill="#B8B9BB"/>
<path fill-rule="evenodd" clip-rule="evenodd" d="M257 715.072L251.363 736.689L246.768 738.502L245.086 744.707L249.781 743.093L246.718 755.802L280.018 755.806L281.994 747.6L261.795 747.659L264.366 737.851L269.859 735.535L271.442 729.531L266.047 731.346L270.2 715.234L257 715.072Z" fill="#575A5B"/>
<path d="M343.258 498.323C347.553 496.71 352.453 496.696 356.857 497.983C362.562 499.767 367.375 504.053 369.99 509.445C370.695 510.943 371.4 512.641 371.404 514.341C368.199 512.451 364.695 511.261 361.092 510.171C355.487 508.187 349.482 506.705 344.174 504.02C342.972 503.324 341.37 502.528 340.965 500.929C340.861 499.53 342.259 498.826 343.258 498.323Z" fill="#575A5B"/>
<path d="M347.678 539.81C341.676 539.028 336.166 535.544 332.751 530.553C328.935 525.064 328.014 517.667 330.296 511.36C331.486 507.957 333.577 504.851 336.37 502.443C337.087 508.241 339.603 513.833 343.715 518.122C348.63 523.207 355.639 526.287 362.739 526.166C365.539 526.258 368.337 525.55 371.035 525.042C368.364 534.85 357.583 541.381 347.678 539.81Z" fill="#575A5B"/>
<path d="M371.523 520.941C369.921 520.246 368.617 519.149 367.314 518.053C365.109 516.259 362.903 514.166 361.695 511.569C364.598 512.461 367.901 513.651 370.806 515.343L371.607 515.741C371.713 517.54 371.818 519.24 371.523 520.941Z" fill="#575A5B"/>
<path d="M842.258 -1.67717C846.553 -3.28964 851.453 -3.30386 855.857 -2.01663C861.562 -0.233181 866.375 4.05287 868.99 9.4453C869.695 10.9433 870.4 12.6412 870.404 14.3412C867.199 12.4505 863.695 11.2607 860.092 10.1711C854.487 8.18738 848.482 6.70481 843.174 4.0202C841.972 3.32368 840.37 2.52832 839.965 0.929491C839.861 -0.470213 841.259 -1.17427 842.258 -1.67717Z" fill="#575A5B"/>
<path d="M846.678 39.8101C840.676 39.0275 835.166 35.5435 831.751 30.5534C827.935 25.0644 827.014 17.6671 829.296 11.3604C830.486 7.95698 832.577 4.85089 835.37 2.44277C836.087 8.24071 838.603 13.8334 842.715 18.1215C847.63 23.2073 854.639 26.287 861.739 26.1664C864.539 26.2582 867.337 25.5501 870.035 25.0423C867.364 34.8501 856.583 41.3814 846.678 39.8101Z" fill="#575A5B"/>
<path d="M870.523 20.9409C868.921 20.2455 867.617 19.1493 866.314 18.0531C864.109 16.2594 861.903 14.1658 860.695 11.5693C863.598 12.4609 866.901 13.6513 869.806 15.3429L870.607 15.7406C870.713 17.5403 870.818 19.24 870.523 20.9409Z" fill="#575A5B"/>
<path d="M323.258 300.323C327.553 298.71 332.453 298.696 336.857 299.983C342.562 301.767 347.375 306.053 349.99 311.445C350.695 312.943 351.4 314.641 351.404 316.341C348.199 314.451 344.695 313.261 341.092 312.171C335.487 310.187 329.482 308.705 324.174 306.02C322.972 305.324 321.37 304.528 320.965 302.929C320.861 301.53 322.259 300.826 323.258 300.323Z" fill="#575A5B"/>
<path d="M327.678 341.81C321.676 341.028 316.166 337.544 312.751 332.553C308.935 327.064 308.014 319.667 310.296 313.36C311.486 309.957 313.577 306.851 316.37 304.443C317.087 310.241 319.603 315.833 323.715 320.122C328.63 325.207 335.639 328.287 342.739 328.166C345.539 328.258 348.337 327.55 351.035 327.042C348.364 336.85 337.583 343.381 327.678 341.81Z" fill="#575A5B"/>
<path d="M351.523 322.941C349.921 322.246 348.617 321.149 347.314 320.053C345.109 318.259 342.903 316.166 341.695 313.569C344.598 314.461 347.901 315.651 350.806 317.343L351.607 317.741C351.713 319.54 351.818 321.24 351.523 322.941Z" fill="#575A5B"/>
<path d="M335.258 91.3228C339.553 89.7104 344.453 89.6961 348.857 90.9834C354.562 92.7668 359.375 97.0529 361.99 102.445C362.695 103.943 363.4 105.641 363.404 107.341C360.199 105.451 356.695 104.261 353.092 103.171C347.487 101.187 341.482 99.7048 336.174 97.0202C334.972 96.3237 333.37 95.5283 332.965 93.9295C332.861 92.5298 334.259 91.8257 335.258 91.3228Z" fill="#575A5B"/>
<path d="M339.678 132.81C333.676 132.028 328.166 128.544 324.751 123.553C320.935 118.064 320.014 110.667 322.296 104.36C323.486 100.957 325.577 97.8509 328.37 95.4428C329.087 101.241 331.603 106.833 335.715 111.122C340.63 116.207 347.639 119.287 354.739 119.166C357.539 119.258 360.337 118.55 363.035 118.042C360.364 127.85 349.583 134.381 339.678 132.81Z" fill="#575A5B"/>
<path d="M363.523 113.941C361.921 113.246 360.617 112.149 359.314 111.053C357.109 109.259 354.903 107.166 353.695 104.569C356.598 105.461 359.901 106.651 362.806 108.343L363.607 108.741C363.713 110.54 363.818 112.24 363.523 113.941Z" fill="#575A5B"/>
<path d="M1374.26 347.323C1378.55 345.71 1383.45 345.696 1387.86 346.983C1393.56 348.767 1398.37 353.053 1400.99 358.445C1401.69 359.943 1402.4 361.641 1402.4 363.341C1399.2 361.451 1395.7 360.261 1392.09 359.171C1386.49 357.187 1380.48 355.705 1375.17 353.02C1373.97 352.324 1372.37 351.528 1371.97 349.929C1371.86 348.53 1373.26 347.826 1374.26 347.323Z" fill="#575A5B"/>
<path d="M1378.68 388.81C1372.68 388.028 1367.17 384.544 1363.75 379.553C1359.94 374.064 1359.01 366.667 1361.3 360.36C1362.49 356.957 1364.58 353.851 1367.37 351.443C1368.09 357.241 1370.6 362.833 1374.72 367.122C1379.63 372.207 1386.64 375.287 1393.74 375.166C1396.54 375.258 1399.34 374.55 1402.04 374.042C1399.36 383.85 1388.58 390.381 1378.68 388.81Z" fill="#575A5B"/>
<path d="M1402.52 369.941C1400.92 369.246 1399.62 368.149 1398.31 367.053C1396.11 365.259 1393.9 363.166 1392.7 360.569C1395.6 361.461 1398.9 362.651 1401.81 364.343L1402.61 364.741C1402.71 366.54 1402.82 368.24 1402.52 369.941Z" fill="#575A5B"/>
<path d="M812.1 736.062L800.7 736.095L800.751 753.795L796.051 753.808L796.064 758.108L800.764 758.095L800.815 775.794L814.115 775.756C814.115 775.756 832.82 777.302 832.758 756.102C832.798 735.401 814.8 736.054 812.1 736.062ZM813.794 768.457L808.294 768.473L808.264 758.073L816.564 758.049L816.551 753.749L808.251 753.773L808.221 743.373L813.521 743.357C815.521 743.352 825.423 744.123 825.459 756.323C825.394 768.623 815.194 768.453 813.794 768.457Z" fill="#575A5B"/>
<path d="M37.0999 375.062L25.7 375.095L25.7513 392.795L21.0514 392.808L21.0638 397.108L25.7638 397.095L25.8152 414.794L39.1151 414.756C39.1151 414.756 57.8197 416.302 57.7582 395.102C57.7981 374.401 39.7999 375.054 37.0999 375.062ZM38.7939 407.457L33.294 407.473L33.2638 397.073L41.5638 397.049L41.5513 392.749L33.2513 392.773L33.2211 382.373L38.5211 382.357C40.5211 382.352 50.4234 383.123 50.4588 395.323C50.3945 407.623 40.1939 407.453 38.7939 407.457Z" fill="#575A5B"/>
<path d="M884.613 323.48C890.467 323.463 895.204 320.674 895.194 317.25C895.185 313.825 890.431 311.063 884.577 311.08C878.722 311.097 873.985 313.887 873.995 317.311C874.004 320.735 878.758 323.497 884.613 323.48Z" fill="#575A5B"/>
<path d="M884.745 369.88C890.6 369.863 895.337 367.074 895.327 363.649C895.317 360.225 890.564 357.463 884.709 357.48C878.855 357.497 874.117 360.287 874.127 363.711C874.137 367.135 878.891 369.897 884.745 369.88Z" fill="#575A5B"/>
<path d="M859.218 325.854C862.103 320.746 866.895 318.032 869.8 319.723C872.805 321.415 872.821 326.915 869.836 332.023C866.95 337.132 862.158 339.846 859.253 338.154C856.348 336.462 856.332 330.962 859.218 325.854Z" fill="#575A5B"/>
<path d="M899.483 348.937C902.368 343.829 907.161 341.115 910.065 342.807C912.97 344.498 913.086 349.998 910.101 355.107C907.216 360.215 902.424 362.929 899.519 361.237C896.614 359.546 896.598 354.046 899.483 348.937Z" fill="#575A5B"/>
<path d="M859.266 342.954C862.261 341.245 866.969 343.932 869.884 349.023C872.799 354.115 872.815 359.615 869.92 361.323C866.925 363.032 862.217 360.345 859.302 355.254C856.387 350.162 856.372 344.762 859.266 342.954Z" fill="#575A5B"/>
<path d="M899.501 319.637C902.397 317.929 907.204 320.615 910.119 325.706C913.034 330.798 913.05 336.298 910.155 338.006C907.26 339.715 902.452 337.029 899.537 331.937C896.522 326.846 896.506 321.346 899.501 319.637Z" fill="#575A5B"/>
<path d="M578.613 325.48C584.467 325.463 589.204 322.674 589.194 319.25C589.185 315.825 584.431 313.063 578.577 313.08C572.722 313.097 567.985 315.887 567.995 319.311C568.004 322.735 572.758 325.497 578.613 325.48Z" fill="#575A5B"/>
<path d="M578.745 371.88C584.6 371.863 589.337 369.074 589.327 365.649C589.317 362.225 584.564 359.463 578.709 359.48C572.855 359.497 568.117 362.287 568.127 365.711C568.137 369.135 572.891 371.897 578.745 371.88Z" fill="#575A5B"/>
<path d="M553.218 327.854C556.103 322.746 560.895 320.032 563.8 321.723C566.805 323.415 566.821 328.915 563.836 334.023C560.95 339.132 556.158 341.846 553.253 340.154C550.348 338.462 550.332 332.962 553.218 327.854Z" fill="#575A5B"/>
<path d="M593.483 350.937C596.368 345.829 601.161 343.115 604.065 344.807C606.97 346.498 607.086 351.998 604.101 357.107C601.216 362.215 596.424 364.929 593.519 363.237C590.614 361.546 590.598 356.046 593.483 350.937Z" fill="#575A5B"/>
<path d="M553.266 344.954C556.261 343.245 560.969 345.932 563.884 351.023C566.799 356.115 566.815 361.615 563.92 363.323C560.925 365.032 556.217 362.345 553.302 357.254C550.387 352.162 550.372 346.762 553.266 344.954Z" fill="#575A5B"/>
<path d="M593.501 321.637C596.397 319.929 601.204 322.615 604.119 327.706C607.034 332.798 607.05 338.298 604.155 340.006C601.26 341.715 596.452 339.029 593.537 333.937C590.522 328.846 590.506 323.346 593.501 321.637Z" fill="#575A5B"/>
<path d="M1098.61 836.48C1104.47 836.463 1109.2 833.674 1109.19 830.25C1109.18 826.825 1104.43 824.063 1098.58 824.08C1092.72 824.097 1087.98 826.887 1087.99 830.311C1088 833.735 1092.76 836.497 1098.61 836.48Z" fill="#575A5B"/>
<path d="M1073.22 838.854C1076.1 833.746 1080.89 831.032 1083.8 832.723C1086.8 834.415 1086.82 839.915 1083.84 845.023C1080.95 850.132 1076.16 852.846 1073.25 851.154C1070.35 849.462 1070.33 843.962 1073.22 838.854Z" fill="#575A5B"/>
<path d="M1113.5 832.637C1116.4 830.929 1121.2 833.615 1124.12 838.706C1127.03 843.798 1127.05 849.298 1124.15 851.006C1121.26 852.715 1116.45 850.029 1113.54 844.937C1110.52 839.846 1110.51 834.346 1113.5 832.637Z" fill="#575A5B"/>
<path opacity="0.3" d="M809.42 180.751C810.516 175.385 806.552 172.259 801.023 170.021L803.239 162.791L798.838 161.443L796.681 168.482C795.524 168.128 794.334 167.788 793.152 167.452L795.324 160.366L790.926 159.018L788.709 166.246C787.751 165.973 786.809 165.704 785.897 165.425L785.903 165.402L779.834 163.54L778.395 168.241C778.395 168.241 781.664 169.175 781.591 169.218C783.374 169.765 783.637 170.978 783.532 171.922L781.009 180.159C781.131 180.197 781.29 180.252 781.464 180.332C781.318 180.288 781.161 180.239 780.999 180.19L777.462 191.729C777.212 192.266 776.608 193.059 775.362 192.68C775.403 192.747 772.164 191.699 772.164 191.699L769.679 196.686L775.406 198.441C776.471 198.769 777.514 199.108 778.542 199.43L776.303 206.743L780.699 208.091L782.916 200.856C784.115 201.251 785.28 201.618 786.421 201.967L784.213 209.168L788.614 210.516L790.852 203.217C798.38 205.059 804.13 204.782 806.902 198.031C809.136 192.596 807.269 189.293 803.378 186.998C806.327 186.48 808.624 184.68 809.42 180.751ZM798.472 194.5C796.8 199.966 787.633 196.477 784.65 195.566L787.62 185.878C790.603 186.793 800.219 188.801 798.472 194.5ZM800.613 180.204C799.089 185.175 791.463 182.204 788.978 181.443L791.671 172.656C794.156 173.417 802.202 175.018 800.613 180.204Z" fill="#6A6969"/>
<path d="M103.536 592.025C103.835 591.724 104.234 591.523 104.734 591.522L145.934 591.402C146.734 591.4 147.037 592.299 146.538 592.801L138.462 600.924C138.163 601.225 137.763 601.426 137.263 601.427L95.9633 601.547C95.1633 601.55 94.8607 600.651 95.3592 600.149L103.536 592.025Z" fill="#575A5B"/>
<path d="M103.446 561.625C103.745 561.325 104.244 561.123 104.644 561.122L145.844 561.002C146.644 561 146.947 561.899 146.448 562.401L138.372 570.524C138.073 570.825 137.673 571.026 137.173 571.028L95.8735 571.147C95.0735 571.15 94.7709 570.251 95.2694 569.749L103.446 561.625Z" fill="#575A5B"/>
<path d="M138.389 576.624C138.088 576.325 137.687 576.126 137.187 576.128L95.8874 576.247C95.0874 576.25 94.79 577.151 95.2915 577.649L103.415 585.726C103.716 586.025 104.116 586.224 104.616 586.222L145.916 586.102C146.716 586.1 147.014 585.199 146.512 584.701L138.389 576.624Z" fill="#575A5B"/>
<path d="M1331.54 152.025C1331.83 151.725 1332.23 151.523 1332.73 151.522L1373.93 151.402C1374.73 151.4 1375.04 152.299 1374.54 152.801L1366.46 160.924C1366.16 161.225 1365.76 161.426 1365.26 161.428L1323.96 161.547C1323.16 161.55 1322.86 160.651 1323.36 160.149L1331.54 152.025Z" fill="#575A5B"/>
<path d="M1331.45 121.626C1331.74 121.325 1332.24 121.123 1332.64 121.122L1373.84 121.002C1374.64 121 1374.95 121.899 1374.45 122.401L1366.37 130.524C1366.07 130.825 1365.67 131.026 1365.17 131.028L1323.87 131.148C1323.07 131.15 1322.77 130.251 1323.27 129.749L1331.45 121.626Z" fill="#575A5B"/>
<path d="M1366.39 136.624C1366.09 136.325 1365.69 136.126 1365.19 136.128L1323.89 136.248C1323.09 136.25 1322.79 137.151 1323.29 137.649L1331.41 145.726C1331.72 146.025 1332.12 146.224 1332.62 146.222L1373.92 146.102C1374.72 146.1 1375.01 145.199 1374.51 144.701L1366.39 136.624Z" fill="#575A5B"/>
<path d="M588.001 152.022L595.401 152L579.946 167.445C574.362 173.061 565.262 173.088 559.646 167.504L544.102 152.149L551.602 152.127L563.435 163.693C567.045 167.183 572.745 167.166 576.335 163.656L588.001 152.022Z" fill="#575A5B"/>
<path d="M551.623 194.827L544.123 194.849L559.679 179.404C565.262 173.788 574.362 173.761 579.978 179.345L595.623 194.7L588.223 194.721L576.289 182.956C572.679 179.466 566.979 179.483 563.389 182.993L551.623 194.827Z" fill="#575A5B"/>
<path d="M534.001 12.0218L541.401 12.0003L525.946 27.4452C520.362 33.0614 511.262 33.0878 505.646 27.5041L490.102 12.1492L497.602 12.1274L509.435 23.6931C513.045 27.1827 518.745 27.1661 522.335 23.6557L534.001 12.0218Z" fill="#575A5B"/>
<path d="M497.623 54.8274L490.123 54.8492L505.679 39.404C511.262 33.7878 520.362 33.7613 525.978 39.3451L541.623 54.6997L534.223 54.7212L522.289 42.9558C518.679 39.4663 512.979 39.4828 509.389 42.9932L497.623 54.8274Z" fill="#575A5B"/>
<path d="M1206 22.0218L1213.4 22.0003L1197.95 37.4452C1192.36 43.0614 1183.26 43.0878 1177.65 37.5041L1162.1 22.1492L1169.6 22.1274L1181.44 33.6931C1185.05 37.1827 1190.75 37.1661 1194.34 33.6557L1206 22.0218Z" fill="#575A5B"/>
<path d="M1169.62 64.8274L1162.12 64.8492L1177.68 49.404C1183.26 43.7878 1192.36 43.7613 1197.98 49.3451L1213.62 64.6997L1206.22 64.7212L1194.29 52.9558C1190.68 49.4663 1184.98 49.4828 1181.39 52.9932L1169.62 64.8274Z" fill="#575A5B"/>
<path d="M95.0013 47.0218L102.401 47.0003L86.9461 62.4452C81.3624 68.0614 72.2624 68.0878 66.6462 62.5041L51.1016 47.1492L58.6015 47.1274L70.4351 58.6931C74.0453 62.1827 79.7453 62.1661 83.3351 58.6557L95.0013 47.0218Z" fill="#575A5B"/>
<path d="M58.6233 89.8274L51.1233 89.8492L66.6786 74.404C72.2623 68.7878 81.3622 68.7613 86.9785 74.3451L102.623 89.6997L95.2231 89.7212L83.2889 77.9558C79.6788 74.4663 73.9788 74.4828 70.389 77.9932L58.6233 89.8274Z" fill="#575A5B"/>
<path d="M1286.99 579.868C1286.97 574.468 1283.77 572.678 1277.27 571.896C1272.66 571.31 1271.76 570.112 1271.75 567.912C1271.75 565.812 1273.24 564.408 1276.34 564.399C1279.14 564.391 1280.65 565.287 1281.45 567.584C1281.66 568.084 1282.06 568.382 1282.56 568.381L1285.06 568.374C1285.66 568.372 1286.15 567.871 1286.15 567.271L1286.15 567.171C1285.54 563.772 1282.74 561.18 1279.23 560.891L1279.22 557.191C1279.22 556.591 1278.72 556.092 1278.02 555.994L1275.52 556.001C1274.92 556.003 1274.42 556.505 1274.32 557.205L1274.33 560.705C1269.74 561.318 1266.84 564.427 1266.86 568.227C1266.87 573.327 1269.98 575.318 1276.38 575.999C1280.68 576.786 1282.08 577.682 1282.09 580.082C1282.1 582.582 1280 584.188 1277 584.197C1273 584.209 1271.6 582.513 1271.19 580.214C1270.99 579.615 1270.59 579.316 1270.09 579.317L1267.49 579.325C1266.89 579.327 1266.39 579.828 1266.39 580.428L1266.39 580.628C1267 584.426 1269.51 587.219 1274.51 588.004L1274.52 591.704C1274.53 592.304 1275.03 592.803 1275.73 592.901L1278.03 592.894C1278.63 592.893 1279.13 592.391 1279.22 591.691L1279.21 587.991C1283.91 587.277 1287 584.068 1286.99 579.868Z" fill="#575A5B"/>
<path d="M1269.04 596.12C1257.03 591.855 1250.89 578.573 1255.25 566.66C1257.53 560.254 1262.62 555.239 1268.91 552.921C1269.51 552.619 1269.81 552.118 1269.81 551.418L1269.8 549.318C1269.8 548.718 1269.5 548.219 1268.9 548.121C1268.7 548.121 1268.4 548.122 1268.3 548.322C1253.71 552.965 1245.76 568.488 1250.4 583.074C1253.22 591.666 1259.84 598.247 1268.45 601.022C1269.05 601.32 1269.65 601.019 1269.85 600.418C1270.05 600.217 1270.05 600.117 1270.05 599.817L1270.04 597.717C1270.04 597.017 1269.54 596.419 1269.04 596.12ZM1285.2 548.173C1284.6 547.875 1284 548.177 1283.8 548.777C1283.6 548.978 1283.6 549.078 1283.6 549.378L1283.61 551.478C1283.61 552.078 1284.11 552.676 1284.51 552.975C1296.53 557.24 1302.66 570.523 1298.3 582.435C1296.02 588.842 1290.93 593.857 1284.64 596.175C1284.04 596.477 1283.74 596.978 1283.74 597.678L1283.75 599.778C1283.75 600.378 1284.05 600.877 1284.65 600.975C1284.85 600.975 1285.15 600.974 1285.25 600.773C1299.84 596.131 1307.79 580.608 1303.15 566.021C1300.43 557.429 1293.61 550.949 1285.2 548.173Z" fill="#575A5B"/>
<path d="M1025.99 596.868C1025.97 591.468 1022.77 589.678 1016.27 588.896C1011.66 588.31 1010.76 587.112 1010.75 584.912C1010.75 582.812 1012.24 581.408 1015.34 581.399C1018.14 581.391 1019.65 582.287 1020.45 584.584C1020.66 585.084 1021.06 585.382 1021.56 585.381L1024.06 585.374C1024.66 585.372 1025.15 584.871 1025.15 584.271L1025.15 584.171C1024.54 580.772 1021.74 578.18 1018.23 577.891L1018.22 574.191C1018.22 573.591 1017.72 573.092 1017.02 572.994L1014.52 573.001C1013.92 573.003 1013.42 573.505 1013.32 574.205L1013.33 577.705C1008.74 578.318 1005.84 581.427 1005.86 585.227C1005.87 590.327 1008.98 592.318 1015.38 592.999C1019.68 593.786 1021.08 594.682 1021.09 597.082C1021.1 599.582 1019 601.188 1016 601.197C1012 601.209 1010.6 599.513 1010.19 597.214C1009.99 596.615 1009.59 596.316 1009.09 596.317L1006.49 596.325C1005.89 596.327 1005.39 596.828 1005.39 597.428L1005.39 597.628C1006 601.426 1008.51 604.219 1013.51 605.004L1013.52 608.704C1013.53 609.304 1014.03 609.803 1014.73 609.901L1017.03 609.894C1017.63 609.893 1018.13 609.391 1018.22 608.691L1018.21 604.991C1022.91 604.277 1026 601.068 1025.99 596.868Z" fill="#575A5B"/>
<path d="M1008.04 613.12C996.025 608.855 989.887 595.573 994.252 583.66C996.534 577.254 1001.62 572.239 1007.91 569.921C1008.51 569.619 1008.81 569.118 1008.81 568.418L1008.8 566.318C1008.8 565.718 1008.5 565.219 1007.9 565.121C1007.7 565.121 1007.4 565.122 1007.3 565.322C992.713 569.965 984.758 585.488 989.4 600.074C992.225 608.666 998.844 615.247 1007.45 618.022C1008.05 618.32 1008.65 618.019 1008.85 617.418C1009.05 617.217 1009.05 617.117 1009.05 616.817L1009.04 614.717C1009.04 614.017 1008.54 613.419 1008.04 613.12ZM1024.2 565.173C1023.6 564.875 1023 565.177 1022.8 565.777C1022.6 565.978 1022.6 566.078 1022.6 566.378L1022.61 568.478C1022.61 569.078 1023.11 569.676 1023.51 569.975C1035.53 574.24 1041.66 587.523 1037.3 599.435C1035.02 605.842 1029.93 610.857 1023.64 613.175C1023.04 613.477 1022.74 613.978 1022.74 614.678L1022.75 616.778C1022.75 617.378 1023.05 617.877 1023.65 617.975C1023.85 617.975 1024.15 617.974 1024.25 617.773C1038.84 613.131 1046.79 597.608 1042.15 583.021C1039.43 574.429 1032.61 567.949 1024.2 565.173Z" fill="#575A5B"/>
<path d="M1169.1 390.699L1174.58 385.083L1175.78 383.879L1178.57 381.071L1188.1 390.644L1193.58 385.028L1178.54 370.071L1163.48 385.115L1169.1 390.699Z" fill="#575A5B"/>
<path d="M1178.59 389.059L1173.09 394.59L1178.62 400.09L1184.12 394.558L1178.59 389.059Z" fill="#575A5B"/>
<path d="M1188.12 398.543L1178.65 408.071L1175.34 404.681L1174.64 404.083L1169.12 398.599L1163.54 404.115L1178.68 419.071L1193.64 404.027L1188.12 398.543Z" fill="#575A5B"/>
<path d="M1159.57 389.105L1154.07 394.636L1159.6 400.135L1165.1 394.604L1159.57 389.105Z" fill="#575A5B"/>
<path d="M1197.57 388.999L1192.07 394.53L1197.61 400.029L1203.1 394.498L1197.57 388.999Z" fill="#575A5B"/>
<path d="M766.949 513.256C768.247 512.552 769.751 514.148 769.055 515.35C768.658 516.351 767.259 516.655 766.456 515.857C765.654 515.06 765.95 513.659 766.949 513.256ZM753.553 514.695C754.352 514.392 755.254 515.09 755.156 515.89C755.259 516.79 754.161 517.493 753.359 516.995C752.359 516.698 752.454 514.998 753.553 514.695ZM781.06 517.015C779.859 516.918 779.654 515.019 780.853 514.616C781.752 514.213 782.554 515.011 782.656 515.81C782.458 516.511 781.86 517.213 781.06 517.015ZM756.569 520.386C757.867 519.582 759.67 520.777 759.475 522.278C759.379 523.778 757.482 524.683 756.279 523.587C755.277 522.89 755.371 521.09 756.569 520.386ZM775.972 521.23C776.567 519.728 778.867 519.721 779.472 521.12C780.075 522.218 779.379 523.62 778.18 524.023C776.681 524.228 775.276 522.632 775.972 521.23ZM765.38 523.96C765.376 522.661 766.473 521.757 767.673 521.654C768.474 521.852 769.374 522.149 769.677 522.948C770.28 524.046 769.784 525.548 768.586 526.051C768.087 526.353 767.486 526.254 766.886 526.156C765.985 525.759 765.283 524.961 765.38 523.96ZM745.385 525.819C746.583 525.115 748.087 526.411 747.69 527.612C747.493 528.712 745.995 529.117 745.193 528.419C744.191 527.822 744.386 526.321 745.385 525.819ZM788.285 525.694C789.283 524.891 790.885 525.786 790.789 527.087C790.892 528.186 789.495 529.091 788.493 528.493C787.392 527.997 787.287 526.297 788.285 525.694ZM770.992 528.044C772.59 527.44 774.592 528.134 775.496 529.631C776.701 531.428 776.109 534.129 774.212 535.135C772.216 536.341 769.413 535.349 768.606 533.151C767.8 531.053 768.993 528.65 770.992 528.044ZM761.492 528.272C763.29 527.467 765.692 528.16 766.597 529.957C767.602 531.754 766.81 534.256 765.012 535.162C763.215 536.167 760.613 535.474 759.707 533.477C758.702 531.58 759.595 529.077 761.492 528.272ZM751.902 531.5C751.998 530.299 753.096 529.596 754.196 529.493C755.396 529.589 756.299 530.587 756.502 531.786C756.406 532.987 755.509 534.189 754.209 534.093C752.91 534.297 751.706 532.9 751.902 531.5ZM780.096 529.718C781.494 528.914 783.498 530.108 783.402 531.708C783.507 533.408 781.311 534.714 779.908 533.618C778.505 532.822 778.599 530.422 780.096 529.718ZM757.614 535.883C759.313 535.378 761.215 536.173 762.02 537.77C762.924 539.268 762.531 541.469 761.134 542.573C759.339 544.278 756.037 543.588 755.13 541.29C754.024 539.194 755.316 536.39 757.614 535.883ZM775.714 535.831C777.313 535.326 779.215 536.02 780.119 537.418C781.324 539.114 780.731 541.616 779.034 542.721C777.238 544.026 774.436 543.334 773.43 541.337C772.224 539.341 773.416 536.437 775.714 535.831ZM746.92 537.814C748.318 537.31 749.923 538.805 749.427 540.307C749.031 541.608 747.232 542.113 746.329 541.116C745.127 540.219 745.521 538.218 746.92 537.814ZM785.926 539.801C785.922 538.601 786.719 537.499 788.019 537.495C789.02 537.692 789.922 538.489 789.925 539.489C790.029 540.889 788.332 541.894 787.13 541.197C786.529 540.899 786.227 540.3 785.926 539.801ZM739.822 538.535C740.721 538.132 741.723 538.929 741.526 539.83C741.529 540.93 739.83 541.335 739.327 540.436C738.826 539.838 739.123 538.837 739.822 538.535ZM794.422 538.376C795.021 537.975 796.021 538.272 796.223 538.971C796.626 539.77 795.929 540.772 795.028 540.675C793.829 540.778 793.423 538.879 794.422 538.376ZM762.337 543.669C764.635 543.063 767.041 544.956 767.048 547.356C767.155 549.755 764.761 551.862 762.459 551.269C760.658 550.974 759.253 549.278 759.248 547.378C759.343 545.678 760.638 544.074 762.337 543.669ZM771.337 543.643C773.635 543.037 776.141 544.929 776.148 547.329C776.254 549.629 773.96 551.736 771.659 551.242C769.458 550.949 767.951 548.653 768.545 546.551C768.841 545.151 770.038 544.047 771.337 543.643ZM753.941 545.194C755.54 544.889 757.046 546.685 756.45 548.187C755.955 549.788 753.656 550.295 752.552 548.898C751.349 547.701 752.242 545.299 753.941 545.194ZM780.441 545.117C781.839 544.513 783.643 545.708 783.548 547.308C783.652 549.008 781.456 550.214 780.053 549.218C778.45 548.323 778.743 545.722 780.441 545.117ZM787.863 552.595C787.26 551.597 788.356 550.194 789.457 550.391C790.057 550.389 790.458 550.788 790.759 551.187C790.861 551.787 790.963 552.586 790.464 552.988C789.867 553.89 788.266 553.594 787.863 552.595ZM745.457 550.718C746.555 550.015 748.058 551.111 747.862 552.311C747.765 553.412 746.367 554.116 745.365 553.419C744.364 552.922 744.359 551.222 745.457 550.718ZM766.864 553.056C768.262 552.452 770.066 553.647 769.971 555.247C770.075 556.947 767.879 558.153 766.476 557.157C764.873 556.162 765.066 553.562 766.864 553.056ZM756.971 555.385C758.169 554.782 759.772 555.877 759.676 557.177C759.679 558.277 758.682 559.28 757.582 559.083C756.682 559.086 756.079 558.288 755.777 557.489C755.774 556.589 756.072 555.688 756.971 555.385ZM776.971 555.327C778.168 554.524 779.972 555.618 779.876 557.119C779.88 558.619 777.883 559.624 776.78 558.628C775.678 557.831 775.773 555.93 776.971 555.327ZM780.496 563.917C779.893 563.119 780.591 562.117 781.49 561.914C782.19 562.012 782.992 562.61 782.794 563.41C782.697 564.51 781.099 564.915 780.496 563.917ZM752.794 563.297C752.992 562.597 753.59 561.995 754.291 562.193C755.391 562.29 755.796 563.988 754.797 564.491C753.899 565.094 752.896 564.197 752.794 563.297ZM766.196 563.958C766.393 562.958 767.691 562.454 768.493 563.052C769.094 563.25 769.196 563.95 769.397 564.449C769.298 564.749 769.299 564.949 769.2 565.25C768.901 565.65 768.402 566.052 767.802 566.054C766.702 566.157 765.799 564.959 766.196 563.958Z" fill="#575A5B"/>
<path d="M749.949 151.256C751.247 150.552 752.751 152.148 752.055 153.35C751.658 154.351 750.259 154.655 749.456 153.857C748.654 153.06 748.95 151.659 749.949 151.256ZM736.553 152.695C737.352 152.392 738.254 153.09 738.156 153.89C738.259 154.79 737.161 155.493 736.359 154.995C735.359 154.698 735.454 152.998 736.553 152.695ZM764.06 155.015C762.859 154.918 762.654 153.019 763.853 152.616C764.752 152.213 765.554 153.011 765.656 153.81C765.458 154.511 764.86 155.213 764.06 155.015ZM739.569 158.386C740.867 157.582 742.67 158.777 742.475 160.278C742.379 161.778 740.482 162.683 739.279 161.587C738.277 160.89 738.371 159.09 739.569 158.386ZM758.972 159.23C759.567 157.728 761.867 157.721 762.472 159.12C763.075 160.218 762.379 161.62 761.18 162.023C759.681 162.228 758.276 160.632 758.972 159.23ZM748.38 161.96C748.376 160.661 749.473 159.757 750.673 159.654C751.474 159.852 752.374 160.149 752.677 160.948C753.28 162.046 752.784 163.548 751.586 164.051C751.087 164.353 750.486 164.254 749.886 164.156C748.985 163.759 748.283 162.961 748.38 161.96ZM728.385 163.819C729.583 163.115 731.087 164.411 730.69 165.612C730.493 166.712 728.995 167.117 728.193 166.419C727.191 165.822 727.386 164.321 728.385 163.819ZM771.285 163.694C772.283 162.891 773.885 163.786 773.789 165.087C773.892 166.186 772.495 167.091 771.493 166.493C770.392 165.997 770.287 164.297 771.285 163.694ZM753.992 166.044C755.59 165.44 757.592 166.134 758.496 167.631C759.701 169.428 759.109 172.129 757.212 173.135C755.216 174.341 752.413 173.349 751.606 171.151C750.8 169.053 751.993 166.65 753.992 166.044ZM744.492 166.272C746.29 165.467 748.692 166.16 749.597 167.957C750.602 169.754 749.81 172.256 748.012 173.162C746.215 174.167 743.613 173.474 742.707 171.477C741.702 169.58 742.595 167.077 744.492 166.272ZM734.902 169.5C734.998 168.299 736.096 167.596 737.196 167.493C738.396 167.589 739.299 168.587 739.502 169.786C739.406 170.987 738.509 172.189 737.209 172.093C735.91 172.297 734.706 170.9 734.902 169.5ZM763.096 167.718C764.494 166.914 766.498 168.108 766.402 169.708C766.507 171.408 764.311 172.714 762.908 171.618C761.505 170.822 761.599 168.422 763.096 167.718ZM740.614 173.883C742.313 173.378 744.215 174.173 745.02 175.77C745.924 177.268 745.531 179.469 744.134 180.573C742.339 182.278 739.037 181.588 738.13 179.29C737.024 177.194 738.316 174.39 740.614 173.883ZM758.714 173.831C760.313 173.326 762.215 174.02 763.119 175.418C764.324 177.114 763.731 179.616 762.034 180.721C760.238 182.026 757.436 181.334 756.43 179.337C755.224 177.341 756.416 174.437 758.714 173.831ZM729.92 175.814C731.318 175.31 732.923 176.805 732.427 178.307C732.031 179.608 730.232 180.113 729.329 179.116C728.127 178.219 728.521 176.218 729.92 175.814ZM768.926 177.801C768.922 176.601 769.719 175.499 771.019 175.495C772.02 175.692 772.922 176.489 772.925 177.489C773.029 178.889 771.332 179.894 770.13 179.197C769.529 178.899 769.227 178.3 768.926 177.801ZM722.822 176.535C723.721 176.132 724.723 176.929 724.526 177.83C724.529 178.93 722.83 179.335 722.327 178.436C721.826 177.838 722.123 176.837 722.822 176.535ZM777.422 176.376C778.021 175.975 779.021 176.272 779.223 176.971C779.626 177.77 778.929 178.772 778.028 178.675C776.829 178.778 776.423 176.879 777.422 176.376ZM745.337 181.669C747.635 181.063 750.041 182.956 750.048 185.356C750.155 187.755 747.761 189.862 745.459 189.269C743.658 188.974 742.253 187.278 742.248 185.378C742.343 183.678 743.638 182.074 745.337 181.669ZM754.337 181.643C756.635 181.037 759.141 182.929 759.148 185.329C759.254 187.629 756.96 189.736 754.659 189.242C752.458 188.949 750.951 186.653 751.545 184.551C751.841 183.151 753.038 182.047 754.337 181.643ZM736.941 183.194C738.54 182.889 740.046 184.685 739.45 186.187C738.955 187.788 736.656 188.295 735.552 186.898C734.349 185.701 735.242 183.299 736.941 183.194ZM763.441 183.117C764.839 182.513 766.643 183.708 766.548 185.308C766.652 187.008 764.456 188.214 763.053 187.218C761.45 186.323 761.743 183.722 763.441 183.117ZM770.863 190.595C770.26 189.597 771.356 188.194 772.457 188.391C773.057 188.389 773.458 188.788 773.759 189.187C773.861 189.787 773.963 190.586 773.464 190.988C772.867 191.89 771.266 191.594 770.863 190.595ZM728.457 188.718C729.555 188.015 731.058 189.111 730.862 190.311C730.765 191.412 729.367 192.116 728.365 191.419C727.364 190.922 727.359 189.222 728.457 188.718ZM749.864 191.056C751.262 190.452 753.066 191.647 752.971 193.247C753.075 194.947 750.879 196.153 749.476 195.157C747.873 194.162 748.066 191.562 749.864 191.056ZM739.971 193.385C741.169 192.782 742.772 193.877 742.676 195.177C742.679 196.277 741.682 197.28 740.582 197.083C739.682 197.086 739.079 196.288 738.777 195.489C738.774 194.589 739.072 193.688 739.971 193.385ZM759.971 193.327C761.168 192.524 762.972 193.618 762.876 195.119C762.88 196.619 760.883 197.624 759.78 196.628C758.678 195.831 758.773 193.93 759.971 193.327ZM763.496 201.917C762.893 201.119 763.591 200.117 764.49 199.914C765.19 200.012 765.992 200.61 765.794 201.41C765.697 202.51 764.099 202.915 763.496 201.917ZM735.794 201.297C735.992 200.597 736.59 199.995 737.291 200.193C738.391 200.29 738.796 201.988 737.797 202.491C736.899 203.094 735.896 202.197 735.794 201.297ZM749.196 201.958C749.393 200.958 750.691 200.454 751.493 201.052C752.094 201.25 752.196 201.95 752.397 202.449C752.298 202.749 752.299 202.949 752.2 203.25C751.901 203.65 751.402 204.052 750.802 204.054C749.702 204.157 748.799 202.959 749.196 201.958Z" fill="#575A5B"/>
<path d="M1184.95 195.256C1186.25 194.552 1187.75 196.148 1187.05 197.35C1186.66 198.351 1185.26 198.655 1184.46 197.857C1183.65 197.06 1183.95 195.659 1184.95 195.256ZM1171.55 196.695C1172.35 196.392 1173.25 197.09 1173.16 197.89C1173.26 198.79 1172.16 199.493 1171.36 198.995C1170.36 198.698 1170.45 196.998 1171.55 196.695ZM1199.06 199.015C1197.86 198.918 1197.65 197.019 1198.85 196.616C1199.75 196.213 1200.55 197.011 1200.66 197.81C1200.46 198.511 1199.86 199.213 1199.06 199.015ZM1174.57 202.386C1175.87 201.582 1177.67 202.777 1177.47 204.278C1177.38 205.778 1175.48 206.683 1174.28 205.587C1173.28 204.89 1173.37 203.09 1174.57 202.386ZM1193.97 203.23C1194.57 201.728 1196.87 201.721 1197.47 203.12C1198.07 204.218 1197.38 205.62 1196.18 206.023C1194.68 206.228 1193.28 204.632 1193.97 203.23ZM1183.38 205.96C1183.38 204.661 1184.47 203.757 1185.67 203.654C1186.47 203.852 1187.37 204.149 1187.68 204.948C1188.28 206.046 1187.78 207.548 1186.59 208.051C1186.09 208.353 1185.49 208.254 1184.89 208.156C1183.98 207.759 1183.28 206.961 1183.38 205.96ZM1163.39 207.819C1164.58 207.115 1166.09 208.411 1165.69 209.612C1165.49 210.712 1163.99 211.117 1163.19 210.419C1162.19 209.822 1162.39 208.321 1163.39 207.819ZM1206.28 207.694C1207.28 206.891 1208.89 207.786 1208.79 209.087C1208.89 210.186 1207.49 211.091 1206.49 210.493C1205.39 209.997 1205.29 208.297 1206.28 207.694ZM1188.99 210.044C1190.59 209.44 1192.59 210.134 1193.5 211.631C1194.7 213.428 1194.11 216.129 1192.21 217.135C1190.22 218.341 1187.41 217.349 1186.61 215.151C1185.8 213.053 1186.99 210.65 1188.99 210.044ZM1179.49 210.272C1181.29 209.467 1183.69 210.16 1184.6 211.957C1185.6 213.754 1184.81 216.256 1183.01 217.162C1181.22 218.167 1178.61 217.474 1177.71 215.477C1176.7 213.58 1177.59 211.077 1179.49 210.272ZM1169.9 213.5C1170 212.299 1171.1 211.596 1172.2 211.493C1173.4 211.589 1174.3 212.587 1174.5 213.786C1174.41 214.987 1173.51 216.189 1172.21 216.093C1170.91 216.297 1169.71 214.9 1169.9 213.5ZM1198.1 211.718C1199.49 210.914 1201.5 212.108 1201.4 213.708C1201.51 215.408 1199.31 216.714 1197.91 215.618C1196.51 214.822 1196.6 212.422 1198.1 211.718ZM1175.61 217.883C1177.31 217.378 1179.22 218.173 1180.02 219.77C1180.92 221.268 1180.53 223.469 1179.13 224.573C1177.34 226.278 1174.04 225.588 1173.13 223.29C1172.02 221.194 1173.32 218.39 1175.61 217.883ZM1193.71 217.831C1195.31 217.326 1197.21 218.02 1198.12 219.418C1199.32 221.114 1198.73 223.616 1197.03 224.721C1195.24 226.026 1192.44 225.334 1191.43 223.337C1190.22 221.341 1191.42 218.437 1193.71 217.831ZM1164.92 219.814C1166.32 219.31 1167.92 220.805 1167.43 222.307C1167.03 223.608 1165.23 224.113 1164.33 223.116C1163.13 222.219 1163.52 220.218 1164.92 219.814ZM1203.93 221.801C1203.92 220.601 1204.72 219.499 1206.02 219.495C1207.02 219.692 1207.92 220.489 1207.92 221.489C1208.03 222.889 1206.33 223.894 1205.13 223.197C1204.53 222.899 1204.23 222.3 1203.93 221.801ZM1157.82 220.535C1158.72 220.132 1159.72 220.929 1159.53 221.83C1159.53 222.93 1157.83 223.335 1157.33 222.436C1156.83 221.838 1157.12 220.837 1157.82 220.535ZM1212.42 220.376C1213.02 219.975 1214.02 220.272 1214.22 220.971C1214.63 221.77 1213.93 222.772 1213.03 222.675C1211.83 222.778 1211.42 220.879 1212.42 220.376ZM1180.34 225.669C1182.64 225.063 1185.04 226.956 1185.05 229.356C1185.15 231.755 1182.76 233.862 1180.46 233.269C1178.66 232.974 1177.25 231.278 1177.25 229.378C1177.34 227.678 1178.64 226.074 1180.34 225.669ZM1189.34 225.643C1191.64 225.037 1194.14 226.929 1194.15 229.329C1194.25 231.629 1191.96 233.736 1189.66 233.242C1187.46 232.949 1185.95 230.653 1186.55 228.551C1186.84 227.151 1188.04 226.047 1189.34 225.643ZM1171.94 227.194C1173.54 226.889 1175.05 228.685 1174.45 230.187C1173.95 231.788 1171.66 232.295 1170.55 230.898C1169.35 229.701 1170.24 227.299 1171.94 227.194ZM1198.44 227.117C1199.84 226.513 1201.64 227.708 1201.55 229.308C1201.65 231.008 1199.46 232.214 1198.05 231.218C1196.45 230.323 1196.74 227.722 1198.44 227.117ZM1205.86 234.595C1205.26 233.597 1206.36 232.194 1207.46 232.391C1208.06 232.389 1208.46 232.788 1208.76 233.187C1208.86 233.787 1208.96 234.586 1208.46 234.988C1207.87 235.89 1206.27 235.594 1205.86 234.595ZM1163.46 232.718C1164.56 232.015 1166.06 233.111 1165.86 234.311C1165.77 235.412 1164.37 236.116 1163.37 235.419C1162.36 234.922 1162.36 233.222 1163.46 232.718ZM1184.86 235.056C1186.26 234.452 1188.07 235.647 1187.97 237.247C1188.08 238.947 1185.88 240.153 1184.48 239.157C1182.87 238.162 1183.07 235.562 1184.86 235.056ZM1174.97 237.385C1176.17 236.782 1177.77 237.877 1177.68 239.177C1177.68 240.277 1176.68 241.28 1175.58 241.083C1174.68 241.086 1174.08 240.288 1173.78 239.489C1173.77 238.589 1174.07 237.688 1174.97 237.385ZM1194.97 237.327C1196.17 236.524 1197.97 237.618 1197.88 239.119C1197.88 240.619 1195.88 241.624 1194.78 240.628C1193.68 239.831 1193.77 237.93 1194.97 237.327ZM1198.5 245.917C1197.89 245.119 1198.59 244.117 1199.49 243.914C1200.19 244.012 1200.99 244.61 1200.79 245.41C1200.7 246.51 1199.1 246.915 1198.5 245.917ZM1170.79 245.297C1170.99 244.597 1171.59 243.995 1172.29 244.193C1173.39 244.29 1173.8 245.988 1172.8 246.491C1171.9 247.094 1170.9 246.197 1170.79 245.297ZM1184.2 245.958C1184.39 244.958 1185.69 244.454 1186.49 245.052C1187.09 245.25 1187.2 245.95 1187.4 246.449C1187.3 246.749 1187.3 246.949 1187.2 247.25C1186.9 247.65 1186.4 248.052 1185.8 248.054C1184.7 248.157 1183.8 246.959 1184.2 245.958Z" fill="#575A5B"/>
<path d="M394.949 634.256C396.247 633.552 397.751 635.148 397.055 636.35C396.658 637.351 395.259 637.655 394.456 636.857C393.654 636.06 393.95 634.659 394.949 634.256ZM381.553 635.695C382.352 635.392 383.254 636.09 383.156 636.89C383.259 637.79 382.161 638.493 381.359 637.995C380.359 637.698 380.454 635.998 381.553 635.695ZM409.06 638.015C407.859 637.918 407.654 636.019 408.853 635.616C409.752 635.213 410.554 636.011 410.656 636.81C410.458 637.511 409.86 638.213 409.06 638.015ZM384.569 641.386C385.867 640.582 387.67 641.777 387.475 643.278C387.379 644.778 385.482 645.683 384.279 644.587C383.277 643.89 383.371 642.09 384.569 641.386ZM403.972 642.23C404.567 640.728 406.867 640.721 407.472 642.12C408.075 643.218 407.379 644.62 406.18 645.023C404.681 645.228 403.276 643.632 403.972 642.23ZM393.38 644.96C393.376 643.661 394.473 642.757 395.673 642.654C396.474 642.852 397.374 643.149 397.677 643.948C398.28 645.046 397.784 646.548 396.586 647.051C396.087 647.353 395.486 647.254 394.886 647.156C393.985 646.759 393.283 645.961 393.38 644.96ZM373.385 646.819C374.583 646.115 376.087 647.411 375.69 648.612C375.493 649.712 373.995 650.117 373.193 649.419C372.191 648.822 372.386 647.321 373.385 646.819ZM416.285 646.694C417.283 645.891 418.885 646.786 418.789 648.087C418.892 649.186 417.495 650.091 416.493 649.493C415.392 648.997 415.287 647.297 416.285 646.694ZM398.992 649.044C400.59 648.44 402.592 649.134 403.496 650.631C404.701 652.428 404.109 655.129 402.212 656.135C400.216 657.341 397.413 656.349 396.606 654.151C395.8 652.053 396.993 649.65 398.992 649.044ZM389.492 649.272C391.29 648.467 393.692 649.16 394.597 650.957C395.602 652.754 394.81 655.256 393.012 656.162C391.215 657.167 388.613 656.474 387.707 654.477C386.702 652.58 387.595 650.077 389.492 649.272ZM379.902 652.5C379.998 651.299 381.096 650.596 382.196 650.493C383.396 650.589 384.299 651.587 384.502 652.786C384.406 653.987 383.509 655.189 382.209 655.093C380.91 655.297 379.706 653.9 379.902 652.5ZM408.096 650.718C409.494 649.914 411.498 651.108 411.402 652.708C411.507 654.408 409.311 655.714 407.908 654.618C406.505 653.822 406.599 651.422 408.096 650.718ZM385.614 656.883C387.313 656.378 389.215 657.173 390.02 658.77C390.924 660.268 390.531 662.469 389.134 663.573C387.339 665.278 384.037 664.588 383.13 662.29C382.024 660.194 383.316 657.39 385.614 656.883ZM403.714 656.831C405.313 656.326 407.215 657.02 408.119 658.418C409.324 660.114 408.731 662.616 407.034 663.721C405.238 665.026 402.436 664.334 401.43 662.337C400.224 660.341 401.416 657.437 403.714 656.831ZM374.92 658.814C376.318 658.31 377.923 659.805 377.427 661.307C377.031 662.608 375.232 663.113 374.329 662.116C373.127 661.219 373.521 659.218 374.92 658.814ZM413.926 660.801C413.922 659.601 414.719 658.499 416.019 658.495C417.02 658.692 417.922 659.489 417.925 660.489C418.029 661.889 416.332 662.894 415.13 662.197C414.529 661.899 414.227 661.3 413.926 660.801ZM367.822 659.535C368.721 659.132 369.723 659.929 369.526 660.83C369.529 661.93 367.83 662.335 367.327 661.436C366.826 660.838 367.123 659.837 367.822 659.535ZM422.422 659.376C423.021 658.975 424.021 659.272 424.223 659.971C424.626 660.77 423.929 661.772 423.028 661.675C421.829 661.778 421.423 659.879 422.422 659.376ZM390.337 664.669C392.635 664.063 395.041 665.956 395.048 668.356C395.155 670.755 392.761 672.862 390.459 672.269C388.658 671.974 387.253 670.278 387.248 668.378C387.343 666.678 388.638 665.074 390.337 664.669ZM399.337 664.643C401.635 664.037 404.141 665.929 404.148 668.329C404.254 670.629 401.96 672.736 399.659 672.242C397.458 671.949 395.951 669.653 396.545 667.551C396.841 666.151 398.038 665.047 399.337 664.643ZM381.941 666.194C383.54 665.889 385.046 667.685 384.45 669.187C383.955 670.788 381.656 671.295 380.552 669.898C379.349 668.701 380.242 666.299 381.941 666.194ZM408.441 666.117C409.839 665.513 411.643 666.708 411.548 668.308C411.652 670.008 409.456 671.214 408.053 670.218C406.45 669.323 406.743 666.722 408.441 666.117ZM415.863 673.595C415.26 672.597 416.356 671.194 417.457 671.391C418.057 671.389 418.458 671.788 418.759 672.187C418.861 672.787 418.963 673.586 418.464 673.988C417.867 674.89 416.266 674.594 415.863 673.595ZM373.457 671.718C374.555 671.015 376.058 672.111 375.862 673.311C375.765 674.412 374.367 675.116 373.365 674.419C372.364 673.922 372.359 672.222 373.457 671.718ZM394.864 674.056C396.262 673.452 398.066 674.647 397.971 676.247C398.075 677.947 395.879 679.153 394.476 678.157C392.873 677.162 393.066 674.562 394.864 674.056ZM384.971 676.385C386.169 675.782 387.772 676.877 387.676 678.177C387.679 679.277 386.682 680.28 385.582 680.083C384.682 680.086 384.079 679.288 383.777 678.489C383.774 677.589 384.072 676.688 384.971 676.385ZM404.971 676.327C406.168 675.524 407.972 676.618 407.876 678.119C407.88 679.619 405.883 680.624 404.78 679.628C403.678 678.831 403.773 676.93 404.971 676.327ZM408.496 684.917C407.893 684.119 408.591 683.117 409.49 682.914C410.19 683.012 410.992 683.61 410.794 684.41C410.697 685.51 409.099 685.915 408.496 684.917ZM380.794 684.297C380.992 683.597 381.59 682.995 382.291 683.193C383.391 683.29 383.796 684.988 382.797 685.491C381.899 686.094 380.896 685.197 380.794 684.297ZM394.196 684.958C394.393 683.958 395.691 683.454 396.493 684.052C397.094 684.25 397.196 684.95 397.397 685.449C397.298 685.749 397.299 685.949 397.2 686.25C396.901 686.65 396.402 687.052 395.802 687.054C394.702 687.157 393.799 685.959 394.196 684.958Z" fill="#575A5B"/>
<path d="M78.9487 828.256C80.2466 827.552 81.7513 829.148 81.0548 830.35C80.6577 831.351 79.2585 831.655 78.4562 830.857C77.6539 830.06 77.9498 828.659 78.9487 828.256ZM65.5528 829.695C66.3519 829.393 67.2539 830.09 67.1563 830.89C67.2589 831.79 66.1609 832.493 65.3595 831.995C64.3586 831.698 64.4537 829.998 65.5528 829.695ZM93.0596 832.015C91.8593 831.919 91.6538 830.019 92.8527 829.616C93.7515 829.213 94.5538 830.011 94.6561 830.81C94.4582 831.511 93.8602 832.213 93.0596 832.015ZM68.5693 835.386C69.867 834.582 71.6705 835.777 71.4748 837.278C71.3792 838.778 69.4818 839.684 68.2786 838.587C67.2766 837.89 67.3714 836.09 68.5693 835.386ZM87.9718 836.23C88.5675 834.728 90.8675 834.721 91.4715 836.12C92.0747 837.218 91.3788 838.62 90.18 839.023C88.6805 839.228 87.2759 837.632 87.9718 836.23ZM77.3797 838.961C77.376 837.661 78.4733 836.757 79.673 836.654C80.4736 836.852 81.3745 837.149 81.6768 837.948C82.28 839.046 81.7844 840.548 80.5858 841.051C80.0867 841.353 79.4864 841.255 78.8861 841.156C77.985 840.759 77.2826 839.961 77.3797 838.961ZM57.385 840.819C58.583 840.115 60.0868 841.411 59.6902 842.612C59.4934 843.713 57.9946 844.117 57.1926 843.419C56.1908 842.822 56.3865 841.322 57.385 840.819ZM100.285 840.694C101.283 839.891 102.885 840.787 102.789 842.087C102.892 843.187 101.495 844.091 100.493 843.494C99.3915 842.997 99.2866 841.297 100.285 840.694ZM82.9916 843.044C84.5898 842.44 86.5919 843.134 87.4962 844.631C88.7014 846.428 88.1093 849.13 86.2122 850.135C84.2157 851.341 81.4128 850.349 80.6064 848.151C79.8003 846.054 80.9933 843.65 82.9916 843.044ZM73.4922 843.272C75.2899 842.467 77.6919 843.16 78.5971 844.957C79.6024 846.754 78.8096 849.257 77.0122 850.162C75.2151 851.167 72.6131 850.474 71.7073 848.477C70.7018 846.58 71.5945 844.077 73.4922 843.272ZM63.9016 846.5C63.9981 845.299 65.096 844.596 66.1957 844.493C67.396 844.59 68.2989 845.587 68.5024 846.786C68.4059 847.987 67.5094 849.189 66.2091 849.093C64.9097 849.297 63.7056 847.9 63.9016 846.5ZM92.0965 844.718C93.4942 843.914 95.4976 845.108 95.4023 846.708C95.5072 848.408 93.311 849.714 91.9078 848.618C90.5055 847.823 90.5985 845.422 92.0965 844.718ZM69.6143 850.883C71.3128 850.378 73.2151 851.173 74.0198 852.77C74.9241 854.268 74.5305 856.469 73.1337 857.573C71.3387 859.278 68.0366 858.588 67.13 856.29C66.0239 854.194 67.3158 851.39 69.6143 850.883ZM87.7142 850.831C89.3127 850.326 91.2148 851.021 92.1188 852.418C93.3238 854.114 92.731 856.616 91.0342 857.721C89.238 859.026 86.436 858.334 85.4302 856.337C84.2244 854.341 85.416 851.437 87.7142 850.831ZM58.9199 852.814C60.3184 852.31 61.9227 853.806 61.4271 855.307C61.0309 856.608 59.2323 857.113 58.3294 856.116C57.1268 855.219 57.521 853.218 58.9199 852.814ZM97.9258 854.801C97.9223 853.601 98.7191 852.499 100.019 852.495C101.02 852.692 101.922 853.489 101.925 854.489C102.029 855.889 100.332 856.894 99.1298 856.198C98.529 855.899 98.2272 855.3 97.9258 854.801ZM51.8219 853.535C52.7207 853.132 53.7231 853.929 53.5257 854.83C53.5289 855.93 51.83 856.335 51.3274 855.436C50.8257 854.838 51.1228 853.837 51.8219 853.535ZM106.422 853.376C107.021 852.975 108.021 853.272 108.223 853.971C108.626 854.77 107.929 855.772 107.028 855.675C105.829 855.778 105.423 853.879 106.422 853.376ZM74.3369 858.67C76.6352 858.063 79.0407 859.956 79.0476 862.356C79.1546 864.756 76.7607 866.863 74.459 866.269C72.6581 865.974 71.2532 864.278 71.2476 862.379C71.3427 860.678 72.6381 859.074 74.3369 858.67ZM83.3369 858.643C85.6351 858.037 88.1406 859.929 88.1476 862.329C88.2543 864.629 85.9604 866.736 83.6589 866.243C81.4581 865.949 79.9514 863.653 80.5453 861.552C80.8412 860.151 82.038 859.047 83.3369 858.643ZM65.9413 860.194C67.5404 859.889 69.0456 861.685 68.45 863.187C67.9546 864.788 65.6561 865.295 64.552 863.898C63.3486 862.701 64.2416 860.299 65.9413 860.194ZM92.4412 860.117C93.8394 859.513 95.6429 860.708 95.5475 862.308C95.6525 864.008 93.456 865.214 92.0531 864.218C90.4505 863.323 90.7429 860.722 92.4412 860.117ZM99.8629 867.595C99.26 866.597 100.356 865.194 101.457 865.391C102.057 865.389 102.458 865.788 102.759 866.187C102.861 866.787 102.963 867.586 102.464 867.988C101.867 868.89 100.266 868.594 99.8629 867.595ZM57.4573 865.719C58.5553 865.015 60.0584 866.111 59.8619 867.312C59.7651 868.412 58.3672 869.116 57.3651 868.419C56.3637 867.922 56.3588 866.222 57.4573 865.719ZM78.8642 868.056C80.2624 867.452 82.0659 868.647 81.9705 870.247C82.0755 871.947 79.879 873.154 78.4761 872.158C76.8732 871.162 77.0656 868.562 78.8642 868.056ZM68.9709 870.385C70.1691 869.782 71.7723 870.877 71.6761 872.177C71.6793 873.277 70.6822 874.28 69.5816 874.083C68.6816 874.086 68.0793 873.288 67.777 872.489C67.7744 871.589 68.0718 870.688 68.9709 870.385ZM88.9708 870.327C90.1685 869.524 91.9717 870.618 91.876 872.119C91.8804 873.619 89.8833 874.624 88.7804 873.628C87.6781 872.831 87.7725 870.931 88.9708 870.327ZM92.4957 878.917C91.8934 878.119 92.5905 877.117 93.4899 876.914C94.1902 877.012 94.9919 877.61 94.7943 878.41C94.6975 879.511 93.0986 879.915 92.4957 878.917ZM64.7938 878.297C64.9918 877.597 65.59 876.995 66.2906 877.193C67.3909 877.29 67.7958 878.989 66.7973 879.491C65.899 880.094 64.8964 879.197 64.7938 878.297ZM78.1958 878.958C78.3929 877.958 79.6914 877.454 80.4932 878.052C81.0938 878.25 81.1958 878.95 81.3972 879.449C81.2981 879.749 81.2987 879.949 81.1996 880.25C80.9007 880.651 80.4019 881.052 79.8019 881.054C78.7022 881.157 77.7987 879.96 78.1958 878.958Z" fill="#575A5B"/>
<path d="M1314.95 756.256C1316.25 755.552 1317.75 757.148 1317.05 758.35C1316.66 759.351 1315.26 759.655 1314.46 758.857C1313.65 758.06 1313.95 756.659 1314.95 756.256ZM1301.55 757.695C1302.35 757.393 1303.25 758.09 1303.16 758.89C1303.26 759.79 1302.16 760.493 1301.36 759.995C1300.36 759.698 1300.45 757.998 1301.55 757.695ZM1329.06 760.015C1327.86 759.919 1327.65 758.019 1328.85 757.616C1329.75 757.213 1330.55 758.011 1330.66 758.81C1330.46 759.511 1329.86 760.213 1329.06 760.015ZM1304.57 763.386C1305.87 762.582 1307.67 763.777 1307.47 765.278C1307.38 766.778 1305.48 767.684 1304.28 766.587C1303.28 765.89 1303.37 764.09 1304.57 763.386ZM1323.97 764.23C1324.57 762.728 1326.87 762.721 1327.47 764.12C1328.07 765.218 1327.38 766.62 1326.18 767.023C1324.68 767.228 1323.28 765.632 1323.97 764.23ZM1313.38 766.961C1313.38 765.661 1314.47 764.757 1315.67 764.654C1316.47 764.852 1317.37 765.149 1317.68 765.948C1318.28 767.046 1317.78 768.548 1316.59 769.051C1316.09 769.353 1315.49 769.255 1314.89 769.156C1313.98 768.759 1313.28 767.961 1313.38 766.961ZM1293.39 768.819C1294.58 768.115 1296.09 769.411 1295.69 770.612C1295.49 771.713 1293.99 772.117 1293.19 771.419C1292.19 770.822 1292.39 769.322 1293.39 768.819ZM1336.28 768.694C1337.28 767.891 1338.89 768.787 1338.79 770.087C1338.89 771.187 1337.49 772.091 1336.49 771.494C1335.39 770.997 1335.29 769.297 1336.28 768.694ZM1318.99 771.044C1320.59 770.44 1322.59 771.134 1323.5 772.631C1324.7 774.428 1324.11 777.13 1322.21 778.135C1320.22 779.341 1317.41 778.349 1316.61 776.151C1315.8 774.054 1316.99 771.65 1318.99 771.044ZM1309.49 771.272C1311.29 770.467 1313.69 771.16 1314.6 772.957C1315.6 774.754 1314.81 777.257 1313.01 778.162C1311.22 779.167 1308.61 778.474 1307.71 776.477C1306.7 774.58 1307.59 772.077 1309.49 771.272ZM1299.9 774.5C1300 773.299 1301.1 772.596 1302.2 772.493C1303.4 772.59 1304.3 773.587 1304.5 774.786C1304.41 775.987 1303.51 777.189 1302.21 777.093C1300.91 777.297 1299.71 775.9 1299.9 774.5ZM1328.1 772.718C1329.49 771.914 1331.5 773.108 1331.4 774.708C1331.51 776.408 1329.31 777.714 1327.91 776.618C1326.51 775.823 1326.6 773.422 1328.1 772.718ZM1305.61 778.883C1307.31 778.378 1309.22 779.173 1310.02 780.77C1310.92 782.268 1310.53 784.469 1309.13 785.573C1307.34 787.278 1304.04 786.588 1303.13 784.29C1302.02 782.194 1303.32 779.39 1305.61 778.883ZM1323.71 778.831C1325.31 778.326 1327.21 779.021 1328.12 780.418C1329.32 782.114 1328.73 784.616 1327.03 785.721C1325.24 787.026 1322.44 786.334 1321.43 784.337C1320.22 782.341 1321.42 779.437 1323.71 778.831ZM1294.92 780.814C1296.32 780.31 1297.92 781.806 1297.43 783.307C1297.03 784.608 1295.23 785.113 1294.33 784.116C1293.13 783.219 1293.52 781.218 1294.92 780.814ZM1333.93 782.801C1333.92 781.601 1334.72 780.499 1336.02 780.495C1337.02 780.692 1337.92 781.489 1337.92 782.489C1338.03 783.889 1336.33 784.894 1335.13 784.198C1334.53 783.899 1334.23 783.3 1333.93 782.801ZM1287.82 781.535C1288.72 781.132 1289.72 781.929 1289.53 782.83C1289.53 783.93 1287.83 784.335 1287.33 783.436C1286.83 782.838 1287.12 781.837 1287.82 781.535ZM1342.42 781.376C1343.02 780.975 1344.02 781.272 1344.22 781.971C1344.63 782.77 1343.93 783.772 1343.03 783.675C1341.83 783.778 1341.42 781.879 1342.42 781.376ZM1310.34 786.67C1312.64 786.063 1315.04 787.956 1315.05 790.356C1315.15 792.756 1312.76 794.863 1310.46 794.269C1308.66 793.974 1307.25 792.278 1307.25 790.379C1307.34 788.678 1308.64 787.074 1310.34 786.67ZM1319.34 786.643C1321.64 786.037 1324.14 787.929 1324.15 790.329C1324.25 792.629 1321.96 794.736 1319.66 794.243C1317.46 793.949 1315.95 791.653 1316.55 789.552C1316.84 788.151 1318.04 787.047 1319.34 786.643ZM1301.94 788.194C1303.54 787.889 1305.05 789.685 1304.45 791.187C1303.95 792.788 1301.66 793.295 1300.55 791.898C1299.35 790.701 1300.24 788.299 1301.94 788.194ZM1328.44 788.117C1329.84 787.513 1331.64 788.708 1331.55 790.308C1331.65 792.008 1329.46 793.214 1328.05 792.218C1326.45 791.323 1326.74 788.722 1328.44 788.117ZM1335.86 795.595C1335.26 794.597 1336.36 793.194 1337.46 793.391C1338.06 793.389 1338.46 793.788 1338.76 794.187C1338.86 794.787 1338.96 795.586 1338.46 795.988C1337.87 796.89 1336.27 796.594 1335.86 795.595ZM1293.46 793.719C1294.56 793.015 1296.06 794.111 1295.86 795.312C1295.77 796.412 1294.37 797.116 1293.37 796.419C1292.36 795.922 1292.36 794.222 1293.46 793.719ZM1314.86 796.056C1316.26 795.452 1318.07 796.647 1317.97 798.247C1318.08 799.947 1315.88 801.154 1314.48 800.158C1312.87 799.162 1313.07 796.562 1314.86 796.056ZM1304.97 798.385C1306.17 797.782 1307.77 798.877 1307.68 800.177C1307.68 801.277 1306.68 802.28 1305.58 802.083C1304.68 802.086 1304.08 801.288 1303.78 800.489C1303.77 799.589 1304.07 798.688 1304.97 798.385ZM1324.97 798.327C1326.17 797.524 1327.97 798.618 1327.88 800.119C1327.88 801.619 1325.88 802.624 1324.78 801.628C1323.68 800.831 1323.77 798.931 1324.97 798.327ZM1328.5 806.917C1327.89 806.119 1328.59 805.117 1329.49 804.914C1330.19 805.012 1330.99 805.61 1330.79 806.41C1330.7 807.511 1329.1 807.915 1328.5 806.917ZM1300.79 806.297C1300.99 805.597 1301.59 804.995 1302.29 805.193C1303.39 805.29 1303.8 806.989 1302.8 807.491C1301.9 808.094 1300.9 807.197 1300.79 806.297ZM1314.2 806.958C1314.39 805.958 1315.69 805.454 1316.49 806.052C1317.09 806.25 1317.2 806.95 1317.4 807.449C1317.3 807.749 1317.3 807.949 1317.2 808.25C1316.9 808.651 1316.4 809.052 1315.8 809.054C1314.7 809.157 1313.8 807.96 1314.2 806.958Z" fill="#575A5B"/>
<path d="M626.154 842.7C626.84 837.798 623.132 835.209 618.027 833.424L619.708 826.819L615.705 825.83L614.124 832.335C613.023 832.038 611.923 831.841 610.922 831.544L612.503 825.04L608.5 824.051L606.819 830.656C605.919 830.459 605.118 830.261 604.217 830.064L598.613 828.68L597.526 832.983C597.526 832.983 600.528 833.674 600.428 833.675C602.029 834.07 602.332 835.169 602.334 835.969L600.457 843.575L597.887 854.182C597.689 854.683 597.191 855.384 595.99 855.188C595.991 855.288 593.088 854.496 593.088 854.496L591.102 859.102L596.405 860.387C597.406 860.584 598.307 860.881 599.307 861.078L597.627 867.783L601.63 868.771L603.311 862.166C604.411 862.463 605.512 862.76 606.513 862.957L604.832 869.562L608.835 870.55L610.515 863.846C617.419 865.126 622.618 864.61 624.699 858.304C626.485 853.299 624.576 850.405 620.971 848.515C623.67 848.007 625.665 846.302 626.154 842.7ZM616.992 855.627C615.806 860.63 607.298 857.955 604.596 857.263L606.77 848.356C609.472 849.049 618.276 850.423 616.992 855.627ZM618.154 842.623C617.067 847.227 609.96 844.847 607.659 844.354L609.635 836.248C612.037 836.841 619.34 837.82 618.154 842.623Z" fill="#575A5B"/>
<path d="M634.154 654.7C634.84 649.798 631.132 647.209 626.027 645.424L627.708 638.819L623.705 637.83L622.124 644.335C621.023 644.038 619.923 643.841 618.922 643.544L620.503 637.04L616.5 636.051L614.819 642.656C613.919 642.459 613.118 642.261 612.217 642.064L606.613 640.68L605.526 644.983C605.526 644.983 608.528 645.674 608.428 645.675C610.029 646.07 610.332 647.169 610.334 647.969L608.457 655.575L605.887 666.182C605.689 666.683 605.191 667.384 603.99 667.188C603.991 667.288 601.088 666.496 601.088 666.496L599.102 671.102L604.405 672.387C605.406 672.584 606.307 672.881 607.307 673.078L605.627 679.783L609.63 680.771L611.311 674.166C612.411 674.463 613.512 674.76 614.513 674.957L612.832 681.562L616.835 682.55L618.515 675.846C625.419 677.126 630.618 676.61 632.699 670.304C634.485 665.299 632.576 662.405 628.971 660.515C631.67 660.007 633.665 658.302 634.154 654.7ZM624.992 667.627C623.806 672.63 615.298 669.955 612.596 669.263L614.77 660.356C617.472 661.049 626.276 662.423 624.992 667.627ZM626.154 654.623C625.067 659.227 617.96 656.847 615.659 656.354L617.635 648.248C620.037 648.841 627.34 649.82 626.154 654.623Z" fill="#575A5B"/>
<path d="M1181.15 701.7C1181.84 696.798 1178.13 694.209 1173.03 692.424L1174.71 685.819L1170.71 684.83L1169.12 691.335C1168.02 691.038 1166.92 690.841 1165.92 690.544L1167.5 684.04L1163.5 683.051L1161.82 689.656C1160.92 689.459 1160.12 689.261 1159.22 689.064L1153.61 687.68L1152.53 691.983C1152.53 691.983 1155.53 692.674 1155.43 692.675C1157.03 693.07 1157.33 694.169 1157.33 694.969L1155.46 702.575L1152.89 713.182C1152.69 713.683 1152.19 714.384 1150.99 714.188C1150.99 714.288 1148.09 713.496 1148.09 713.496L1146.1 718.102L1151.41 719.387C1152.41 719.584 1153.31 719.881 1154.31 720.078L1152.63 726.783L1156.63 727.771L1158.31 721.166C1159.41 721.463 1160.51 721.76 1161.51 721.957L1159.83 728.562L1163.83 729.55L1165.52 722.846C1172.42 724.126 1177.62 723.61 1179.7 717.304C1181.48 712.299 1179.58 709.405 1175.97 707.515C1178.67 707.007 1180.66 705.302 1181.15 701.7ZM1171.99 714.627C1170.81 719.63 1162.3 716.955 1159.6 716.263L1161.77 707.356C1164.47 708.049 1173.28 709.423 1171.99 714.627ZM1173.15 701.623C1172.07 706.227 1164.96 703.847 1162.66 703.354L1164.64 695.248C1167.04 695.841 1174.34 696.82 1173.15 701.623Z" fill="#575A5B"/>
<path d="M1027.15 176.7C1027.84 171.798 1024.13 169.209 1019.03 167.424L1020.71 160.819L1016.71 159.83L1015.12 166.335C1014.02 166.038 1012.92 165.841 1011.92 165.544L1013.5 159.04L1009.5 158.051L1007.82 164.656C1006.92 164.459 1006.12 164.261 1005.22 164.064L999.613 162.68L998.526 166.983C998.526 166.983 1001.53 167.674 1001.43 167.675C1003.03 168.07 1003.33 169.169 1003.33 169.969L1001.46 177.575L998.887 188.182C998.689 188.683 998.191 189.384 996.99 189.188C996.991 189.288 994.088 188.496 994.088 188.496L992.102 193.102L997.405 194.387C998.406 194.584 999.307 194.881 1000.31 195.078L998.627 201.783L1002.63 202.771L1004.31 196.166C1005.41 196.463 1006.51 196.76 1007.51 196.957L1005.83 203.562L1009.83 204.55L1011.52 197.846C1018.42 199.126 1023.62 198.61 1025.7 192.304C1027.48 187.299 1025.58 184.405 1021.97 182.515C1024.67 182.007 1026.66 180.302 1027.15 176.7ZM1017.99 189.627C1016.81 194.63 1008.3 191.955 1005.6 191.263L1007.77 182.356C1010.47 183.049 1019.28 184.423 1017.99 189.627ZM1019.15 176.623C1018.07 181.227 1010.96 178.847 1008.66 178.354L1010.64 170.248C1013.04 170.841 1020.34 171.82 1019.15 176.623Z" fill="#575A5B"/>
</g>
<defs>
<clipPath id="clip0_1001_6543">
<rect width="1440" height="1080" fill="white"/>
</clipPath>
</defs>
</svg>
