<svg width="374" height="396" viewBox="0 0 374 396" fill="none" xmlns="http://www.w3.org/2000/svg">
<g filter="url(#filter0_dddd_1033_6682)">
<circle cx="186.142" cy="186.899" r="152.736" fill="url(#paint0_radial_1033_6682)"/>
<path d="M211.325 294.773V307H207.203V297.882H205.107V294.773H211.325ZM223.15 294.773V297.306L219.08 307H214.574L218.451 297.969H216.093V299.751H212.687V294.773H223.15ZM229.281 307.279C228.198 307.279 227.237 307.029 226.399 306.528C225.572 306.016 224.92 305.282 224.442 304.328C223.977 303.361 223.744 302.214 223.744 300.887C223.744 299.559 223.977 298.418 224.442 297.463C224.92 296.496 225.572 295.763 226.399 295.262C227.237 294.75 228.198 294.494 229.281 294.494C230.364 294.494 231.319 294.75 232.145 295.262C232.984 295.763 233.636 296.496 234.102 297.463C234.579 298.418 234.818 299.559 234.818 300.887C234.818 302.214 234.579 303.361 234.102 304.328C233.636 305.282 232.984 306.016 232.145 306.528C231.319 307.029 230.364 307.279 229.281 307.279ZM229.281 303.978C230.212 303.978 230.678 302.948 230.678 300.887C230.678 298.825 230.212 297.795 229.281 297.795C228.349 297.795 227.883 298.825 227.883 300.887C227.883 302.948 228.349 303.978 229.281 303.978Z" fill="white"/>
<path d="M152.757 304.904H151.133V307H147.133V304.904H140.792V302.284L145.98 294.773H150.207L145.596 301.707H147.255V299.838H151.133V301.707H152.757V304.904ZM158.869 307.279C157.786 307.279 156.826 307.029 155.987 306.528C155.16 306.016 154.508 305.282 154.031 304.328C153.565 303.361 153.332 302.214 153.332 300.887C153.332 299.559 153.565 298.418 154.031 297.463C154.508 296.496 155.16 295.763 155.987 295.262C156.826 294.75 157.786 294.494 158.869 294.494C159.952 294.494 160.907 294.75 161.734 295.262C162.572 295.763 163.224 296.496 163.69 297.463C164.168 298.418 164.406 299.559 164.406 300.887C164.406 302.214 164.168 303.361 163.69 304.328C163.224 305.282 162.572 306.016 161.734 306.528C160.907 307.029 159.952 307.279 158.869 307.279ZM158.869 303.978C159.801 303.978 160.267 302.948 160.267 300.887C160.267 298.825 159.801 297.795 158.869 297.795C157.938 297.795 157.472 298.825 157.472 300.887C157.472 302.948 157.938 303.978 158.869 303.978Z" fill="white"/>
<g filter="url(#filter1_f_1033_6682)">
<path d="M102.3 290.781C81.0224 273.246 65.7115 249.54 58.4798 222.934C51.248 196.328 52.452 168.133 61.9255 142.24C71.3991 116.347 88.6752 94.0324 111.37 78.3755C134.065 62.7186 161.059 54.491 188.629 54.8282C216.198 55.1654 242.984 64.0507 265.289 80.258C287.594 96.4653 304.319 119.196 313.156 145.313C321.994 171.429 322.508 199.645 314.627 226.067C306.747 252.488 290.861 275.813 269.161 292.822L262.182 283.918C282.039 268.354 296.576 247.011 303.787 222.833C310.998 198.656 310.527 172.837 302.44 148.939C294.354 125.04 279.049 104.24 258.639 89.4098C238.228 74.5792 213.718 66.4486 188.49 66.1401C163.263 65.8315 138.561 73.3602 117.794 87.6872C97.027 102.014 81.2183 122.433 72.5495 146.127C63.8806 169.82 62.7789 195.62 69.3964 219.967C76.0139 244.313 90.0243 266.005 109.494 282.051L102.3 290.781Z" fill="url(#paint1_linear_1033_6682)"/>
</g>
<g filter="url(#filter2_f_1033_6682)">
<path d="M102.3 293.779C81.0224 276.245 65.7115 252.539 58.4798 225.932C51.248 199.326 52.452 171.131 61.9255 145.238C71.3991 119.345 88.6752 97.031 111.37 81.374C134.065 65.7171 161.059 57.4896 188.629 57.8267C216.198 58.1639 242.984 67.0492 265.289 83.2565C287.594 99.4638 304.319 122.194 313.156 148.311C321.994 174.428 322.508 202.644 314.627 229.065C306.747 255.487 290.861 278.811 269.161 295.82L267.773 294.049C289.106 277.328 304.724 254.397 312.471 228.422C320.218 202.447 319.713 174.708 311.025 149.032C302.337 123.357 285.894 101.01 263.966 85.077C242.038 69.1435 215.705 60.4083 188.601 60.0768C161.498 59.7453 134.959 67.8339 112.648 83.2263C90.3365 98.6186 73.3523 120.556 64.0388 146.012C54.7253 171.467 53.5417 199.186 60.6512 225.342C67.7608 251.499 82.813 274.804 103.731 292.043L102.3 293.779Z" fill="white"/>
</g>
<g filter="url(#filter3_d_1033_6682)">
<path d="M186.889 54.9795C185.485 54.9795 184.033 54.9795 182.629 55.0279L183.21 77.5631C184.372 77.5389 185.582 77.5147 186.744 77.5389H187.252L188.124 77.5631L188.511 55.0279L187.494 54.9795H186.889Z" fill="url(#paint2_linear_1033_6682)"/>
<path d="M174.762 55.4637L176.674 77.9263C178.296 77.7811 179.942 77.6842 181.563 77.6116L180.644 55.0764C178.683 55.1732 176.698 55.2943 174.762 55.4637Z" fill="url(#paint3_linear_1033_6682)"/>
<path d="M190.496 55.0522L189.77 77.5875C191.391 77.6359 193.037 77.7327 194.659 77.8537L196.402 55.3669C194.441 55.2217 192.456 55.1249 190.496 55.0522Z" fill="url(#paint4_linear_1033_6682)"/>
<path d="M166.922 56.3595L170.165 78.6768C171.787 78.4348 173.409 78.2411 175.031 78.0717L172.78 55.6333C170.843 55.8511 168.858 56.0932 166.922 56.3595Z" fill="url(#paint5_linear_1033_6682)"/>
<path d="M159.148 57.7389L163.747 79.8142C165.345 79.4753 166.967 79.1848 168.564 78.9186L164.982 56.6738C163.046 56.9885 161.085 57.3516 159.148 57.7389Z" fill="url(#paint6_linear_1033_6682)"/>
<path d="M221.598 59.8208L215.547 81.533C217.12 81.9687 218.694 82.4528 220.243 82.9612L227.262 61.5394C225.398 60.91 223.51 60.3291 221.598 59.8208Z" fill="url(#paint7_linear_1033_6682)"/>
<path d="M151.477 59.5785L157.383 81.3392C158.956 80.9035 160.554 80.5162 162.151 80.1531L157.237 58.1504C155.301 58.5861 153.365 59.0702 151.477 59.5785Z" fill="url(#paint8_linear_1033_6682)"/>
<path d="M213.947 57.9326L209.203 79.9837C210.776 80.3226 212.398 80.7099 213.972 81.1214L219.684 59.3123C217.796 58.804 215.86 58.3441 213.947 57.9326Z" fill="url(#paint9_linear_1033_6682)"/>
<path d="M206.179 56.5044L202.766 78.7976C204.387 79.0396 206.009 79.3301 207.607 79.6447L212.012 57.521C210.1 57.1337 208.139 56.7949 206.179 56.5044Z" fill="url(#paint10_linear_1033_6682)"/>
<path d="M229.151 62.1689L221.793 83.4939C223.342 84.0264 224.891 84.6073 226.392 85.2125L234.694 64.2506C232.879 63.5002 231.015 62.7983 229.151 62.1689Z" fill="url(#paint11_linear_1033_6682)"/>
<path d="M198.362 55.5361L196.305 77.9987C197.926 78.144 199.572 78.3376 201.17 78.5555L204.244 56.2139C202.283 55.9476 200.323 55.7298 198.362 55.5361Z" fill="url(#paint12_linear_1033_6682)"/>
<path d="M109.047 79.8384L122.239 98.1377C123.546 97.1937 124.926 96.2496 126.281 95.354L113.912 76.498C112.266 77.5631 110.62 78.7007 109.047 79.8384Z" fill="#6ED3FF"/>
<path d="M102.801 84.6313L117.058 102.108C118.316 101.091 119.624 100.074 120.931 99.0819L107.472 81.0005C105.875 82.1866 104.302 83.3968 102.801 84.6313Z" fill="#6ED3FF"/>
<path d="M100.258 287.013C101.734 288.295 103.283 289.554 104.833 290.764L118.751 273.022C117.468 272.005 116.185 270.964 114.95 269.899L100.258 287.013Z" fill="#6ED3FF"/>
<path d="M143.926 61.8781L151.139 83.2514C152.688 82.7431 154.261 82.2348 155.811 81.7991L149.59 60.1111C147.702 60.6436 145.79 61.2487 143.926 61.8781Z" fill="url(#paint13_linear_1033_6682)"/>
<path d="M110.084 265.494L94.3984 281.712C95.8266 283.091 97.2789 284.423 98.7312 285.73L113.666 268.834C112.48 267.745 111.27 266.632 110.084 265.494Z" fill="#6ED3FF"/>
<path d="M129.328 67.8087L139.059 88.1655C140.535 87.4635 142.036 86.7857 143.512 86.1564L134.726 65.3882C132.911 66.1386 131.095 66.9615 129.328 67.8087Z" fill="#6ED3FF"/>
<path d="M136.539 64.6137L145.011 85.5029C146.512 84.8978 148.061 84.3169 149.586 83.7601L142.058 62.5078C140.218 63.1856 138.354 63.8875 136.539 64.6137Z" fill="#6ED3FF"/>
<path d="M122.332 71.4152L133.249 91.1426C134.677 90.368 136.129 89.5934 137.581 88.8673L127.56 68.6558C125.793 69.5272 124.051 70.447 122.332 71.4152Z" fill="#6ED3FF"/>
<path d="M115.555 75.4334L127.633 94.483C129.013 93.6116 130.417 92.7644 131.821 91.9657L120.614 72.4077C118.919 73.3517 117.225 74.3684 115.555 75.4334Z" fill="#6ED3FF"/>
<path d="M283.105 237.464L303.075 247.921C303.995 246.178 304.866 244.387 305.713 242.596L285.284 233.059C284.606 234.535 283.856 236.036 283.105 237.464Z" fill="url(#paint14_linear_1033_6682)"/>
<path d="M285.961 231.582L306.536 240.804C307.334 239.013 308.109 237.174 308.835 235.334L287.873 227.056C287.292 228.556 286.639 230.081 285.961 231.582Z" fill="url(#paint15_linear_1033_6682)"/>
<path d="M288.477 225.531L309.584 233.495C310.286 231.655 310.939 229.767 311.544 227.903L290.123 220.908C289.59 222.433 289.033 223.982 288.477 225.531Z" fill="url(#paint16_linear_1033_6682)"/>
<path d="M105.535 260.822L88.9297 276.072C90.261 277.524 91.6407 278.952 93.0204 280.332L108.923 264.356C107.786 263.194 106.624 262.008 105.535 260.822Z" fill="#6ED3FF"/>
<path d="M290.609 219.31L312.152 225.991C312.733 224.127 313.29 222.191 313.774 220.303L291.965 214.614C291.529 216.188 291.069 217.761 290.609 219.31Z" fill="url(#paint17_linear_1033_6682)"/>
<path d="M276.375 248.671L294.965 261.427C296.078 259.806 297.167 258.135 298.208 256.465L279.062 244.556C278.19 245.96 277.295 247.34 276.375 248.671Z" fill="url(#paint18_linear_1033_6682)"/>
<path d="M279.91 243.176L299.226 254.795C300.243 253.125 301.235 251.382 302.155 249.639L282.331 238.892C281.556 240.344 280.733 241.773 279.91 243.176Z" fill="url(#paint19_linear_1033_6682)"/>
<path d="M292.352 213.017L314.257 218.39C314.717 216.478 315.153 214.541 315.54 212.605L293.417 208.224C293.078 209.846 292.739 211.443 292.352 213.017Z" fill="url(#paint20_linear_1033_6682)"/>
<path d="M236.559 64.9521L227.941 85.793C229.442 86.4223 230.967 87.0759 232.444 87.7778L242.005 67.3485C240.189 66.5255 238.374 65.7267 236.559 64.9521Z" fill="url(#paint21_linear_1033_6682)"/>
<path d="M295.281 193.652L317.792 195.032C317.913 193.071 317.986 191.086 318.01 189.126L295.475 188.763C295.451 190.384 295.378 192.03 295.281 193.652Z" fill="url(#paint22_linear_1033_6682)"/>
<path d="M293.707 206.626L315.879 210.669C316.242 208.732 316.533 206.771 316.799 204.811L294.457 201.785C294.264 203.407 293.997 205.029 293.707 206.626Z" fill="url(#paint23_linear_1033_6682)"/>
<path d="M294.676 200.164L317.066 202.875C317.308 200.938 317.501 198.954 317.647 196.993L295.16 195.274C295.039 196.92 294.894 198.566 294.676 200.164Z" fill="url(#paint24_linear_1033_6682)"/>
<path d="M272.504 253.972L290.295 267.818C291.505 266.268 292.691 264.671 293.829 263.073L275.433 250.051C274.489 251.358 273.496 252.689 272.504 253.972Z" fill="url(#paint25_linear_1033_6682)"/>
<path d="M268.728 84.026C267.203 82.7916 265.63 81.5813 264.032 80.4194L250.695 98.5977C252.002 99.5659 253.309 100.558 254.592 101.575L268.728 84.026Z" fill="url(#paint26_linear_1033_6682)"/>
<path d="M257.521 75.9658L245.297 94.9186C246.677 95.79 248.032 96.734 249.363 97.6781L262.41 79.3062C260.837 78.1443 259.167 77.0309 257.521 75.9658Z" fill="url(#paint27_linear_1033_6682)"/>
<path d="M243.77 68.2202L233.895 88.5043C235.371 89.2063 236.823 89.9809 238.252 90.7554L249.023 70.9554C247.304 69.9872 245.537 69.0674 243.77 68.2202Z" fill="url(#paint28_linear_1033_6682)"/>
<path d="M295.476 187.117L318.035 187.165C318.035 185.205 318.011 183.22 317.914 181.259L295.379 182.203C295.452 183.825 295.5 185.471 295.476 187.117Z" fill="url(#paint29_linear_1033_6682)"/>
<path d="M254.133 272.538L268.172 290.184C269.697 288.973 271.246 287.69 272.723 286.407L257.909 269.391C256.674 270.456 255.416 271.521 254.133 272.538Z" fill="url(#paint30_linear_1033_6682)"/>
<path d="M263.859 263.799L279.883 279.654C281.263 278.274 282.619 276.822 283.95 275.345L267.248 260.241C266.135 261.451 264.997 262.638 263.859 263.799Z" fill="url(#paint31_linear_1033_6682)"/>
<path d="M268.34 259.007L285.284 273.893C286.567 272.417 287.849 270.892 289.084 269.367L271.487 255.255C270.47 256.514 269.405 257.797 268.34 259.007Z" fill="url(#paint32_linear_1033_6682)"/>
<path d="M259.141 268.302L274.196 285.076C275.673 283.769 277.101 282.413 278.505 281.034L262.723 264.937C261.561 266.099 260.351 267.212 259.141 268.302Z" fill="url(#paint33_linear_1033_6682)"/>
<path d="M250.765 71.875L239.703 91.5298C241.131 92.3286 242.535 93.1757 243.915 94.0229L255.848 74.9007C254.178 73.8598 252.459 72.8432 250.765 71.875Z" fill="url(#paint34_linear_1033_6682)"/>
<path d="M101.25 255.86L83.75 270.093C84.9845 271.618 86.2674 273.119 87.5745 274.595L104.421 259.588C103.356 258.378 102.291 257.119 101.25 255.86Z" fill="#6ED3FF"/>
<path d="M264.275 110.41L280.396 94.6279C279.016 93.224 277.588 91.8443 276.16 90.4888L260.766 106.948C261.952 108.062 263.138 109.224 264.275 110.41Z" fill="url(#paint35_linear_1033_6682)"/>
<path d="M268.729 115.202L285.746 100.413C284.463 98.9364 283.132 97.4599 281.776 96.0317L265.438 111.572C266.527 112.758 267.64 113.968 268.729 115.202Z" fill="url(#paint36_linear_1033_6682)"/>
<path d="M272.863 120.262L290.727 106.513C289.516 104.964 288.282 103.415 287.023 101.914L269.789 116.437C270.83 117.696 271.847 118.979 272.863 120.262Z" fill="url(#paint37_linear_1033_6682)"/>
<path d="M115.773 103.148L101.25 85.8899C99.7492 87.1486 98.2484 88.4557 96.8203 89.787L112.094 106.392C113.304 105.278 114.539 104.189 115.773 103.148Z" fill="#6ED3FF"/>
<path d="M106.284 112.153L89.8244 96.7339C88.4931 98.162 87.1618 99.6385 85.8789 101.139L103.016 115.808C104.081 114.573 105.171 113.339 106.284 112.153Z" fill="#6ED3FF"/>
<path d="M110.907 107.505L95.3914 91.1426C93.9633 92.4981 92.5594 93.902 91.1797 95.3059L107.397 110.967C108.559 109.781 109.721 108.619 110.907 107.505Z" fill="#6ED3FF"/>
<path d="M94.2066 127.596L75.278 115.348C74.2129 116.994 73.1721 118.688 72.1797 120.383L91.6408 131.759C92.4638 130.38 93.3352 128.976 94.2066 127.596Z" fill="#6ED3FF"/>
<path d="M101.952 117.042L84.5972 102.64C83.3385 104.14 82.104 105.714 80.918 107.263L98.8784 120.891C99.895 119.608 100.912 118.301 101.952 117.042Z" fill="#6ED3FF"/>
<path d="M276.692 125.563L295.355 112.903C294.265 111.282 293.103 109.66 291.917 108.086L273.836 121.569C274.828 122.876 275.772 124.231 276.692 125.563Z" fill="url(#paint38_linear_1033_6682)"/>
<path d="M97.9342 122.222L79.7559 108.861C78.5941 110.434 77.4564 112.08 76.3672 113.702L95.1264 126.216C96.022 124.861 96.966 123.529 97.9342 122.222Z" fill="#6ED3FF"/>
<path d="M292.45 161.193L314.38 155.916C313.92 154.004 313.412 152.092 312.855 150.204L291.191 156.449C291.651 158.022 292.063 159.595 292.45 161.193Z" fill="url(#paint39_linear_1033_6682)"/>
<path d="M294.748 174.046L317.138 171.431C316.92 169.471 316.63 167.51 316.315 165.574L294.07 169.205C294.312 170.778 294.554 172.424 294.748 174.046Z" fill="url(#paint40_linear_1033_6682)"/>
<path d="M293.781 167.583L315.977 163.637C315.638 161.701 315.251 159.74 314.815 157.828L292.812 162.766C293.176 164.364 293.514 165.985 293.781 167.583Z" fill="url(#paint41_linear_1033_6682)"/>
<path d="M295.305 180.557L317.816 179.274C317.695 177.314 317.55 175.329 317.356 173.393L294.918 175.668C295.087 177.29 295.208 178.936 295.305 180.557Z" fill="url(#paint42_linear_1033_6682)"/>
<path d="M288.623 148.703L309.755 140.812C309.077 138.973 308.326 137.133 307.576 135.342L286.832 144.153C287.461 145.653 288.067 147.178 288.623 148.703Z" fill="url(#paint43_linear_1033_6682)"/>
<path d="M286.179 142.652L306.802 133.526C306.004 131.735 305.156 129.92 304.285 128.177L284.098 138.222C284.824 139.674 285.526 141.175 286.179 142.652Z" fill="url(#paint44_linear_1033_6682)"/>
<path d="M283.347 136.77L303.389 126.434C302.494 124.691 301.55 122.949 300.557 121.254L281.023 132.485C281.822 133.889 282.621 135.342 283.347 136.77Z" fill="url(#paint45_linear_1033_6682)"/>
<path d="M280.199 131.082L299.588 119.56C298.571 117.865 297.53 116.195 296.465 114.549L277.609 126.918C278.481 128.274 279.352 129.678 280.199 131.082Z" fill="url(#paint46_linear_1033_6682)"/>
<path d="M290.729 154.875L312.296 148.291C311.715 146.428 311.11 144.54 310.432 142.676L289.18 150.228C289.736 151.753 290.245 153.326 290.729 154.875Z" fill="url(#paint47_linear_1033_6682)"/>
<path d="M259.579 105.859L274.732 89.1578C273.279 87.8265 271.779 86.5436 270.254 85.2849L255.852 102.64C257.11 103.681 258.369 104.77 259.579 105.859Z" fill="url(#paint48_linear_1033_6682)"/>
<path d="M84.6947 227.879L63.7812 236.327C64.5074 238.142 65.3062 239.957 66.1292 241.749L86.6311 232.357C85.9534 230.88 85.324 229.38 84.6947 227.879Z" fill="#6ED3FF"/>
<path d="M90.8173 133.187L71.1867 122.101C70.2185 123.82 69.2745 125.563 68.3789 127.33L88.4936 137.52C89.244 136.068 90.0185 134.616 90.8173 133.187Z" fill="#6ED3FF"/>
<path d="M80.5302 215.486L58.7695 221.368C59.2778 223.256 59.8346 225.168 60.4397 227.056L81.9099 220.206C81.4258 218.632 80.9659 217.059 80.5302 215.486Z" fill="#6ED3FF"/>
<path d="M79.0284 209.12L56.9531 213.694C57.3404 215.631 57.8003 217.567 58.2844 219.455L80.1419 213.888C79.7304 212.339 79.3673 210.717 79.0284 209.12Z" fill="#6ED3FF"/>
<path d="M77.1657 196.194L54.7031 198.082C54.8726 200.043 55.0904 202.027 55.3325 203.964L77.6982 201.059C77.4562 199.462 77.2868 197.816 77.1657 196.194Z" fill="#6ED3FF"/>
<path d="M77.8916 202.705L55.5742 205.925C55.8647 207.861 56.1794 209.822 56.5424 211.758L78.6904 207.522C78.3999 205.925 78.1336 204.303 77.8916 202.705Z" fill="#6ED3FF"/>
<path d="M97.2797 250.68L78.9805 263.848C80.1181 265.445 81.3284 267.019 82.5387 268.568L100.233 254.601C99.2162 253.319 98.2237 251.987 97.2797 250.68Z" fill="#6ED3FF"/>
<path d="M93.6278 245.258L74.5781 257.313C75.619 258.959 76.7324 260.629 77.8459 262.226L96.3388 249.349C95.419 247.994 94.4992 246.638 93.6278 245.258Z" fill="#6ED3FF"/>
<path d="M90.3063 239.643L70.5547 250.535C71.4987 252.254 72.4911 253.972 73.532 255.642L92.7752 243.879C91.928 242.475 91.0809 241.071 90.3063 239.643Z" fill="#6ED3FF"/>
<path d="M87.3333 233.833L66.9766 243.539C67.8238 245.306 68.7194 247.073 69.6392 248.816L89.536 238.214C88.7614 236.762 88.0353 235.31 87.3333 233.833Z" fill="#6ED3FF"/>
<path d="M82.4437 221.73L61.0703 228.919C61.6997 230.783 62.3774 232.647 63.0794 234.487L84.1138 226.354C83.5087 224.829 82.952 223.28 82.4437 221.73Z" fill="#6ED3FF"/>
<path d="M80.7981 157.32L59.0859 151.244C58.5534 153.132 58.0693 155.069 57.6094 156.981L79.5637 162.064C79.9509 160.491 80.3624 158.893 80.7981 157.32Z" fill="#6ED3FF"/>
<path d="M85.0803 144.975L64.2637 136.334C63.5133 138.149 62.7871 140.013 62.1094 141.853L83.3133 149.55C83.87 148.001 84.451 146.476 85.0803 144.975Z" fill="#6ED3FF"/>
<path d="M82.7568 151.099L61.456 143.717C60.8267 145.581 60.1973 147.469 59.6406 149.357L81.256 155.771C81.7159 154.198 82.2243 152.624 82.7568 151.099Z" fill="#6ED3FF"/>
<path d="M87.7679 138.996L67.508 129.121C66.6366 130.888 65.8136 132.703 65.0391 134.518L85.7347 143.474C86.364 141.974 87.066 140.473 87.7679 138.996Z" fill="#6ED3FF"/>
<path d="M76.7782 186.27V185.761C76.7782 184.89 76.8024 183.994 76.8266 183.123L54.2914 182.348C54.2672 183.413 54.243 184.454 54.2188 185.519V186.124C54.2188 186.826 54.2188 187.553 54.2188 188.254L76.754 188.037C76.754 187.432 76.754 186.851 76.7782 186.27Z" fill="#6ED3FF"/>
<path d="M77.2405 176.588L54.8021 174.506C54.6085 176.442 54.4632 178.427 54.3906 180.388L76.9016 181.477C76.9743 179.855 77.0953 178.209 77.2405 176.588Z" fill="#6ED3FF"/>
<path d="M76.8008 189.658L54.2656 190.215C54.314 192.176 54.4109 194.16 54.5319 196.121L77.0187 194.572C76.9219 192.95 76.8493 191.304 76.8008 189.658Z" fill="#6ED3FF"/>
<path d="M79.2224 163.662L57.1955 158.894C56.784 160.806 56.3967 162.766 56.082 164.703L78.3026 168.479C78.5688 166.881 78.8835 165.26 79.2224 163.662Z" fill="#6ED3FF"/>
<path d="M78.0357 170.101L55.7668 166.664C55.4763 168.6 55.21 170.585 54.9922 172.521L77.4064 174.942C77.5758 173.344 77.7937 171.698 78.0357 170.101Z" fill="#6ED3FF"/>
<path d="M196.304 234.608C194.73 234.148 193.423 232.938 192.915 231.268L153.363 100.389C152.564 97.7749 154.065 94.9913 156.679 94.2167C159.294 93.418 162.077 94.9187 162.852 97.5329L202.403 228.411C203.202 231.026 201.701 233.809 199.087 234.584C198.143 234.874 197.175 234.874 196.304 234.608Z" fill="url(#paint49_linear_1033_6682)"/>
<path d="M187.598 201.786C186.635 201.505 185.836 200.764 185.525 199.742L161.334 119.644C160.846 118.044 161.764 116.341 163.363 115.867C164.962 115.378 166.664 116.296 167.138 117.896L191.329 197.994C191.817 199.594 190.899 201.297 189.3 201.771C188.723 201.949 188.131 201.949 187.598 201.786Z" fill="#111B79"/>
<g filter="url(#filter4_f_1033_6682)">
<path d="M194.394 172.424C191.537 170.682 188.342 169.762 185.075 169.762C183.695 169.762 182.315 169.931 180.936 170.246C176.312 171.335 172.391 174.167 169.898 178.234C167.405 182.276 166.63 187.069 167.719 191.692C168.809 196.315 171.641 200.236 175.707 202.729C179.749 205.223 184.542 205.997 189.165 204.908C193.789 203.819 197.71 200.987 200.203 196.92C202.696 192.878 203.471 188.085 202.382 183.462C201.292 178.839 198.46 174.917 194.394 172.424Z" fill="#8000FF"/>
</g>
<path d="M194.394 172.424C191.537 170.682 188.342 169.762 185.075 169.762C183.695 169.762 182.315 169.931 180.936 170.246C176.312 171.335 172.391 174.167 169.898 178.234C167.405 182.276 166.63 187.069 167.719 191.692C168.809 196.315 171.641 200.236 175.707 202.729C179.749 205.223 184.542 205.997 189.165 204.908C193.789 203.819 197.71 200.987 200.203 196.92C202.696 192.878 203.471 188.085 202.382 183.462C201.292 178.839 198.46 174.917 194.394 172.424Z" fill="white"/>
<g filter="url(#filter5_f_1033_6682)">
<path d="M194.394 172.424C191.537 170.682 188.342 169.762 185.075 169.762C183.695 169.762 182.315 169.931 180.936 170.246C176.312 171.335 172.391 174.167 169.898 178.234C167.405 182.276 166.63 187.069 167.719 191.692C168.809 196.315 171.641 200.236 175.707 202.729C179.749 205.223 184.542 205.997 189.165 204.908C193.789 203.819 197.71 200.987 200.203 196.92C202.696 192.878 203.471 188.085 202.382 183.462C201.292 178.839 198.46 174.917 194.394 172.424Z" fill="white"/>
</g>
<path d="M207.659 182.227C206.231 176.2 202.527 171.093 197.25 167.825C186.358 161.096 172.028 164.509 165.299 175.402C162.056 180.678 161.039 186.899 162.467 192.95C163.895 198.978 167.599 204.109 172.875 207.353C176.579 209.628 180.766 210.814 185.002 210.814C186.794 210.814 188.609 210.596 190.4 210.185C196.427 208.757 201.535 205.053 204.802 199.776C208.07 194.5 209.087 188.255 207.659 182.227ZM202.527 198.348C196.597 207.982 183.962 210.983 174.304 205.053C164.67 199.123 161.668 186.488 167.599 176.83C173.553 167.196 186.164 164.194 195.822 170.125C205.456 176.079 208.457 188.714 202.527 198.348Z" fill="#683AF2"/>
<path d="M195.822 170.125C186.188 164.17 173.553 167.172 167.599 176.83C161.644 186.463 164.646 199.099 174.304 205.053C183.937 211.008 196.573 208.006 202.527 198.348C208.457 188.715 205.456 176.079 195.822 170.125ZM200.228 196.92C197.734 200.962 193.813 203.794 189.19 204.908C184.567 205.997 179.774 205.247 175.732 202.729C171.689 200.236 168.857 196.315 167.744 191.692C166.655 187.069 167.405 182.276 169.922 178.234C172.416 174.191 176.337 171.359 180.96 170.246C182.34 169.931 183.719 169.762 185.099 169.762C188.367 169.762 191.562 170.657 194.418 172.424C198.461 174.917 201.293 178.839 202.406 183.462C203.471 188.109 202.721 192.878 200.228 196.92Z" fill="#1C31F0"/>
<path d="M158.423 103.197C160.148 103.197 161.546 101.799 161.546 100.074C161.546 98.3497 160.148 96.9517 158.423 96.9517C156.699 96.9517 155.301 98.3497 155.301 100.074C155.301 101.799 156.699 103.197 158.423 103.197Z" fill="white"/>
</g>
</g>
<path d="M361.602 183.875C361.44 160.609 356.696 137.602 347.642 116.17C338.589 94.7371 325.402 75.2971 308.835 58.9604C292.269 42.6237 272.646 29.71 251.089 20.9565C229.531 12.2031 206.461 7.78133 183.194 7.94376C159.928 8.10619 136.921 12.8496 115.488 21.9032C94.0552 30.9568 74.6148 44.1432 58.2779 60.7096C41.9409 77.276 29.0269 96.8983 20.2733 118.455C11.5197 140.012 7.09789 163.082 7.26032 186.348C7.42275 209.615 12.1663 232.621 21.22 254.054C30.2737 275.486 43.4603 294.926 60.0271 311.263C76.5938 327.6 96.2163 340.513 117.773 349.266C139.331 358.02 162.402 362.442 185.668 362.279C208.934 362.117 231.941 357.373 253.375 348.32C274.807 339.267 294.247 326.08 310.585 309.514C326.922 292.947 339.836 273.325 348.589 251.768C357.342 230.211 361.764 207.141 361.602 183.875Z" stroke="#6ED3FF" stroke-width="14.1903" stroke-dasharray="0.71 8.87"/>
<defs>
<filter id="filter0_dddd_1033_6682" x="1.40625" y="26.1631" width="369.473" height="369.472" filterUnits="userSpaceOnUse" color-interpolation-filters="sRGB">
<feFlood flood-opacity="0" result="BackgroundImageFix"/>
<feColorMatrix in="SourceAlpha" type="matrix" values="0 0 0 0 0 0 0 0 0 0 0 0 0 0 0 0 0 0 127 0" result="hardAlpha"/>
<feOffset dy="24"/>
<feGaussianBlur stdDeviation="16"/>
<feColorMatrix type="matrix" values="0 0 0 0 0.196487 0 0 0 0 0.196487 0 0 0 0 0.279476 0 0 0 0.08 0"/>
<feBlend mode="multiply" in2="BackgroundImageFix" result="effect1_dropShadow_1033_6682"/>
<feColorMatrix in="SourceAlpha" type="matrix" values="0 0 0 0 0 0 0 0 0 0 0 0 0 0 0 0 0 0 127 0" result="hardAlpha"/>
<feOffset dy="16"/>
<feGaussianBlur stdDeviation="8"/>
<feColorMatrix type="matrix" values="0 0 0 0 0.196487 0 0 0 0 0.196487 0 0 0 0 0.279476 0 0 0 0.08 0"/>
<feBlend mode="multiply" in2="effect1_dropShadow_1033_6682" result="effect2_dropShadow_1033_6682"/>
<feColorMatrix in="SourceAlpha" type="matrix" values="0 0 0 0 0 0 0 0 0 0 0 0 0 0 0 0 0 0 127 0" result="hardAlpha"/>
<feOffset dy="24"/>
<feGaussianBlur stdDeviation="16"/>
<feColorMatrix type="matrix" values="0 0 0 0 0.196487 0 0 0 0 0.196487 0 0 0 0 0.279476 0 0 0 0.08 0"/>
<feBlend mode="multiply" in2="effect2_dropShadow_1033_6682" result="effect3_dropShadow_1033_6682"/>
<feColorMatrix in="SourceAlpha" type="matrix" values="0 0 0 0 0 0 0 0 0 0 0 0 0 0 0 0 0 0 127 0" result="hardAlpha"/>
<feOffset dy="16"/>
<feGaussianBlur stdDeviation="8"/>
<feColorMatrix type="matrix" values="0 0 0 0 0.196487 0 0 0 0 0.196487 0 0 0 0 0.279476 0 0 0 0.08 0"/>
<feBlend mode="multiply" in2="effect3_dropShadow_1033_6682" result="effect4_dropShadow_1033_6682"/>
<feBlend mode="normal" in="SourceGraphic" in2="effect4_dropShadow_1033_6682" result="shape"/>
</filter>
<filter id="filter1_f_1033_6682" x="15.0878" y="16.0897" width="343.824" height="315.46" filterUnits="userSpaceOnUse" color-interpolation-filters="sRGB">
<feFlood flood-opacity="0" result="BackgroundImageFix"/>
<feBlend mode="normal" in="SourceGraphic" in2="BackgroundImageFix" result="shape"/>
<feGaussianBlur stdDeviation="19.3643" result="effect1_foregroundBlur_1033_6682"/>
</filter>
<filter id="filter2_f_1033_6682" x="40.8164" y="44.8169" width="292.367" height="264.003" filterUnits="userSpaceOnUse" color-interpolation-filters="sRGB">
<feFlood flood-opacity="0" result="BackgroundImageFix"/>
<feBlend mode="normal" in="SourceGraphic" in2="BackgroundImageFix" result="shape"/>
<feGaussianBlur stdDeviation="6.5" result="effect1_foregroundBlur_1033_6682"/>
</filter>
<filter id="filter3_d_1033_6682" x="45.2628" y="38.0357" width="281.244" height="253.213" filterUnits="userSpaceOnUse" color-interpolation-filters="sRGB">
<feFlood flood-opacity="0" result="BackgroundImageFix"/>
<feColorMatrix in="SourceAlpha" type="matrix" values="0 0 0 0 0 0 0 0 0 0 0 0 0 0 0 0 0 0 127 0" result="hardAlpha"/>
<feOffset dx="-0.242054" dy="-8.22983"/>
<feGaussianBlur stdDeviation="4.35697"/>
<feComposite in2="hardAlpha" operator="out"/>
<feColorMatrix type="matrix" values="0 0 0 0 0 0 0 0 0 0 0 0 0 0 0 0 0 0 0.25 0"/>
<feBlend mode="normal" in2="BackgroundImageFix" result="effect1_dropShadow_1033_6682"/>
<feBlend mode="normal" in="SourceGraphic" in2="effect1_dropShadow_1033_6682" result="shape"/>
</filter>
<filter id="filter4_f_1033_6682" x="84.2383" y="86.7617" width="201.625" height="201.627" filterUnits="userSpaceOnUse" color-interpolation-filters="sRGB">
<feFlood flood-opacity="0" result="BackgroundImageFix"/>
<feBlend mode="normal" in="SourceGraphic" in2="BackgroundImageFix" result="shape"/>
<feGaussianBlur stdDeviation="41.5" result="effect1_foregroundBlur_1033_6682"/>
</filter>
<filter id="filter5_f_1033_6682" x="92.2383" y="94.7617" width="185.625" height="185.627" filterUnits="userSpaceOnUse" color-interpolation-filters="sRGB">
<feFlood flood-opacity="0" result="BackgroundImageFix"/>
<feBlend mode="normal" in="SourceGraphic" in2="BackgroundImageFix" result="shape"/>
<feGaussianBlur stdDeviation="37.5" result="effect1_foregroundBlur_1033_6682"/>
</filter>
<radialGradient id="paint0_radial_1033_6682" cx="0" cy="0" r="1" gradientUnits="userSpaceOnUse" gradientTransform="translate(186.142 186.899) rotate(90) scale(152.736)">
<stop stop-color="#1C1C24"/>
<stop offset="1" stop-color="#020734"/>
</radialGradient>
<linearGradient id="paint1_linear_1033_6682" x1="102.389" y1="281.905" x2="301.236" y2="105.569" gradientUnits="userSpaceOnUse">
<stop stop-color="#6ED3FF"/>
<stop offset="1" stop-color="#0099FF"/>
</linearGradient>
<linearGradient id="paint2_linear_1033_6682" x1="185.57" y1="54.9795" x2="185.57" y2="77.5631" gradientUnits="userSpaceOnUse">
<stop stop-color="#861CF0"/>
<stop offset="1" stop-color="white"/>
</linearGradient>
<linearGradient id="paint3_linear_1033_6682" x1="178.163" y1="55.0764" x2="178.163" y2="77.9263" gradientUnits="userSpaceOnUse">
<stop stop-color="#861CF0"/>
<stop offset="1" stop-color="white"/>
</linearGradient>
<linearGradient id="paint4_linear_1033_6682" x1="193.086" y1="55.0522" x2="193.086" y2="77.8537" gradientUnits="userSpaceOnUse">
<stop stop-color="#861CF0"/>
<stop offset="1" stop-color="white"/>
</linearGradient>
<linearGradient id="paint5_linear_1033_6682" x1="170.976" y1="55.6333" x2="170.976" y2="78.6768" gradientUnits="userSpaceOnUse">
<stop stop-color="#861CF0"/>
<stop offset="1" stop-color="white"/>
</linearGradient>
<linearGradient id="paint6_linear_1033_6682" x1="163.856" y1="56.6738" x2="163.856" y2="79.8142" gradientUnits="userSpaceOnUse">
<stop stop-color="#861CF0"/>
<stop offset="1" stop-color="white"/>
</linearGradient>
<linearGradient id="paint7_linear_1033_6682" x1="221.405" y1="59.8208" x2="221.405" y2="82.9612" gradientUnits="userSpaceOnUse">
<stop stop-color="#861CF0"/>
<stop offset="1" stop-color="white"/>
</linearGradient>
<linearGradient id="paint8_linear_1033_6682" x1="156.814" y1="58.1504" x2="156.814" y2="81.3392" gradientUnits="userSpaceOnUse">
<stop stop-color="#861CF0"/>
<stop offset="1" stop-color="white"/>
</linearGradient>
<linearGradient id="paint9_linear_1033_6682" x1="214.444" y1="57.9326" x2="214.444" y2="81.1214" gradientUnits="userSpaceOnUse">
<stop stop-color="#861CF0"/>
<stop offset="1" stop-color="white"/>
</linearGradient>
<linearGradient id="paint10_linear_1033_6682" x1="207.389" y1="56.5044" x2="207.389" y2="79.6447" gradientUnits="userSpaceOnUse">
<stop stop-color="#861CF0"/>
<stop offset="1" stop-color="white"/>
</linearGradient>
<linearGradient id="paint11_linear_1033_6682" x1="228.244" y1="62.1689" x2="228.244" y2="85.2125" gradientUnits="userSpaceOnUse">
<stop stop-color="#861CF0"/>
<stop offset="1" stop-color="white"/>
</linearGradient>
<linearGradient id="paint12_linear_1033_6682" x1="200.274" y1="55.5361" x2="200.274" y2="78.5555" gradientUnits="userSpaceOnUse">
<stop stop-color="#861CF0"/>
<stop offset="1" stop-color="white"/>
</linearGradient>
<linearGradient id="paint13_linear_1033_6682" x1="149.868" y1="60.1111" x2="149.868" y2="83.2514" gradientUnits="userSpaceOnUse">
<stop stop-color="#861CF0"/>
<stop offset="1" stop-color="white"/>
</linearGradient>
<linearGradient id="paint14_linear_1033_6682" x1="294.409" y1="233.059" x2="294.409" y2="247.921" gradientUnits="userSpaceOnUse">
<stop stop-color="#861CF0"/>
<stop offset="1" stop-color="white"/>
</linearGradient>
<linearGradient id="paint15_linear_1033_6682" x1="297.398" y1="227.056" x2="297.398" y2="240.804" gradientUnits="userSpaceOnUse">
<stop stop-color="#861CF0"/>
<stop offset="1" stop-color="white"/>
</linearGradient>
<linearGradient id="paint16_linear_1033_6682" x1="300.01" y1="220.908" x2="300.01" y2="233.495" gradientUnits="userSpaceOnUse">
<stop stop-color="#861CF0"/>
<stop offset="1" stop-color="white"/>
</linearGradient>
<linearGradient id="paint17_linear_1033_6682" x1="302.192" y1="214.614" x2="302.192" y2="225.991" gradientUnits="userSpaceOnUse">
<stop stop-color="#861CF0"/>
<stop offset="1" stop-color="white"/>
</linearGradient>
<linearGradient id="paint18_linear_1033_6682" x1="287.292" y1="244.556" x2="287.292" y2="261.427" gradientUnits="userSpaceOnUse">
<stop stop-color="#861CF0"/>
<stop offset="1" stop-color="white"/>
</linearGradient>
<linearGradient id="paint19_linear_1033_6682" x1="291.033" y1="238.892" x2="291.033" y2="254.795" gradientUnits="userSpaceOnUse">
<stop stop-color="#861CF0"/>
<stop offset="1" stop-color="white"/>
</linearGradient>
<linearGradient id="paint20_linear_1033_6682" x1="303.946" y1="208.224" x2="303.946" y2="218.39" gradientUnits="userSpaceOnUse">
<stop stop-color="#861CF0"/>
<stop offset="1" stop-color="white"/>
</linearGradient>
<linearGradient id="paint21_linear_1033_6682" x1="234.973" y1="64.9521" x2="234.973" y2="87.7778" gradientUnits="userSpaceOnUse">
<stop stop-color="#861CF0"/>
<stop offset="1" stop-color="white"/>
</linearGradient>
<linearGradient id="paint22_linear_1033_6682" x1="306.646" y1="188.763" x2="306.646" y2="195.032" gradientUnits="userSpaceOnUse">
<stop stop-color="#861CF0"/>
<stop offset="1" stop-color="white"/>
</linearGradient>
<linearGradient id="paint23_linear_1033_6682" x1="305.253" y1="201.785" x2="305.253" y2="210.669" gradientUnits="userSpaceOnUse">
<stop stop-color="#861CF0"/>
<stop offset="1" stop-color="white"/>
</linearGradient>
<linearGradient id="paint24_linear_1033_6682" x1="306.161" y1="195.274" x2="306.161" y2="202.875" gradientUnits="userSpaceOnUse">
<stop stop-color="#861CF0"/>
<stop offset="1" stop-color="white"/>
</linearGradient>
<linearGradient id="paint25_linear_1033_6682" x1="283.166" y1="250.051" x2="283.166" y2="267.818" gradientUnits="userSpaceOnUse">
<stop stop-color="#861CF0"/>
<stop offset="1" stop-color="white"/>
</linearGradient>
<linearGradient id="paint26_linear_1033_6682" x1="259.712" y1="80.4194" x2="259.712" y2="101.575" gradientUnits="userSpaceOnUse">
<stop stop-color="#861CF0"/>
<stop offset="1" stop-color="white"/>
</linearGradient>
<linearGradient id="paint27_linear_1033_6682" x1="253.853" y1="75.9658" x2="253.853" y2="97.6781" gradientUnits="userSpaceOnUse">
<stop stop-color="#861CF0"/>
<stop offset="1" stop-color="white"/>
</linearGradient>
<linearGradient id="paint28_linear_1033_6682" x1="241.459" y1="68.2202" x2="241.459" y2="90.7554" gradientUnits="userSpaceOnUse">
<stop stop-color="#861CF0"/>
<stop offset="1" stop-color="white"/>
</linearGradient>
<linearGradient id="paint29_linear_1033_6682" x1="306.707" y1="181.259" x2="306.707" y2="187.165" gradientUnits="userSpaceOnUse">
<stop stop-color="#861CF0"/>
<stop offset="1" stop-color="white"/>
</linearGradient>
<linearGradient id="paint30_linear_1033_6682" x1="263.428" y1="269.391" x2="263.428" y2="290.184" gradientUnits="userSpaceOnUse">
<stop stop-color="#861CF0"/>
<stop offset="1" stop-color="white"/>
</linearGradient>
<linearGradient id="paint31_linear_1033_6682" x1="273.905" y1="260.241" x2="273.905" y2="279.654" gradientUnits="userSpaceOnUse">
<stop stop-color="#861CF0"/>
<stop offset="1" stop-color="white"/>
</linearGradient>
<linearGradient id="paint32_linear_1033_6682" x1="278.712" y1="255.255" x2="278.712" y2="273.893" gradientUnits="userSpaceOnUse">
<stop stop-color="#861CF0"/>
<stop offset="1" stop-color="white"/>
</linearGradient>
<linearGradient id="paint33_linear_1033_6682" x1="268.823" y1="264.937" x2="268.823" y2="285.076" gradientUnits="userSpaceOnUse">
<stop stop-color="#861CF0"/>
<stop offset="1" stop-color="white"/>
</linearGradient>
<linearGradient id="paint34_linear_1033_6682" x1="247.776" y1="71.875" x2="247.776" y2="94.0229" gradientUnits="userSpaceOnUse">
<stop stop-color="#861CF0"/>
<stop offset="1" stop-color="white"/>
</linearGradient>
<linearGradient id="paint35_linear_1033_6682" x1="270.581" y1="90.4888" x2="270.581" y2="110.41" gradientUnits="userSpaceOnUse">
<stop stop-color="#861CF0"/>
<stop offset="1" stop-color="white"/>
</linearGradient>
<linearGradient id="paint36_linear_1033_6682" x1="275.592" y1="96.0317" x2="275.592" y2="115.202" gradientUnits="userSpaceOnUse">
<stop stop-color="#861CF0"/>
<stop offset="1" stop-color="white"/>
</linearGradient>
<linearGradient id="paint37_linear_1033_6682" x1="280.258" y1="101.914" x2="280.258" y2="120.262" gradientUnits="userSpaceOnUse">
<stop stop-color="#861CF0"/>
<stop offset="1" stop-color="white"/>
</linearGradient>
<linearGradient id="paint38_linear_1033_6682" x1="284.595" y1="108.086" x2="284.595" y2="125.563" gradientUnits="userSpaceOnUse">
<stop stop-color="#861CF0"/>
<stop offset="1" stop-color="white"/>
</linearGradient>
<linearGradient id="paint39_linear_1033_6682" x1="302.786" y1="150.204" x2="302.786" y2="161.193" gradientUnits="userSpaceOnUse">
<stop stop-color="#861CF0"/>
<stop offset="1" stop-color="white"/>
</linearGradient>
<linearGradient id="paint40_linear_1033_6682" x1="305.604" y1="165.574" x2="305.604" y2="174.046" gradientUnits="userSpaceOnUse">
<stop stop-color="#861CF0"/>
<stop offset="1" stop-color="white"/>
</linearGradient>
<linearGradient id="paint41_linear_1033_6682" x1="304.395" y1="157.828" x2="304.395" y2="167.583" gradientUnits="userSpaceOnUse">
<stop stop-color="#861CF0"/>
<stop offset="1" stop-color="white"/>
</linearGradient>
<linearGradient id="paint42_linear_1033_6682" x1="306.367" y1="173.393" x2="306.367" y2="180.557" gradientUnits="userSpaceOnUse">
<stop stop-color="#861CF0"/>
<stop offset="1" stop-color="white"/>
</linearGradient>
<linearGradient id="paint43_linear_1033_6682" x1="298.293" y1="135.342" x2="298.293" y2="148.703" gradientUnits="userSpaceOnUse">
<stop stop-color="#861CF0"/>
<stop offset="1" stop-color="white"/>
</linearGradient>
<linearGradient id="paint44_linear_1033_6682" x1="295.45" y1="128.177" x2="295.45" y2="142.652" gradientUnits="userSpaceOnUse">
<stop stop-color="#861CF0"/>
<stop offset="1" stop-color="white"/>
</linearGradient>
<linearGradient id="paint45_linear_1033_6682" x1="292.206" y1="121.254" x2="292.206" y2="136.77" gradientUnits="userSpaceOnUse">
<stop stop-color="#861CF0"/>
<stop offset="1" stop-color="white"/>
</linearGradient>
<linearGradient id="paint46_linear_1033_6682" x1="288.599" y1="114.549" x2="288.599" y2="131.082" gradientUnits="userSpaceOnUse">
<stop stop-color="#861CF0"/>
<stop offset="1" stop-color="white"/>
</linearGradient>
<linearGradient id="paint47_linear_1033_6682" x1="300.738" y1="142.676" x2="300.738" y2="154.875" gradientUnits="userSpaceOnUse">
<stop stop-color="#861CF0"/>
<stop offset="1" stop-color="white"/>
</linearGradient>
<linearGradient id="paint48_linear_1033_6682" x1="265.292" y1="85.2849" x2="265.292" y2="105.859" gradientUnits="userSpaceOnUse">
<stop stop-color="#861CF0"/>
<stop offset="1" stop-color="white"/>
</linearGradient>
<linearGradient id="paint49_linear_1033_6682" x1="158.998" y1="94" x2="197.498" y2="235" gradientUnits="userSpaceOnUse">
<stop stop-color="#861CF0"/>
<stop offset="1" stop-color="#1C31F0"/>
</linearGradient>
</defs>
</svg>
