<svg width="226" height="88" viewBox="0 0 226 88" fill="none" xmlns="http://www.w3.org/2000/svg">
<g filter="url(#filter0_dd_1148_6627)">
<path d="M36.7191 28.3897C36.2816 30.1135 38.117 31.5252 39.6709 30.6602L44.1471 28.1682C44.7632 27.8253 45.5132 27.8269 46.1277 28.1727L50.5912 30.684C52.145 31.5582 53.9895 30.146 53.551 28.418L52.4725 24.1679C52.2778 23.4006 52.5474 22.5901 53.163 22.0923L56.6309 19.2885C58.0539 18.1379 57.3451 15.8397 55.5211 15.6906L50.657 15.293C49.9238 15.2331 49.2805 14.7808 48.9761 14.111L46.9792 9.71741C46.2597 8.13443 44.0121 8.13189 43.289 9.71325L41.3023 14.0582C40.9971 14.7258 40.3549 15.1762 39.6234 15.236L34.7561 15.6339C32.9322 15.783 32.2234 18.0812 33.6464 19.2318L37.1142 22.0356C37.7299 22.5334 37.9995 23.3439 37.8048 24.1112L36.7191 28.3897Z" fill="url(#paint0_linear_1148_6627)"/>
<path d="M39.4243 30.2172C38.2589 30.866 36.8824 29.8072 37.2104 28.5144L38.2962 24.2359C38.5396 23.2767 38.2025 22.2636 37.433 21.6414L33.9651 18.8376C32.8978 17.9746 33.4295 16.251 34.7974 16.1392L39.6647 15.7413C40.5791 15.6666 41.3818 15.1035 41.7633 14.269L43.75 9.92405C44.2923 8.73803 45.978 8.73993 46.5177 9.92717L48.5146 14.3208C48.8951 15.1579 49.6992 15.7234 50.6157 15.7983L55.4798 16.1959C56.8478 16.3077 57.3794 18.0313 56.3121 18.8943L52.8443 21.6981C52.0748 22.3203 51.7377 23.3335 51.9811 24.2926L53.0596 28.5427C53.3885 29.8387 52.0051 30.8978 50.8398 30.2422L46.3763 27.7309C45.6081 27.2987 44.6706 27.2966 43.9005 27.7253L39.4243 30.2172Z" stroke="url(#paint1_linear_1148_6627)" stroke-width="1.01388"/>
</g>
<g filter="url(#filter1_dd_1148_6627)">
<path d="M71.1097 28.3897C70.6723 30.1135 72.5076 31.5252 74.0615 30.6602L78.5377 28.1682C79.1538 27.8253 79.9038 27.8269 80.5183 28.1727L84.9819 30.684C86.5356 31.5582 88.3801 30.146 87.9416 28.418L86.8631 24.1679C86.6684 23.4006 86.938 22.5901 87.5537 22.0923L91.0215 19.2885C92.4445 18.1379 91.7357 15.8397 89.9118 15.6906L85.0476 15.293C84.3144 15.2331 83.6712 14.7808 83.3668 14.111L81.3698 9.7174C80.6503 8.13442 78.4027 8.13189 77.6796 9.71325L75.6929 14.0582C75.3877 14.7258 74.7456 15.1762 74.014 15.236L69.1468 15.6339C67.3228 15.783 66.614 18.0812 68.037 19.2318L71.5049 22.0356C72.1205 22.5334 72.3901 23.3439 72.1954 24.1112L71.1097 28.3897Z" fill="url(#paint2_linear_1148_6627)"/>
<path d="M78.2911 27.7253L73.8149 30.2172C72.6495 30.866 71.273 29.8072 71.6011 28.5144L72.6868 24.2359C72.9302 23.2767 72.5931 22.2636 71.8236 21.6414L68.3558 18.8376C67.2885 17.9746 67.8201 16.251 69.1881 16.1392L74.0553 15.7413C74.9697 15.6666 75.7724 15.1035 76.154 14.269L78.1407 9.92405C78.683 8.73803 80.3687 8.73993 80.9083 9.92717L82.9053 14.3208C83.2858 15.1579 84.0898 15.7234 85.0063 15.7983L89.8705 16.1959C91.2384 16.3077 91.7701 18.0313 90.7028 18.8943L87.2349 21.6981C86.4654 22.3203 86.1283 23.3335 86.3717 24.2926L87.4503 28.5427C87.7791 29.8387 86.3957 30.8978 85.2304 30.2422L80.7669 27.7309C79.9987 27.2987 79.0612 27.2966 78.2911 27.7253Z" stroke="url(#paint3_linear_1148_6627)" stroke-width="1.01388"/>
</g>
<g filter="url(#filter2_dd_1148_6627)">
<path d="M104.618 28.3897C104.18 30.1135 106.015 31.5252 107.569 30.6602L112.046 28.1682C112.662 27.8253 113.412 27.8269 114.026 28.1727L118.49 30.684C120.043 31.5582 121.888 30.146 121.449 28.418L120.371 24.1679C120.176 23.4006 120.446 22.5901 121.061 22.0923L124.529 19.2885C125.952 18.1379 125.244 15.8397 123.42 15.6906L118.555 15.293C117.822 15.2331 117.179 14.7808 116.875 14.111L114.878 9.71741C114.158 8.13443 111.91 8.13189 111.187 9.71325L109.201 14.0582C108.896 14.7258 108.253 15.1762 107.522 15.236L102.655 15.6339C100.831 15.783 100.122 18.0812 101.545 19.2318L105.013 22.0356C105.628 22.5334 105.898 23.3439 105.703 24.1112L104.618 28.3897Z" fill="url(#paint4_linear_1148_6627)"/>
<path d="M107.323 30.2172C106.157 30.866 104.781 29.8072 105.109 28.5144L106.195 24.2359C106.438 23.2767 106.101 22.2636 105.331 21.6414L101.864 18.8376C100.796 17.9746 101.328 16.251 102.696 16.1392L107.563 15.7413C108.478 15.6666 109.28 15.1035 109.662 14.269L111.648 9.92405C112.191 8.73803 113.876 8.73993 114.416 9.92717L116.413 14.3208C116.794 15.1579 117.598 15.7234 118.514 15.7983L123.378 16.1959C124.746 16.3077 125.278 18.0313 124.211 18.8943L120.743 21.6981C119.973 22.3203 119.636 23.3335 119.88 24.2926L120.958 28.5427C121.287 29.8387 119.904 30.8978 118.738 30.2422L114.275 27.7309C113.507 27.2987 112.569 27.2966 111.799 27.7253L107.323 30.2172Z" stroke="url(#paint5_linear_1148_6627)" stroke-width="1.01388"/>
</g>
<g filter="url(#filter3_dd_1148_6627)">
<path d="M139.008 28.3897C138.571 30.1135 140.406 31.5252 141.96 30.6602L146.436 28.1682C147.052 27.8253 147.802 27.8269 148.417 28.1727L152.88 30.684C154.434 31.5582 156.279 30.146 155.84 28.418L154.762 24.1679C154.567 23.4006 154.836 22.5901 155.452 22.0923L158.92 19.2885C160.343 18.1379 159.634 15.8397 157.81 15.6906L152.946 15.293C152.213 15.2331 151.57 14.7808 151.265 14.111L149.268 9.71741C148.549 8.13443 146.301 8.13189 145.578 9.71325L143.591 14.0582C143.286 14.7258 142.644 15.1762 141.912 15.236L137.045 15.6339C135.221 15.783 134.512 18.0812 135.935 19.2318L139.403 22.0356C140.019 22.5334 140.289 23.3439 140.094 24.1112L139.008 28.3897Z" fill="url(#paint6_linear_1148_6627)"/>
<path d="M141.713 30.2172C140.548 30.866 139.171 29.8072 139.499 28.5144L140.585 24.2359C140.829 23.2767 140.492 22.2636 139.722 21.6414L136.254 18.8376C135.187 17.9746 135.719 16.251 137.086 16.1392L141.954 15.7413C142.868 15.6666 143.671 15.1035 144.052 14.269L146.039 9.92405C146.581 8.73803 148.267 8.73993 148.807 9.92717L150.804 14.3208C151.184 15.1579 151.988 15.7234 152.905 15.7983L157.769 16.1959C159.137 16.3077 159.668 18.0313 158.601 18.8943L155.133 21.6981C154.364 22.3203 154.027 23.3335 154.27 24.2926L155.349 28.5427C155.678 29.8387 154.294 30.8978 153.129 30.2422L148.665 27.7309C147.897 27.2987 146.96 27.2966 146.19 27.7253L141.713 30.2172Z" stroke="url(#paint7_linear_1148_6627)" stroke-width="1.01388"/>
</g>
<g filter="url(#filter4_dd_1148_6627)">
<path d="M172.516 28.3897C172.079 30.1135 173.914 31.5252 175.468 30.6602L179.944 28.1682C180.56 27.8253 181.31 27.8269 181.925 28.1727L186.388 30.684C187.942 31.5582 189.786 30.146 189.348 28.418L188.269 24.1679C188.075 23.4006 188.344 22.5901 188.96 22.0923L192.428 19.2885C193.851 18.1379 193.142 15.8397 191.318 15.6906L186.454 15.293C185.721 15.2331 185.077 14.7808 184.773 14.111L182.776 9.7174C182.057 8.13442 179.809 8.13189 179.086 9.71325L177.099 14.0582C176.794 14.7258 176.152 15.1762 175.42 15.236L170.553 15.6339C168.729 15.783 168.02 18.0812 169.443 19.2318L172.911 22.0356C173.527 22.5334 173.796 23.3439 173.602 24.1112L172.516 28.3897Z" fill="url(#paint8_linear_1148_6627)"/>
<path d="M175.221 30.2172C174.056 30.866 172.679 29.8072 173.007 28.5144L174.093 24.2359C174.336 23.2767 173.999 22.2636 173.23 21.6414L169.762 18.8376C168.695 17.9746 169.226 16.251 170.594 16.1392L175.462 15.7413C176.376 15.6666 177.179 15.1035 177.56 14.269L179.547 9.92405C180.089 8.73803 181.775 8.73993 182.315 9.92717L184.312 14.3208C184.692 15.1579 185.496 15.7234 186.413 15.7983L191.277 16.1959C192.645 16.3077 193.176 18.0313 192.109 18.8943L188.641 21.6981C187.872 22.3203 187.535 23.3335 187.778 24.2926L188.857 28.5427C189.185 29.8387 187.802 30.8978 186.637 30.2422L182.173 27.7309C181.405 27.2987 180.467 27.2966 179.697 27.7253L175.221 30.2172Z" stroke="url(#paint9_linear_1148_6627)" stroke-width="1.01388"/>
</g>
<defs>
<filter id="filter0_dd_1148_6627" x="0.446411" y="0.417633" width="89.3845" height="87.3102" filterUnits="userSpaceOnUse" color-interpolation-filters="sRGB">
<feFlood flood-opacity="0" result="BackgroundImageFix"/>
<feColorMatrix in="SourceAlpha" type="matrix" values="0 0 0 0 0 0 0 0 0 0 0 0 0 0 0 0 0 0 127 0" result="hardAlpha"/>
<feOffset dy="24.3332"/>
<feGaussianBlur stdDeviation="16.2221"/>
<feColorMatrix type="matrix" values="0 0 0 0 0.196487 0 0 0 0 0.196487 0 0 0 0 0.279476 0 0 0 0.08 0"/>
<feBlend mode="multiply" in2="BackgroundImageFix" result="effect1_dropShadow_1148_6627"/>
<feColorMatrix in="SourceAlpha" type="matrix" values="0 0 0 0 0 0 0 0 0 0 0 0 0 0 0 0 0 0 127 0" result="hardAlpha"/>
<feOffset dy="16.2221"/>
<feGaussianBlur stdDeviation="8.11105"/>
<feColorMatrix type="matrix" values="0 0 0 0 0.196487 0 0 0 0 0.196487 0 0 0 0 0.279476 0 0 0 0.08 0"/>
<feBlend mode="multiply" in2="effect1_dropShadow_1148_6627" result="effect2_dropShadow_1148_6627"/>
<feBlend mode="normal" in="SourceGraphic" in2="effect2_dropShadow_1148_6627" result="shape"/>
</filter>
<filter id="filter1_dd_1148_6627" x="34.837" y="0.417633" width="89.3845" height="87.3102" filterUnits="userSpaceOnUse" color-interpolation-filters="sRGB">
<feFlood flood-opacity="0" result="BackgroundImageFix"/>
<feColorMatrix in="SourceAlpha" type="matrix" values="0 0 0 0 0 0 0 0 0 0 0 0 0 0 0 0 0 0 127 0" result="hardAlpha"/>
<feOffset dy="24.3332"/>
<feGaussianBlur stdDeviation="16.2221"/>
<feColorMatrix type="matrix" values="0 0 0 0 0.196487 0 0 0 0 0.196487 0 0 0 0 0.279476 0 0 0 0.08 0"/>
<feBlend mode="multiply" in2="BackgroundImageFix" result="effect1_dropShadow_1148_6627"/>
<feColorMatrix in="SourceAlpha" type="matrix" values="0 0 0 0 0 0 0 0 0 0 0 0 0 0 0 0 0 0 127 0" result="hardAlpha"/>
<feOffset dy="16.2221"/>
<feGaussianBlur stdDeviation="8.11105"/>
<feColorMatrix type="matrix" values="0 0 0 0 0.196487 0 0 0 0 0.196487 0 0 0 0 0.279476 0 0 0 0.08 0"/>
<feBlend mode="multiply" in2="effect1_dropShadow_1148_6627" result="effect2_dropShadow_1148_6627"/>
<feBlend mode="normal" in="SourceGraphic" in2="effect2_dropShadow_1148_6627" result="shape"/>
</filter>
<filter id="filter2_dd_1148_6627" x="68.3448" y="0.417633" width="89.3845" height="87.3102" filterUnits="userSpaceOnUse" color-interpolation-filters="sRGB">
<feFlood flood-opacity="0" result="BackgroundImageFix"/>
<feColorMatrix in="SourceAlpha" type="matrix" values="0 0 0 0 0 0 0 0 0 0 0 0 0 0 0 0 0 0 127 0" result="hardAlpha"/>
<feOffset dy="24.3332"/>
<feGaussianBlur stdDeviation="16.2221"/>
<feColorMatrix type="matrix" values="0 0 0 0 0.196487 0 0 0 0 0.196487 0 0 0 0 0.279476 0 0 0 0.08 0"/>
<feBlend mode="multiply" in2="BackgroundImageFix" result="effect1_dropShadow_1148_6627"/>
<feColorMatrix in="SourceAlpha" type="matrix" values="0 0 0 0 0 0 0 0 0 0 0 0 0 0 0 0 0 0 127 0" result="hardAlpha"/>
<feOffset dy="16.2221"/>
<feGaussianBlur stdDeviation="8.11105"/>
<feColorMatrix type="matrix" values="0 0 0 0 0.196487 0 0 0 0 0.196487 0 0 0 0 0.279476 0 0 0 0.08 0"/>
<feBlend mode="multiply" in2="effect1_dropShadow_1148_6627" result="effect2_dropShadow_1148_6627"/>
<feBlend mode="normal" in="SourceGraphic" in2="effect2_dropShadow_1148_6627" result="shape"/>
</filter>
<filter id="filter3_dd_1148_6627" x="102.735" y="0.417633" width="89.3845" height="87.3102" filterUnits="userSpaceOnUse" color-interpolation-filters="sRGB">
<feFlood flood-opacity="0" result="BackgroundImageFix"/>
<feColorMatrix in="SourceAlpha" type="matrix" values="0 0 0 0 0 0 0 0 0 0 0 0 0 0 0 0 0 0 127 0" result="hardAlpha"/>
<feOffset dy="24.3332"/>
<feGaussianBlur stdDeviation="16.2221"/>
<feColorMatrix type="matrix" values="0 0 0 0 0.196487 0 0 0 0 0.196487 0 0 0 0 0.279476 0 0 0 0.08 0"/>
<feBlend mode="multiply" in2="BackgroundImageFix" result="effect1_dropShadow_1148_6627"/>
<feColorMatrix in="SourceAlpha" type="matrix" values="0 0 0 0 0 0 0 0 0 0 0 0 0 0 0 0 0 0 127 0" result="hardAlpha"/>
<feOffset dy="16.2221"/>
<feGaussianBlur stdDeviation="8.11105"/>
<feColorMatrix type="matrix" values="0 0 0 0 0.196487 0 0 0 0 0.196487 0 0 0 0 0.279476 0 0 0 0.08 0"/>
<feBlend mode="multiply" in2="effect1_dropShadow_1148_6627" result="effect2_dropShadow_1148_6627"/>
<feBlend mode="normal" in="SourceGraphic" in2="effect2_dropShadow_1148_6627" result="shape"/>
</filter>
<filter id="filter4_dd_1148_6627" x="136.243" y="0.417633" width="89.3845" height="87.3102" filterUnits="userSpaceOnUse" color-interpolation-filters="sRGB">
<feFlood flood-opacity="0" result="BackgroundImageFix"/>
<feColorMatrix in="SourceAlpha" type="matrix" values="0 0 0 0 0 0 0 0 0 0 0 0 0 0 0 0 0 0 127 0" result="hardAlpha"/>
<feOffset dy="24.3332"/>
<feGaussianBlur stdDeviation="16.2221"/>
<feColorMatrix type="matrix" values="0 0 0 0 0.196487 0 0 0 0 0.196487 0 0 0 0 0.279476 0 0 0 0.08 0"/>
<feBlend mode="multiply" in2="BackgroundImageFix" result="effect1_dropShadow_1148_6627"/>
<feColorMatrix in="SourceAlpha" type="matrix" values="0 0 0 0 0 0 0 0 0 0 0 0 0 0 0 0 0 0 127 0" result="hardAlpha"/>
<feOffset dy="16.2221"/>
<feGaussianBlur stdDeviation="8.11105"/>
<feColorMatrix type="matrix" values="0 0 0 0 0.196487 0 0 0 0 0.196487 0 0 0 0 0.279476 0 0 0 0.08 0"/>
<feBlend mode="multiply" in2="effect1_dropShadow_1148_6627" result="effect2_dropShadow_1148_6627"/>
<feBlend mode="normal" in="SourceGraphic" in2="effect2_dropShadow_1148_6627" result="shape"/>
</filter>
<linearGradient id="paint0_linear_1148_6627" x1="28.8183" y1="18.8951" x2="56.9238" y2="19.3728" gradientUnits="userSpaceOnUse">
<stop stop-color="#1C31F0"/>
<stop offset="1" stop-color="#931CF0"/>
</linearGradient>
<linearGradient id="paint1_linear_1148_6627" x1="28.8183" y1="18.8951" x2="56.9238" y2="19.3728" gradientUnits="userSpaceOnUse">
<stop stop-color="#931CF0"/>
<stop offset="0.552083" stop-color="#5869FF"/>
</linearGradient>
<linearGradient id="paint2_linear_1148_6627" x1="63.2089" y1="18.8951" x2="91.3145" y2="19.3728" gradientUnits="userSpaceOnUse">
<stop stop-color="#1C31F0"/>
<stop offset="1" stop-color="#931CF0"/>
</linearGradient>
<linearGradient id="paint3_linear_1148_6627" x1="63.2089" y1="18.8951" x2="91.3145" y2="19.3728" gradientUnits="userSpaceOnUse">
<stop stop-color="#931CF0"/>
<stop offset="0.552083" stop-color="#5869FF"/>
</linearGradient>
<linearGradient id="paint4_linear_1148_6627" x1="96.7167" y1="18.8951" x2="124.822" y2="19.3728" gradientUnits="userSpaceOnUse">
<stop stop-color="#1C31F0"/>
<stop offset="1" stop-color="#931CF0"/>
</linearGradient>
<linearGradient id="paint5_linear_1148_6627" x1="96.7167" y1="18.8951" x2="124.822" y2="19.3728" gradientUnits="userSpaceOnUse">
<stop stop-color="#931CF0"/>
<stop offset="0.552083" stop-color="#5869FF"/>
</linearGradient>
<linearGradient id="paint6_linear_1148_6627" x1="131.107" y1="18.8951" x2="159.213" y2="19.3728" gradientUnits="userSpaceOnUse">
<stop stop-color="#1C31F0"/>
<stop offset="1" stop-color="#931CF0"/>
</linearGradient>
<linearGradient id="paint7_linear_1148_6627" x1="131.107" y1="18.8951" x2="159.213" y2="19.3728" gradientUnits="userSpaceOnUse">
<stop stop-color="#931CF0"/>
<stop offset="0.552083" stop-color="#5869FF"/>
</linearGradient>
<linearGradient id="paint8_linear_1148_6627" x1="164.615" y1="18.8951" x2="192.721" y2="19.3728" gradientUnits="userSpaceOnUse">
<stop stop-color="#1C31F0"/>
<stop offset="1" stop-color="#931CF0"/>
</linearGradient>
<linearGradient id="paint9_linear_1148_6627" x1="164.615" y1="18.8951" x2="192.721" y2="19.3728" gradientUnits="userSpaceOnUse">
<stop stop-color="#931CF0"/>
<stop offset="0.552083" stop-color="#5869FF"/>
</linearGradient>
</defs>
</svg>
