<svg width="368" height="188" viewBox="0 0 368 188" fill="none" xmlns="http://www.w3.org/2000/svg">
<g opacity="0.5">
<g filter="url(#filter0_d_1_67)">
</g>
<g filter="url(#filter1_ddd_1_67)">
<path d="M268.38 -10.2499C268.38 2.85148 279.448 13.4723 293.102 13.4723C306.756 13.4723 317.824 2.85148 317.824 -10.2499C317.824 -23.3514 306.756 -33.9722 293.102 -33.9722C279.448 -33.9722 268.38 -23.3514 268.38 -10.2499Z" fill="#FDFDFD"/>
</g>
<path opacity="0.3" d="M268.792 41.1481C268.792 49.664 275.986 56.5675 284.861 56.5675C293.736 56.5675 300.931 49.664 300.931 41.1481C300.931 32.6322 293.736 25.7286 284.861 25.7286C275.986 25.7286 268.792 32.6322 268.792 41.1481Z" stroke="#FDFDFD" stroke-width="0.824074"/>
<path d="M278.74 41.5297C278.74 40.1957 279.04 39.1954 279.641 38.528C280.241 37.8725 281.07 37.5443 282.126 37.5443C282.46 37.5443 282.76 37.5823 283.027 37.659L283.027 36.8556L284.261 36.8556L284.261 38.2821C284.495 38.479 284.712 38.7138 284.912 38.9874C285.112 39.261 285.295 39.567 285.462 39.9063L285.462 36.8556L286.697 36.8556L286.697 42.333C286.963 42.6177 287.314 42.76 287.747 42.76C288.103 42.76 288.381 42.6288 288.581 42.3663C288.782 42.1148 288.882 41.7487 288.882 41.2671C288.882 40.8298 288.821 40.387 288.698 39.9387C288.576 39.5014 288.404 39.0096 288.181 38.4624L290.149 37.7246C290.405 38.2932 290.605 38.8838 290.75 39.4959C290.906 40.119 290.983 40.7753 290.983 41.464C290.983 42.6011 290.7 43.5033 290.133 44.1699C289.577 44.8484 288.765 45.1868 287.697 45.1868C287.353 45.1868 287.019 45.1433 286.697 45.0556L286.697 45.8922L285.462 45.8922L285.462 44.3668C285.184 44.1264 284.951 43.8426 284.762 43.5144C284.584 43.1863 284.417 42.847 284.261 42.4975L284.261 45.8922L283.027 45.8922L283.027 40.2834C282.782 40.0755 282.482 39.9719 282.126 39.9719C281.715 39.9719 281.392 40.1134 281.159 40.3981C280.936 40.682 280.825 41.109 280.825 41.6775C280.825 42.2674 280.892 42.847 281.025 43.4156C281.17 43.9841 281.359 44.5527 281.592 45.1212L279.491 45.1212C279.257 44.6515 279.074 44.1098 278.94 43.4978C278.807 42.8858 278.74 42.2295 278.74 41.5297Z" fill="white"/>
<g filter="url(#filter2_ddd_1_67)">
<path d="M228.824 57.7537C228.824 66.4879 236.203 73.5685 245.306 73.5685C254.408 73.5685 261.787 66.4879 261.787 57.7537C261.787 49.0194 254.408 41.9388 245.306 41.9388C236.203 41.9388 228.824 49.0194 228.824 57.7537Z" fill="#FDFDFD"/>
</g>
<path d="M239.184 58.1353C239.184 56.8013 239.485 55.801 240.085 55.1336C240.686 54.4781 241.514 54.1499 242.571 54.1499C242.904 54.1499 243.204 54.1879 243.471 54.2646L243.471 53.4612L244.706 53.4612L244.706 54.8877C244.939 55.0846 245.156 55.3194 245.356 55.593C245.556 55.8666 245.74 56.1726 245.907 56.5119L245.907 53.4612L247.141 53.4612L247.141 58.9386C247.408 59.2233 247.758 59.3657 248.192 59.3657C248.548 59.3657 248.826 59.2344 249.026 58.9718C249.226 58.7204 249.326 58.3543 249.326 57.8727C249.326 57.4355 249.265 56.9926 249.143 56.5443C249.02 56.107 248.848 55.6152 248.625 55.068L250.594 54.3302C250.849 54.8987 251.05 55.4894 251.194 56.1015C251.35 56.7246 251.428 57.3809 251.428 58.0696C251.428 59.2067 251.144 60.1089 250.577 60.7755C250.021 61.454 249.209 61.7924 248.142 61.7924C247.797 61.7924 247.463 61.7489 247.141 61.6612L247.141 62.4978L245.907 62.4978L245.907 60.9724C245.629 60.7321 245.395 60.4482 245.206 60.12C245.028 59.7919 244.861 59.4526 244.706 59.1031L244.706 62.4978L243.471 62.4978L243.471 56.8891C243.227 56.6811 242.926 56.5775 242.571 56.5775C242.159 56.5775 241.837 56.719 241.603 57.0037C241.381 57.2876 241.269 57.7146 241.269 58.2831C241.269 58.873 241.336 59.4526 241.47 60.0212C241.614 60.5897 241.803 61.1583 242.037 61.7268L239.935 61.7268C239.701 61.2571 239.518 60.7154 239.385 60.1034C239.251 59.4914 239.184 58.8351 239.184 58.1353Z" fill="#1C31F0"/>
<path opacity="0.3" d="M182.264 64.8705C182.264 73.3864 189.459 80.2899 198.334 80.2899C207.209 80.2899 214.403 73.3864 214.403 64.8705C214.403 56.3546 207.209 49.451 198.334 49.451C189.459 49.451 182.264 56.3546 182.264 64.8705Z" stroke="#FDFDFD" stroke-width="0.824074"/>
<path d="M192.213 65.2523C192.213 63.9183 192.513 62.9181 193.114 62.2507C193.713 61.5952 194.542 61.267 195.599 61.267C195.932 61.267 196.233 61.305 196.5 61.3817L196.5 60.5782L197.733 60.5782L197.733 62.0048C197.967 62.2017 198.184 62.4365 198.384 62.7101C198.585 62.9837 198.767 63.2897 198.935 63.6281L198.935 60.5782L200.169 60.5782L200.169 66.0557C200.436 66.3404 200.786 66.4819 201.22 66.4819C201.576 66.4819 201.854 66.3514 202.054 66.0889C202.254 65.8375 202.354 65.4706 202.354 64.9898C202.354 64.5525 202.293 64.1097 202.171 63.6614C202.048 63.2241 201.876 62.7322 201.653 62.185L203.622 61.4473C203.878 62.0158 204.078 62.6065 204.222 63.2185C204.378 63.8416 204.456 64.498 204.456 65.1867C204.456 66.3238 204.173 67.226 203.605 67.8926C203.049 68.5711 202.238 68.9095 201.17 68.9095C200.825 68.9095 200.491 68.866 200.169 68.7782L200.169 69.6148L198.935 69.6148L198.935 68.0895C198.656 67.8491 198.423 67.5645 198.234 67.2371C198.056 66.9089 197.889 66.5697 197.733 66.2202L197.733 69.6148L196.5 69.6148L196.5 64.0061C196.255 63.7982 195.954 63.6938 195.599 63.6938C195.187 63.6938 194.865 63.8361 194.631 64.1208C194.409 64.4046 194.298 64.8309 194.298 65.4002C194.298 65.9901 194.364 66.5697 194.498 67.1382C194.642 67.7068 194.831 68.2753 195.065 68.8439L192.963 68.8439C192.729 68.3742 192.546 67.8325 192.412 67.2205C192.28 66.6076 192.213 65.9521 192.213 65.2523Z" fill="white"/>
<g filter="url(#filter3_ddd_1_67)">
<path d="M120.047 -10.2499C120.047 2.85148 131.115 13.4723 144.769 13.4723C158.423 13.4723 169.491 2.85148 169.491 -10.2499C169.491 -23.3514 158.423 -33.9722 144.769 -33.9722C131.115 -33.9722 120.047 -23.3514 120.047 -10.2499Z" fill="#FDFDFD"/>
</g>
<g filter="url(#filter4_ddd_1_67)">
<path d="M95.3245 60.9168C95.3245 80.569 111.927 96.5002 132.408 96.5002C152.888 96.5002 169.491 80.569 169.491 60.9168C169.491 41.2647 152.888 25.3335 132.408 25.3335C111.927 25.3335 95.3245 41.2647 95.3245 60.9168Z" fill="#FDFDFD"/>
</g>
<path d="M118.633 61.7763C118.633 58.7747 119.308 56.5234 120.66 55.0226C122.011 53.5471 123.875 52.8085 126.252 52.8085C127.002 52.8085 127.678 52.8947 128.278 53.0671L128.278 51.2587L131.056 51.2587L131.056 54.4691C131.581 54.9119 132.069 55.4409 132.519 56.0561C132.97 56.6713 133.383 57.36 133.758 58.1223L133.758 51.2587L136.535 51.2587L136.535 63.5839C137.136 64.2236 137.923 64.5439 138.9 64.5439C139.7 64.5439 140.326 64.2482 140.776 63.6583C141.226 63.0921 141.451 62.2681 141.451 61.1856C141.451 60.2011 141.314 59.2048 141.038 58.1966C140.763 57.2121 140.376 56.1051 139.876 54.8755L144.304 53.215C144.879 54.4936 145.33 55.822 145.655 57.2003C146.005 58.6023 146.181 60.0786 146.181 61.6284C146.181 64.1873 145.543 66.2163 144.266 67.7171C143.015 69.2425 141.189 70.0055 138.787 70.0055C138.012 70.0055 137.261 69.9067 136.535 69.7098L136.535 71.5918L133.758 71.5918L133.758 68.16C133.132 67.6191 132.607 66.9794 132.181 66.2408C131.782 65.5031 131.406 64.7408 131.056 63.9532L131.056 71.5918L128.278 71.5918L128.278 58.9715C127.728 58.5042 127.052 58.2702 126.252 58.2702C125.326 58.2702 124.601 58.5904 124.075 59.2301C123.575 59.869 123.324 60.829 123.324 62.1084C123.324 63.4368 123.474 64.7408 123.775 66.0194C124.1 67.2988 124.526 68.5783 125.051 69.8577L120.322 69.8577C119.796 68.7997 119.383 67.5819 119.083 66.2045C118.783 64.827 118.633 63.3507 118.633 61.7763Z" fill="url(#paint0_linear_1_67)"/>
<g filter="url(#filter5_ddd_1_67)">
<path d="M50.0004 -14.2036C50.0004 1.0814 62.9136 13.4723 78.843 13.4723C94.7723 13.4723 107.686 1.0814 107.686 -14.2036C107.686 -29.4886 94.7723 -41.8795 78.843 -41.8795C62.9136 -41.8795 50.0004 -29.4886 50.0004 -14.2036Z" fill="#FDFDFD"/>
</g>
<g filter="url(#filter6_ddd_1_67)">
<path d="M181.852 1.61116C181.852 21.2633 198.455 37.1945 218.935 37.1945C239.416 37.1945 256.019 21.2633 256.019 1.61116C256.019 -18.041 239.416 -33.9722 218.935 -33.9722C198.455 -33.9722 181.852 -18.041 181.852 1.61116Z" fill="#FDFDFD"/>
</g>
<path d="M205.161 2.47065C205.161 -0.531 205.837 -2.78224 207.188 -4.28306C208.539 -5.75859 210.403 -6.49714 212.78 -6.49714C213.53 -6.49714 214.206 -6.41095 214.807 -6.23857L214.807 -8.047L217.584 -8.047L217.584 -4.83659C218.11 -4.39378 218.598 -3.86477 219.047 -3.24957C219.498 -2.63438 219.911 -1.94564 220.286 -1.18336L220.286 -8.047L223.063 -8.047L223.063 4.27828C223.664 4.91799 224.452 5.23825 225.428 5.23825C226.228 5.23825 226.854 4.9425 227.305 4.35261C227.755 3.78644 227.98 2.96249 227.98 1.87996C227.98 0.89549 227.842 -0.100842 227.567 -1.10904C227.292 -2.09351 226.904 -3.20054 226.404 -4.43015L230.833 -6.09071C231.408 -4.81208 231.859 -3.48363 232.183 -2.10537C232.533 -0.703382 232.709 0.772924 232.709 2.32278C232.709 4.88161 232.071 6.91066 230.795 8.41149C229.544 9.93683 227.718 10.6999 225.315 10.6999C224.54 10.6999 223.789 10.601 223.063 10.4041L223.063 12.2861L220.286 12.2861L220.286 8.8543C219.661 8.31343 219.135 7.67372 218.71 6.93517C218.31 6.19741 217.934 5.43513 217.584 4.64755L217.584 12.2861L214.807 12.2861L214.807 -0.334115C214.256 -0.801442 213.581 -1.0355 212.78 -1.0355C211.854 -1.0355 211.129 -0.715243 210.603 -0.0755337C210.103 0.563385 209.852 1.52334 209.852 2.80276C209.852 4.13121 210.002 5.43514 210.303 6.71377C210.628 7.99318 211.054 9.27261 211.579 10.552L206.85 10.552C206.325 9.49401 205.912 8.27626 205.612 6.89879C205.311 5.52132 205.161 4.04502 205.161 2.47065Z" fill="url(#paint1_linear_1_67)"/>
<g filter="url(#filter7_d_1_67)">
</g>
</g>
<defs>
<filter id="filter0_d_1_67" x="157.13" y="-101.519" width="148.333" height="146.333" filterUnits="userSpaceOnUse" color-interpolation-filters="sRGB">
<feFlood flood-opacity="0" result="BackgroundImageFix"/>
<feColorMatrix in="SourceAlpha" type="matrix" values="0 0 0 0 0 0 0 0 0 0 0 0 0 0 0 0 0 0 127 0" result="hardAlpha"/>
<feOffset dy="41.2037"/>
<feGaussianBlur stdDeviation="24.7222"/>
<feColorMatrix type="matrix" values="0 0 0 0 0 0 0 0 0 0 0 0 0 0 0 0 0 0 0.15 0"/>
<feBlend mode="normal" in2="BackgroundImageFix" result="effect1_dropShadow_1_67"/>
<feBlend mode="normal" in="SourceGraphic" in2="effect1_dropShadow_1_67" result="shape"/>
</filter>
<filter id="filter1_ddd_1_67" x="218.935" y="-42.2129" width="148.333" height="146.333" filterUnits="userSpaceOnUse" color-interpolation-filters="sRGB">
<feFlood flood-opacity="0" result="BackgroundImageFix"/>
<feColorMatrix in="SourceAlpha" type="matrix" values="0 0 0 0 0 0 0 0 0 0 0 0 0 0 0 0 0 0 127 0" result="hardAlpha"/>
<feOffset dy="41.2037"/>
<feGaussianBlur stdDeviation="24.7222"/>
<feColorMatrix type="matrix" values="0 0 0 0 0 0 0 0 0 0 0 0 0 0 0 0 0 0 0.15 0"/>
<feBlend mode="normal" in2="BackgroundImageFix" result="effect1_dropShadow_1_67"/>
<feColorMatrix in="SourceAlpha" type="matrix" values="0 0 0 0 0 0 0 0 0 0 0 0 0 0 0 0 0 0 127 0" result="hardAlpha"/>
<feOffset dy="-4.12037"/>
<feGaussianBlur stdDeviation="1.64815"/>
<feComposite in2="hardAlpha" operator="out"/>
<feColorMatrix type="matrix" values="0 0 0 0 0 0 0 0 0 0 0 0 0 0 0 0 0 0 0.25 0"/>
<feBlend mode="normal" in2="effect1_dropShadow_1_67" result="effect2_dropShadow_1_67"/>
<feColorMatrix in="SourceAlpha" type="matrix" values="0 0 0 0 0 0 0 0 0 0 0 0 0 0 0 0 0 0 127 0" result="hardAlpha"/>
<feOffset dy="16.4815"/>
<feGaussianBlur stdDeviation="1.64815"/>
<feComposite in2="hardAlpha" operator="out"/>
<feColorMatrix type="matrix" values="0 0 0 0 1 0 0 0 0 1 0 0 0 0 1 0 0 0 0.25 0"/>
<feBlend mode="normal" in2="effect2_dropShadow_1_67" result="effect3_dropShadow_1_67"/>
<feBlend mode="normal" in="SourceGraphic" in2="effect3_dropShadow_1_67" result="shape"/>
</filter>
<filter id="filter2_ddd_1_67" x="179.38" y="33.6981" width="131.852" height="130.519" filterUnits="userSpaceOnUse" color-interpolation-filters="sRGB">
<feFlood flood-opacity="0" result="BackgroundImageFix"/>
<feColorMatrix in="SourceAlpha" type="matrix" values="0 0 0 0 0 0 0 0 0 0 0 0 0 0 0 0 0 0 127 0" result="hardAlpha"/>
<feOffset dy="41.2037"/>
<feGaussianBlur stdDeviation="24.7222"/>
<feColorMatrix type="matrix" values="0 0 0 0 0 0 0 0 0 0 0 0 0 0 0 0 0 0 0.15 0"/>
<feBlend mode="normal" in2="BackgroundImageFix" result="effect1_dropShadow_1_67"/>
<feColorMatrix in="SourceAlpha" type="matrix" values="0 0 0 0 0 0 0 0 0 0 0 0 0 0 0 0 0 0 127 0" result="hardAlpha"/>
<feOffset dy="-4.12037"/>
<feGaussianBlur stdDeviation="1.64815"/>
<feComposite in2="hardAlpha" operator="out"/>
<feColorMatrix type="matrix" values="0 0 0 0 0 0 0 0 0 0 0 0 0 0 0 0 0 0 0.25 0"/>
<feBlend mode="normal" in2="effect1_dropShadow_1_67" result="effect2_dropShadow_1_67"/>
<feColorMatrix in="SourceAlpha" type="matrix" values="0 0 0 0 0 0 0 0 0 0 0 0 0 0 0 0 0 0 127 0" result="hardAlpha"/>
<feOffset dy="16.4815"/>
<feGaussianBlur stdDeviation="1.64815"/>
<feComposite in2="hardAlpha" operator="out"/>
<feColorMatrix type="matrix" values="0 0 0 0 1 0 0 0 0 1 0 0 0 0 1 0 0 0 0.25 0"/>
<feBlend mode="normal" in2="effect2_dropShadow_1_67" result="effect3_dropShadow_1_67"/>
<feBlend mode="normal" in="SourceGraphic" in2="effect3_dropShadow_1_67" result="shape"/>
</filter>
<filter id="filter3_ddd_1_67" x="70.6023" y="-42.2129" width="148.333" height="146.333" filterUnits="userSpaceOnUse" color-interpolation-filters="sRGB">
<feFlood flood-opacity="0" result="BackgroundImageFix"/>
<feColorMatrix in="SourceAlpha" type="matrix" values="0 0 0 0 0 0 0 0 0 0 0 0 0 0 0 0 0 0 127 0" result="hardAlpha"/>
<feOffset dy="41.2037"/>
<feGaussianBlur stdDeviation="24.7222"/>
<feColorMatrix type="matrix" values="0 0 0 0 0 0 0 0 0 0 0 0 0 0 0 0 0 0 0.15 0"/>
<feBlend mode="normal" in2="BackgroundImageFix" result="effect1_dropShadow_1_67"/>
<feColorMatrix in="SourceAlpha" type="matrix" values="0 0 0 0 0 0 0 0 0 0 0 0 0 0 0 0 0 0 127 0" result="hardAlpha"/>
<feOffset dy="-4.12037"/>
<feGaussianBlur stdDeviation="1.64815"/>
<feComposite in2="hardAlpha" operator="out"/>
<feColorMatrix type="matrix" values="0 0 0 0 0 0 0 0 0 0 0 0 0 0 0 0 0 0 0.25 0"/>
<feBlend mode="normal" in2="effect1_dropShadow_1_67" result="effect2_dropShadow_1_67"/>
<feColorMatrix in="SourceAlpha" type="matrix" values="0 0 0 0 0 0 0 0 0 0 0 0 0 0 0 0 0 0 127 0" result="hardAlpha"/>
<feOffset dy="16.4815"/>
<feGaussianBlur stdDeviation="1.64815"/>
<feComposite in2="hardAlpha" operator="out"/>
<feColorMatrix type="matrix" values="0 0 0 0 1 0 0 0 0 1 0 0 0 0 1 0 0 0 0.25 0"/>
<feBlend mode="normal" in2="effect2_dropShadow_1_67" result="effect3_dropShadow_1_67"/>
<feBlend mode="normal" in="SourceGraphic" in2="effect3_dropShadow_1_67" result="shape"/>
</filter>
<filter id="filter4_ddd_1_67" x="45.8801" y="17.0928" width="173.056" height="170.056" filterUnits="userSpaceOnUse" color-interpolation-filters="sRGB">
<feFlood flood-opacity="0" result="BackgroundImageFix"/>
<feColorMatrix in="SourceAlpha" type="matrix" values="0 0 0 0 0 0 0 0 0 0 0 0 0 0 0 0 0 0 127 0" result="hardAlpha"/>
<feOffset dy="41.2037"/>
<feGaussianBlur stdDeviation="24.7222"/>
<feColorMatrix type="matrix" values="0 0 0 0 0 0 0 0 0 0 0 0 0 0 0 0 0 0 0.15 0"/>
<feBlend mode="normal" in2="BackgroundImageFix" result="effect1_dropShadow_1_67"/>
<feColorMatrix in="SourceAlpha" type="matrix" values="0 0 0 0 0 0 0 0 0 0 0 0 0 0 0 0 0 0 127 0" result="hardAlpha"/>
<feOffset dy="-4.12037"/>
<feGaussianBlur stdDeviation="1.64815"/>
<feComposite in2="hardAlpha" operator="out"/>
<feColorMatrix type="matrix" values="0 0 0 0 0 0 0 0 0 0 0 0 0 0 0 0 0 0 0.25 0"/>
<feBlend mode="normal" in2="effect1_dropShadow_1_67" result="effect2_dropShadow_1_67"/>
<feColorMatrix in="SourceAlpha" type="matrix" values="0 0 0 0 0 0 0 0 0 0 0 0 0 0 0 0 0 0 127 0" result="hardAlpha"/>
<feOffset dy="16.4815"/>
<feGaussianBlur stdDeviation="1.64815"/>
<feComposite in2="hardAlpha" operator="out"/>
<feColorMatrix type="matrix" values="0 0 0 0 1 0 0 0 0 1 0 0 0 0 1 0 0 0 0.25 0"/>
<feBlend mode="normal" in2="effect2_dropShadow_1_67" result="effect3_dropShadow_1_67"/>
<feBlend mode="normal" in="SourceGraphic" in2="effect3_dropShadow_1_67" result="shape"/>
</filter>
<filter id="filter5_ddd_1_67" x="0.55592" y="-50.1203" width="156.574" height="154.241" filterUnits="userSpaceOnUse" color-interpolation-filters="sRGB">
<feFlood flood-opacity="0" result="BackgroundImageFix"/>
<feColorMatrix in="SourceAlpha" type="matrix" values="0 0 0 0 0 0 0 0 0 0 0 0 0 0 0 0 0 0 127 0" result="hardAlpha"/>
<feOffset dy="41.2037"/>
<feGaussianBlur stdDeviation="24.7222"/>
<feColorMatrix type="matrix" values="0 0 0 0 0 0 0 0 0 0 0 0 0 0 0 0 0 0 0.15 0"/>
<feBlend mode="normal" in2="BackgroundImageFix" result="effect1_dropShadow_1_67"/>
<feColorMatrix in="SourceAlpha" type="matrix" values="0 0 0 0 0 0 0 0 0 0 0 0 0 0 0 0 0 0 127 0" result="hardAlpha"/>
<feOffset dy="-4.12037"/>
<feGaussianBlur stdDeviation="1.64815"/>
<feComposite in2="hardAlpha" operator="out"/>
<feColorMatrix type="matrix" values="0 0 0 0 0 0 0 0 0 0 0 0 0 0 0 0 0 0 0.25 0"/>
<feBlend mode="normal" in2="effect1_dropShadow_1_67" result="effect2_dropShadow_1_67"/>
<feColorMatrix in="SourceAlpha" type="matrix" values="0 0 0 0 0 0 0 0 0 0 0 0 0 0 0 0 0 0 127 0" result="hardAlpha"/>
<feOffset dy="16.4815"/>
<feGaussianBlur stdDeviation="1.64815"/>
<feComposite in2="hardAlpha" operator="out"/>
<feColorMatrix type="matrix" values="0 0 0 0 1 0 0 0 0 1 0 0 0 0 1 0 0 0 0.25 0"/>
<feBlend mode="normal" in2="effect2_dropShadow_1_67" result="effect3_dropShadow_1_67"/>
<feBlend mode="normal" in="SourceGraphic" in2="effect3_dropShadow_1_67" result="shape"/>
</filter>
<filter id="filter6_ddd_1_67" x="132.407" y="-42.2129" width="173.056" height="170.056" filterUnits="userSpaceOnUse" color-interpolation-filters="sRGB">
<feFlood flood-opacity="0" result="BackgroundImageFix"/>
<feColorMatrix in="SourceAlpha" type="matrix" values="0 0 0 0 0 0 0 0 0 0 0 0 0 0 0 0 0 0 127 0" result="hardAlpha"/>
<feOffset dy="41.2037"/>
<feGaussianBlur stdDeviation="24.7222"/>
<feColorMatrix type="matrix" values="0 0 0 0 0 0 0 0 0 0 0 0 0 0 0 0 0 0 0.15 0"/>
<feBlend mode="normal" in2="BackgroundImageFix" result="effect1_dropShadow_1_67"/>
<feColorMatrix in="SourceAlpha" type="matrix" values="0 0 0 0 0 0 0 0 0 0 0 0 0 0 0 0 0 0 127 0" result="hardAlpha"/>
<feOffset dy="-4.12037"/>
<feGaussianBlur stdDeviation="1.64815"/>
<feComposite in2="hardAlpha" operator="out"/>
<feColorMatrix type="matrix" values="0 0 0 0 0 0 0 0 0 0 0 0 0 0 0 0 0 0 0.25 0"/>
<feBlend mode="normal" in2="effect1_dropShadow_1_67" result="effect2_dropShadow_1_67"/>
<feColorMatrix in="SourceAlpha" type="matrix" values="0 0 0 0 0 0 0 0 0 0 0 0 0 0 0 0 0 0 127 0" result="hardAlpha"/>
<feOffset dy="16.4815"/>
<feGaussianBlur stdDeviation="1.64815"/>
<feComposite in2="hardAlpha" operator="out"/>
<feColorMatrix type="matrix" values="0 0 0 0 1 0 0 0 0 1 0 0 0 0 1 0 0 0 0.25 0"/>
<feBlend mode="normal" in2="effect2_dropShadow_1_67" result="effect3_dropShadow_1_67"/>
<feBlend mode="normal" in="SourceGraphic" in2="effect3_dropShadow_1_67" result="shape"/>
</filter>
<filter id="filter7_d_1_67" x="70.6019" y="-125.241" width="173.056" height="170.056" filterUnits="userSpaceOnUse" color-interpolation-filters="sRGB">
<feFlood flood-opacity="0" result="BackgroundImageFix"/>
<feColorMatrix in="SourceAlpha" type="matrix" values="0 0 0 0 0 0 0 0 0 0 0 0 0 0 0 0 0 0 127 0" result="hardAlpha"/>
<feOffset dy="41.2037"/>
<feGaussianBlur stdDeviation="24.7222"/>
<feColorMatrix type="matrix" values="0 0 0 0 0 0 0 0 0 0 0 0 0 0 0 0 0 0 0.15 0"/>
<feBlend mode="normal" in2="BackgroundImageFix" result="effect1_dropShadow_1_67"/>
<feBlend mode="normal" in="SourceGraphic" in2="effect1_dropShadow_1_67" result="shape"/>
</filter>
<linearGradient id="paint0_linear_1_67" x1="95.4589" y1="56.2214" x2="99.1804" y2="78.2004" gradientUnits="userSpaceOnUse">
<stop stop-color="#182FFF"/>
<stop offset="1" stop-color="#0F1979"/>
</linearGradient>
<linearGradient id="paint1_linear_1_67" x1="181.987" y1="-3.08431" x2="185.709" y2="18.8948" gradientUnits="userSpaceOnUse">
<stop stop-color="#182FFF"/>
<stop offset="1" stop-color="#0F1979"/>
</linearGradient>
</defs>
</svg>
